STARTFONT 2.1
FONT -FontForge-Open Sans-Bold-R-Normal-Sans--28-280-72-72-P-173-ISO10646-1
SIZE 28 72 72
FONTBOUNDINGBOX 54 38 -17 -8
COMMENT "Generated by fontforge, http://fontforge.sourceforge.net"
COMMENT "Digitized data copyright (c) 2010-2011, Google Corporation."
STARTPROPERTIES 40
FOUNDRY "FontForge"
FAMILY_NAME "Open Sans"
WEIGHT_NAME "Bold"
SLANT "R"
SETWIDTH_NAME "Normal"
ADD_STYLE_NAME "Sans"
PIXEL_SIZE 28
POINT_SIZE 280
RESOLUTION_X 72
RESOLUTION_Y 72
SPACING "P"
AVERAGE_WIDTH 173
CHARSET_REGISTRY "ISO10646"
CHARSET_ENCODING "1"
FONTNAME_REGISTRY ""
CHARSET_COLLECTIONS "ISO8859-2 ISO8859-5 ISO8859-7 ISO8859-9 ISO8859-4 ISO10646-1"
FONT_NAME "OpenSans-Bold"
FACE_NAME "Open Sans Bold"
COPYRIGHT "Digitized data copyright (c) 2010-2011, Google Corporation."
FONT_VERSION "1.10"
FONT_ASCENT 22
FONT_DESCENT 6
UNDERLINE_POSITION -3
UNDERLINE_THICKNESS 2
X_HEIGHT 14
CAP_HEIGHT 19
RAW_ASCENT 799
RAW_DESCENT 200
NORM_SPACE 7
RELATIVE_WEIGHT 70
RELATIVE_SETWIDTH 50
SUPERSCRIPT_X 0
SUPERSCRIPT_Y 13
SUPERSCRIPT_SIZE 18
SUBSCRIPT_X 0
SUBSCRIPT_Y 3
SUBSCRIPT_SIZE 18
FIGURE_WIDTH 16
AVG_LOWERCASE_WIDTH 174
AVG_UPPERCASE_WIDTH 198
ENDPROPERTIES
CHARS 938
STARTCHAR space
ENCODING 32
SWIDTH 259 0
DWIDTH 7 0
BBX 1 1 0 0
BITMAP
00
ENDCHAR
STARTCHAR exclam
ENCODING 33
SWIDTH 286 0
DWIDTH 8 0
BBX 4 20 2 0
BITMAP
F0
F0
F0
F0
F0
F0
F0
F0
F0
F0
F0
F0
F0
00
00
F0
F0
F0
F0
F0
ENDCHAR
STARTCHAR quotedbl
ENCODING 34
SWIDTH 472 0
DWIDTH 13 0
BBX 10 7 2 13
BITMAP
F3C0
F3C0
E380
E380
E380
E380
E380
ENDCHAR
STARTCHAR numbersign
ENCODING 35
SWIDTH 645 0
DWIDTH 18 0
BBX 16 20 1 0
BITMAP
071C
071C
071C
071C
0738
0738
7FFF
7FFF
7FFF
0E70
0E70
1C70
FFFF
FFFF
FFFF
1CE0
18E0
38E0
38E0
39E0
ENDCHAR
STARTCHAR dollar
ENCODING 36
SWIDTH 570 0
DWIDTH 16 0
BBX 14 23 1 -2
BITMAP
0300
0300
0FF0
3FF8
7FF8
FB18
F300
FB00
7F00
7F80
3FE0
0FF0
03F8
03FC
033C
833C
E37C
FFF8
FFF0
3FC0
0300
0300
0300
ENDCHAR
STARTCHAR percent
ENCODING 37
SWIDTH 900 0
DWIDTH 25 0
BBX 23 20 1 0
BITMAP
3E01C0
7F03C0
7F8380
F78780
E38700
E38F00
E38E00
E39CF8
E39DFC
F7BBFC
7FBBDE
7F738E
3EF38E
00E38E
01E38E
01C38E
03C39E
0383FC
0781FC
0700F8
ENDCHAR
STARTCHAR ampersand
ENCODING 38
SWIDTH 750 0
DWIDTH 21 0
BBX 20 20 1 0
BITMAP
07E000
1FF000
3FF800
3C7800
3C7800
3C7800
3CF800
1FF000
0FE000
1F81E0
7FC3E0
7FE3C0
F9F3C0
F8FF80
F87F80
F83F00
7C3F80
7FFFC0
3FFFE0
0FE3F0
ENDCHAR
STARTCHAR quotesingle
ENCODING 39
SWIDTH 266 0
DWIDTH 7 0
BBX 4 7 2 13
BITMAP
F0
F0
E0
E0
E0
E0
E0
ENDCHAR
STARTCHAR parenleft
ENCODING 40
SWIDTH 338 0
DWIDTH 9 0
BBX 7 24 1 -4
BITMAP
1E
1C
3C
78
78
70
F0
F0
F0
E0
E0
E0
E0
E0
E0
F0
F0
F0
70
78
78
3C
1C
1E
ENDCHAR
STARTCHAR parenright
ENCODING 41
SWIDTH 338 0
DWIDTH 9 0
BBX 7 24 1 -4
BITMAP
F0
70
78
3C
3C
1C
1E
1E
1E
0E
0E
0E
0E
0E
0E
1E
1E
1E
1C
3C
3C
78
70
F0
ENDCHAR
STARTCHAR asterisk
ENCODING 42
SWIDTH 544 0
DWIDTH 15 0
BBX 13 13 1 8
BITMAP
0700
0700
0700
0700
F738
FFF8
FFF8
0F80
1F80
1DC0
3DE0
38E0
08C0
ENDCHAR
STARTCHAR plus
ENCODING 43
SWIDTH 570 0
DWIDTH 16 0
BBX 14 13 1 3
BITMAP
0700
0700
0700
0700
0700
FFFC
FFFC
FFFC
0700
0700
0700
0700
0700
ENDCHAR
STARTCHAR comma
ENCODING 44
SWIDTH 290 0
DWIDTH 8 0
BBX 5 7 1 -4
BITMAP
78
78
78
70
F0
F0
E0
ENDCHAR
STARTCHAR hyphen
ENCODING 45
SWIDTH 321 0
DWIDTH 9 0
BBX 7 3 1 6
BITMAP
FE
FE
FE
ENDCHAR
STARTCHAR period
ENCODING 46
SWIDTH 285 0
DWIDTH 8 0
BBX 4 5 2 0
BITMAP
F0
F0
F0
F0
F0
ENDCHAR
STARTCHAR slash
ENCODING 47
SWIDTH 413 0
DWIDTH 12 0
BBX 12 20 0 0
BITMAP
00F0
01E0
01E0
01C0
03C0
03C0
0780
0780
0780
0F00
0F00
0E00
1E00
1E00
3C00
3C00
3800
7800
7800
F000
ENDCHAR
STARTCHAR zero
ENCODING 48
SWIDTH 570 0
DWIDTH 16 0
BBX 14 20 1 0
BITMAP
0FC0
1FE0
3FF0
7CF8
7878
F878
F03C
F03C
F03C
F03C
F03C
F03C
F03C
F03C
F87C
7878
7CF8
3FF0
1FE0
0FC0
ENDCHAR
STARTCHAR one
ENCODING 49
SWIDTH 570 0
DWIDTH 16 0
BBX 10 20 2 0
BITMAP
07C0
0FC0
1FC0
3FC0
FFC0
F7C0
67C0
07C0
07C0
07C0
07C0
07C0
07C0
07C0
07C0
07C0
07C0
07C0
07C0
07C0
ENDCHAR
STARTCHAR two
ENCODING 50
SWIDTH 570 0
DWIDTH 16 0
BBX 14 20 1 0
BITMAP
0FC0
7FF0
FFF8
78F8
207C
007C
0078
0078
00F8
00F0
01E0
03E0
07C0
0F80
1F00
3E00
7C00
FFFC
FFFC
FFFC
ENDCHAR
STARTCHAR three
ENCODING 51
SWIDTH 570 0
DWIDTH 16 0
BBX 14 20 1 0
BITMAP
1FC0
7FF0
7FF8
70F8
0078
0078
0078
00F0
1FE0
1FC0
1FF0
00F8
007C
007C
007C
007C
C0F8
FFF8
FFF0
3FC0
ENDCHAR
STARTCHAR four
ENCODING 52
SWIDTH 570 0
DWIDTH 16 0
BBX 16 20 0 0
BITMAP
0078
00F8
00F8
01F8
03F8
03F8
0778
0F78
0E78
1C78
3C78
3878
7878
FFFF
FFFF
FFFF
0078
0078
0078
0078
ENDCHAR
STARTCHAR five
ENCODING 53
SWIDTH 570 0
DWIDTH 16 0
BBX 14 20 1 0
BITMAP
7FF0
7FF0
7FF0
7800
7800
7800
7800
7FC0
7FF0
7FF8
20F8
007C
007C
007C
007C
0078
E0F8
FFF0
FFE0
3F80
ENDCHAR
STARTCHAR six
ENCODING 54
SWIDTH 570 0
DWIDTH 16 0
BBX 14 20 1 0
BITMAP
03F8
0FF8
1FF8
3E00
7C00
7800
7000
F3E0
F7F0
FFF8
FC7C
F83C
F03C
F03C
F03C
783C
7C78
3FF8
1FF0
0FC0
ENDCHAR
STARTCHAR seven
ENCODING 55
SWIDTH 570 0
DWIDTH 16 0
BBX 14 20 1 0
BITMAP
FFFC
FFFC
FFFC
007C
0078
0078
00F0
00F0
01E0
01E0
03E0
03C0
07C0
0780
0780
0F00
0F00
1F00
1E00
3E00
ENDCHAR
STARTCHAR eight
ENCODING 56
SWIDTH 570 0
DWIDTH 16 0
BBX 14 20 1 0
BITMAP
0FC0
3FF0
7FF8
7878
7878
7878
7878
7FF0
3FE0
0FC0
3FE0
7FF8
F878
F03C
F03C
F03C
F87C
7FF8
3FF0
1FC0
ENDCHAR
STARTCHAR nine
ENCODING 57
SWIDTH 570 0
DWIDTH 16 0
BBX 14 20 1 0
BITMAP
0FC0
3FE0
7FF0
78F8
F078
F03C
F03C
F03C
F07C
F8FC
7FFC
3FBC
1F3C
0038
0078
00F8
01F0
7FE0
7FC0
7F00
ENDCHAR
STARTCHAR colon
ENCODING 58
SWIDTH 285 0
DWIDTH 8 0
BBX 4 15 2 0
BITMAP
F0
F0
F0
F0
F0
00
00
00
00
00
F0
F0
F0
F0
F0
ENDCHAR
STARTCHAR semicolon
ENCODING 59
SWIDTH 290 0
DWIDTH 8 0
BBX 5 19 1 -4
BITMAP
78
78
78
78
78
00
00
00
00
00
00
00
78
78
78
70
F0
F0
E0
ENDCHAR
STARTCHAR less
ENCODING 60
SWIDTH 570 0
DWIDTH 16 0
BBX 14 14 1 3
BITMAP
000C
003C
00FC
03F0
0FC0
3F00
FC00
FC00
7F00
1FE0
03F8
00FC
003C
000C
ENDCHAR
STARTCHAR equal
ENCODING 61
SWIDTH 570 0
DWIDTH 16 0
BBX 14 8 1 6
BITMAP
FFFC
FFFC
FFFC
0000
0000
FFFC
FFFC
FFFC
ENDCHAR
STARTCHAR greater
ENCODING 62
SWIDTH 570 0
DWIDTH 16 0
BBX 14 14 1 3
BITMAP
C000
F000
FC00
3F00
0FC0
03F0
00FC
00FC
03F8
1FE0
7F00
FC00
F000
C000
ENDCHAR
STARTCHAR question
ENCODING 63
SWIDTH 477 0
DWIDTH 13 0
BBX 12 20 0 0
BITMAP
1F80
FFE0
7FF0
60F0
00F0
00F0
00F0
03E0
07E0
0F80
0F00
0E00
0E00
0000
0000
0E00
1F00
1F00
1F00
0E00
ENDCHAR
STARTCHAR at
ENCODING 64
SWIDTH 896 0
DWIDTH 25 0
BBX 23 22 1 -2
BITMAP
007F00
03FFC0
07FFF0
0F00F0
1C0038
387F3C
78FF9C
71FF9C
73C38E
73838E
F3838E
E3839E
E3879C
F3879C
73FFFC
71FDF8
78F8F0
3C0000
3E0040
1FFFC0
07FFC0
01FF00
ENDCHAR
STARTCHAR A
ENCODING 65
SWIDTH 689 0
DWIDTH 19 0
BBX 19 20 0 0
BITMAP
01F000
03F800
03F800
03B800
07BC00
07BC00
07BC00
0F1E00
0F1E00
0F1E00
1E0F00
1E0F00
1FFF00
3FFF80
3FFF80
3C0780
7C07C0
7803C0
7803C0
F803E0
ENDCHAR
STARTCHAR B
ENCODING 66
SWIDTH 671 0
DWIDTH 19 0
BBX 15 20 3 0
BITMAP
FFC0
FFF0
FFF8
F07C
F03C
F03C
F07C
F078
FFF8
FFE0
FFF8
F07C
F03C
F03C
F03E
F03C
F07C
FFF8
FFF0
FFC0
ENDCHAR
STARTCHAR C
ENCODING 67
SWIDTH 637 0
DWIDTH 18 0
BBX 15 20 2 0
BITMAP
03F8
0FFE
3FFC
7E0C
7C00
F800
F000
F000
F000
F000
F000
F000
F000
F000
F800
7800
7E0C
3FFC
1FFC
07F8
ENDCHAR
STARTCHAR D
ENCODING 68
SWIDTH 740 0
DWIDTH 21 0
BBX 16 20 3 0
BITMAP
FFC0
FFF0
FFFC
F07C
F03E
F01F
F01F
F00F
F00F
F00F
F00F
F00F
F00F
F01F
F01F
F03E
F07C
FFF8
FFF0
FF80
ENDCHAR
STARTCHAR E
ENCODING 69
SWIDTH 560 0
DWIDTH 16 0
BBX 11 20 3 0
BITMAP
FFE0
FFE0
FFE0
F000
F000
F000
F000
F000
FFE0
FFE0
FFE0
F000
F000
F000
F000
F000
F000
FFE0
FFE0
FFE0
ENDCHAR
STARTCHAR F
ENCODING 70
SWIDTH 548 0
DWIDTH 15 0
BBX 11 20 3 0
BITMAP
FFE0
FFE0
FFE0
F000
F000
F000
F000
F000
F000
FFC0
FFC0
FFC0
F000
F000
F000
F000
F000
F000
F000
F000
ENDCHAR
STARTCHAR G
ENCODING 71
SWIDTH 724 0
DWIDTH 20 0
BBX 16 20 2 0
BITMAP
03FC
0FFF
3FFE
3E06
7C00
F800
F800
F000
F000
F0FF
F0FF
F0FF
F00F
F00F
F80F
7C0F
7E0F
3FFF
1FFF
07FC
ENDCHAR
STARTCHAR H
ENCODING 72
SWIDTH 765 0
DWIDTH 21 0
BBX 15 20 3 0
BITMAP
F01E
F01E
F01E
F01E
F01E
F01E
F01E
F01E
FFFE
FFFE
FFFE
F01E
F01E
F01E
F01E
F01E
F01E
F01E
F01E
F01E
ENDCHAR
STARTCHAR I
ENCODING 73
SWIDTH 331 0
DWIDTH 9 0
BBX 5 20 2 0
BITMAP
F8
F8
F8
F8
F8
F8
F8
F8
F8
F8
F8
F8
F8
F8
F8
F8
F8
F8
F8
F8
ENDCHAR
STARTCHAR J
ENCODING 74
SWIDTH 331 0
DWIDTH 9 0
BBX 9 26 -2 -6
BITMAP
0780
0780
0780
0780
0780
0780
0780
0780
0780
0780
0780
0780
0780
0780
0780
0780
0780
0780
0780
0F80
0F80
0F00
0F00
FF00
FE00
F800
ENDCHAR
STARTCHAR K
ENCODING 75
SWIDTH 664 0
DWIDTH 19 0
BBX 16 20 3 0
BITMAP
F01F
F03E
F07C
F0F8
F1F0
F1E0
F3E0
F7C0
FF80
FF80
FFC0
FFC0
F3E0
F1F0
F0F0
F0F8
F07C
F03C
F03E
F01F
ENDCHAR
STARTCHAR L
ENCODING 76
SWIDTH 564 0
DWIDTH 16 0
BBX 12 20 3 0
BITMAP
F000
F000
F000
F000
F000
F000
F000
F000
F000
F000
F000
F000
F000
F000
F000
F000
F000
FFF0
FFF0
FFF0
ENDCHAR
STARTCHAR M
ENCODING 77
SWIDTH 942 0
DWIDTH 26 0
BBX 20 20 3 0
BITMAP
F801F0
FC03F0
FC03F0
FC03F0
FE07F0
EE0770
EE0770
EE0F70
EF0E70
E70E70
E71E70
E79C70
E39C70
E3BC70
E3F870
E3F870
E1F870
E1F070
E1F070
E0F070
ENDCHAR
STARTCHAR N
ENCODING 78
SWIDTH 812 0
DWIDTH 23 0
BBX 17 20 3 0
BITMAP
F80380
FC0380
FC0380
FE0380
FF0380
EF0380
EF8380
E78380
E7C380
E3E380
E3E380
E1F380
E0F380
E0FB80
E07F80
E07F80
E03F80
E01F80
E01F80
E00F80
ENDCHAR
STARTCHAR O
ENCODING 79
SWIDTH 795 0
DWIDTH 22 0
BBX 18 20 2 0
BITMAP
03F000
1FFE00
3FFF00
7E1F80
7C0780
F807C0
F807C0
F003C0
F003C0
F003C0
F003C0
F003C0
F003C0
F007C0
F807C0
7C0F80
7E1F80
3FFF00
1FFE00
03F000
ENDCHAR
STARTCHAR P
ENCODING 80
SWIDTH 627 0
DWIDTH 18 0
BBX 14 20 3 0
BITMAP
FFC0
FFF0
FFF8
F0F8
F07C
F07C
F07C
F07C
F078
F0F8
FFF0
FFE0
FF80
F000
F000
F000
F000
F000
F000
F000
ENDCHAR
STARTCHAR Q
ENCODING 81
SWIDTH 795 0
DWIDTH 22 0
BBX 18 24 2 -4
BITMAP
03F000
1FFE00
3FFF00
7E1F80
7C0780
F807C0
F807C0
F003C0
F003C0
F003C0
F003C0
F003C0
F003C0
F007C0
F807C0
7C0F80
7E1F80
3FFF00
1FFE00
03FC00
003E00
001F00
001F80
000FC0
ENDCHAR
STARTCHAR R
ENCODING 82
SWIDTH 660 0
DWIDTH 18 0
BBX 15 20 3 0
BITMAP
FF80
FFE0
FFF0
F1F8
F0F8
F078
F078
F0F8
F1F0
FFF0
FFC0
FFC0
F3C0
F1E0
F1F0
F0F0
F0F8
F078
F07C
F03E
ENDCHAR
STARTCHAR S
ENCODING 83
SWIDTH 550 0
DWIDTH 15 0
BBX 13 20 1 0
BITMAP
0FE0
3FF8
7FF0
7830
F800
F800
7800
7E00
7F00
3FC0
1FE0
07F0
01F8
00F8
0078
8078
E0F8
FFF0
FFE0
3F80
ENDCHAR
STARTCHAR T
ENCODING 84
SWIDTH 579 0
DWIDTH 16 0
BBX 16 20 0 0
BITMAP
FFFF
FFFF
FFFF
03C0
03C0
03C0
03C0
03C0
03C0
03C0
03C0
03C0
03C0
03C0
03C0
03C0
03C0
03C0
03C0
03C0
ENDCHAR
STARTCHAR U
ENCODING 85
SWIDTH 755 0
DWIDTH 21 0
BBX 17 20 2 0
BITMAP
F80F80
F80F80
F80F80
F80F80
F80F80
F80F80
F80F80
F80F80
F80F80
F80F80
F80F80
F80F80
F80F80
F80F80
780F00
780F00
7C1F00
3FFE00
1FFC00
07F000
ENDCHAR
STARTCHAR V
ENCODING 86
SWIDTH 649 0
DWIDTH 18 0
BBX 18 20 0 0
BITMAP
F003C0
F807C0
780780
780780
7C0F80
3C0F00
3C0F00
3E1E00
1E1E00
1E1E00
1F3C00
0F3C00
0F3C00
0F3800
07F800
07F800
07F000
03F000
03F000
03E000
ENDCHAR
STARTCHAR W
ENCODING 87
SWIDTH 966 0
DWIDTH 27 0
BBX 27 20 0 0
BITMAP
F01F01E0
F81F03E0
781F03C0
781F03C0
783F83C0
783B83C0
3C3B8780
3C3B8780
3C7BC780
3C7BC780
1E71CF00
1E71CF00
1EF1EF00
1EF1EF00
0EE0EE00
0FE0FE00
0FE0FE00
0FE0FE00
07C07C00
07C07C00
ENDCHAR
STARTCHAR X
ENCODING 88
SWIDTH 666 0
DWIDTH 19 0
BBX 19 20 0 0
BITMAP
7803C0
7C07C0
3E0F80
1E0F00
1F1F00
0F9E00
07BC00
07FC00
03F800
01F000
03F000
03F800
07FC00
0FBE00
0F1E00
1E1F00
3E0F80
3C0780
7C07C0
F803E0
ENDCHAR
STARTCHAR Y
ENCODING 89
SWIDTH 624 0
DWIDTH 17 0
BBX 17 20 0 0
BITMAP
F80F80
780F80
7C1F00
3C1E00
3E3E00
1E3C00
1F7C00
0F7800
0FF800
07F000
07F000
03E000
03E000
03E000
03E000
03E000
03E000
03E000
03E000
03E000
ENDCHAR
STARTCHAR Z
ENCODING 90
SWIDTH 579 0
DWIDTH 16 0
BBX 14 20 1 0
BITMAP
FFFC
FFFC
FFFC
0078
00F8
01F0
01E0
03E0
03C0
07C0
0F80
0F00
1F00
3E00
3C00
7C00
F800
FFFC
FFFC
FFFC
ENDCHAR
STARTCHAR bracketleft
ENCODING 91
SWIDTH 331 0
DWIDTH 9 0
BBX 6 24 2 -4
BITMAP
FC
FC
FC
E0
E0
E0
E0
E0
E0
E0
E0
E0
E0
E0
E0
E0
E0
E0
E0
E0
E0
FC
FC
FC
ENDCHAR
STARTCHAR backslash
ENCODING 92
SWIDTH 413 0
DWIDTH 12 0
BBX 12 20 0 0
BITMAP
F000
7800
7800
3800
3C00
3C00
1E00
1E00
0E00
0F00
0F00
0700
0780
0780
03C0
03C0
01C0
01E0
01E0
00F0
ENDCHAR
STARTCHAR bracketright
ENCODING 93
SWIDTH 331 0
DWIDTH 9 0
BBX 6 24 1 -4
BITMAP
FC
FC
FC
1C
1C
1C
1C
1C
1C
1C
1C
1C
1C
1C
1C
1C
1C
1C
1C
1C
1C
FC
FC
FC
ENDCHAR
STARTCHAR asciicircum
ENCODING 94
SWIDTH 532 0
DWIDTH 15 0
BBX 15 13 0 7
BITMAP
0300
0780
0780
0FC0
0FC0
0EE0
1CF0
1C70
3878
3838
703C
701C
F01E
ENDCHAR
STARTCHAR underscore
ENCODING 95
SWIDTH 411 0
DWIDTH 12 0
BBX 12 2 0 -4
BITMAP
FFF0
FFF0
ENDCHAR
STARTCHAR grave
ENCODING 96
SWIDTH 606 0
DWIDTH 17 0
BBX 7 4 5 17
BITMAP
F8
78
3C
0E
ENDCHAR
STARTCHAR a
ENCODING 97
SWIDTH 604 0
DWIDTH 17 0
BBX 14 15 1 0
BITMAP
0FE0
3FF0
3FF8
187C
003C
003C
0FFC
3FFC
7C3C
F83C
F07C
F8FC
7FFC
7FBC
3F1C
ENDCHAR
STARTCHAR b
ENCODING 98
SWIDTH 632 0
DWIDTH 18 0
BBX 15 21 2 0
BITMAP
F000
F000
F000
F000
F000
F000
F3E0
F7F8
FFFC
FC7C
F83C
F83E
F03E
F03E
F03E
F83E
F83C
FC7C
FFFC
F7F8
F3E0
ENDCHAR
STARTCHAR c
ENCODING 99
SWIDTH 514 0
DWIDTH 14 0
BBX 12 15 1 0
BITMAP
0FE0
1FF0
3FF0
7C20
7800
F800
F800
F800
F800
F800
7800
7C30
7FF0
3FF0
0FE0
ENDCHAR
STARTCHAR d
ENCODING 100
SWIDTH 632 0
DWIDTH 18 0
BBX 15 21 1 0
BITMAP
001E
001E
001E
001E
001E
001E
0F9E
3FDE
7FFE
7C7E
783E
F81E
F81E
F01E
F81E
F81E
783E
7C3E
7FFE
3FDE
0F9E
ENDCHAR
STARTCHAR e
ENCODING 101
SWIDTH 590 0
DWIDTH 17 0
BBX 15 15 1 0
BITMAP
07E0
1FF8
3FF8
7C3C
781C
F81E
FFFE
FFFE
FFFE
F800
7800
7C0C
3FFC
1FFC
07F8
ENDCHAR
STARTCHAR f
ENCODING 102
SWIDTH 387 0
DWIDTH 11 0
BBX 11 21 1 0
BITMAP
0FE0
1FE0
3FE0
3E00
3C00
3C00
7FC0
FFC0
FFC0
3C00
3C00
3C00
3C00
3C00
3C00
3C00
3C00
3C00
3C00
3C00
3C00
ENDCHAR
STARTCHAR g
ENCODING 103
SWIDTH 564 0
DWIDTH 16 0
BBX 16 22 0 -7
BITMAP
0FFF
1FFF
3C7E
783C
783C
783C
783C
3C78
1FF0
1FE0
3800
3C00
3FFC
1FFE
3FFE
781E
F00E
F00E
F83E
7FFC
7FF8
1FE0
ENDCHAR
STARTCHAR h
ENCODING 104
SWIDTH 657 0
DWIDTH 18 0
BBX 14 21 2 0
BITMAP
F000
F000
F000
F000
F000
F000
F3E0
F7F8
FFF8
FC7C
F87C
F83C
F03C
F03C
F03C
F03C
F03C
F03C
F03C
F03C
F03C
ENDCHAR
STARTCHAR i
ENCODING 105
SWIDTH 305 0
DWIDTH 9 0
BBX 4 21 2 0
BITMAP
70
F0
F0
70
00
00
F0
F0
F0
F0
F0
F0
F0
F0
F0
F0
F0
F0
F0
F0
F0
ENDCHAR
STARTCHAR j
ENCODING 106
SWIDTH 305 0
DWIDTH 9 0
BBX 8 28 -2 -7
BITMAP
07
0F
0F
07
00
00
0F
0F
0F
0F
0F
0F
0F
0F
0F
0F
0F
0F
0F
0F
0F
0F
0F
0F
0F
FF
FE
FC
ENDCHAR
STARTCHAR k
ENCODING 107
SWIDTH 620 0
DWIDTH 17 0
BBX 15 21 2 0
BITMAP
F000
F000
F000
F000
F000
F000
F07C
F078
F0F0
F1F0
F3E0
F7C0
FF80
FFC0
FFC0
FBE0
F1F0
F0F0
F0F8
F07C
F03E
ENDCHAR
STARTCHAR l
ENCODING 108
SWIDTH 305 0
DWIDTH 9 0
BBX 4 21 2 0
BITMAP
F0
F0
F0
F0
F0
F0
F0
F0
F0
F0
F0
F0
F0
F0
F0
F0
F0
F0
F0
F0
F0
ENDCHAR
STARTCHAR m
ENCODING 109
SWIDTH 981 0
DWIDTH 28 0
BBX 24 15 2 0
BITMAP
F3F0F8
F7FBFE
FFFFFE
FC7F1F
F83E1F
F83C0F
F03C0F
F03C0F
F03C0F
F03C0F
F03C0F
F03C0F
F03C0F
F03C0F
F03C0F
ENDCHAR
STARTCHAR n
ENCODING 110
SWIDTH 657 0
DWIDTH 18 0
BBX 14 15 2 0
BITMAP
F3E0
F7F8
FFF8
FC7C
F87C
F83C
F03C
F03C
F03C
F03C
F03C
F03C
F03C
F03C
F03C
ENDCHAR
STARTCHAR o
ENCODING 111
SWIDTH 619 0
DWIDTH 17 0
BBX 15 15 1 0
BITMAP
0FC0
1FF0
3FF8
7C7C
783C
F83E
F83E
F83E
F83E
F83E
783C
7C7C
3FF8
1FF0
0FE0
ENDCHAR
STARTCHAR p
ENCODING 112
SWIDTH 632 0
DWIDTH 18 0
BBX 15 22 2 -7
BITMAP
F3E0
F7F8
FFFC
FC7C
F83C
F83E
F03E
F03E
F03E
F83E
F83C
FC7C
FFF8
F7F8
F3E0
F000
F000
F000
F000
F000
F000
F000
ENDCHAR
STARTCHAR q
ENCODING 113
SWIDTH 632 0
DWIDTH 18 0
BBX 15 22 1 -7
BITMAP
0F9E
3FDE
7FFE
7C3E
783E
F81E
F81E
F81E
F81E
F81E
783E
7C3E
7FFE
3FDE
0F9E
001E
001E
001E
001E
001E
001E
001E
ENDCHAR
STARTCHAR r
ENCODING 114
SWIDTH 454 0
DWIDTH 13 0
BBX 10 15 2 0
BITMAP
E1C0
F7C0
FFC0
FFC0
FC00
F800
F800
F000
F000
F000
F000
F000
F000
F000
F000
ENDCHAR
STARTCHAR s
ENCODING 115
SWIDTH 497 0
DWIDTH 14 0
BBX 12 15 1 0
BITMAP
1FC0
7FF0
7FE0
F860
F800
FE00
7F80
3FE0
0FF0
01F0
00F0
C1F0
FFE0
FFE0
7F80
ENDCHAR
STARTCHAR t
ENCODING 116
SWIDTH 434 0
DWIDTH 12 0
BBX 10 18 1 0
BITMAP
1C00
3C00
3C00
7FC0
FFC0
FFC0
3C00
3C00
3C00
3C00
3C00
3C00
3C00
3C00
3C00
3FC0
3FC0
0FC0
ENDCHAR
STARTCHAR u
ENCODING 117
SWIDTH 657 0
DWIDTH 18 0
BBX 14 15 2 0
BITMAP
F03C
F03C
F03C
F03C
F03C
F03C
F03C
F03C
F03C
F07C
F07C
F8FC
7FFC
7FBC
1F3C
ENDCHAR
STARTCHAR v
ENCODING 118
SWIDTH 568 0
DWIDTH 16 0
BBX 16 15 0 0
BITMAP
F81F
781E
781E
7C3E
3C3C
3C3C
1E78
1E78
1E78
0FF0
0FF0
0FF0
07E0
07E0
03C0
ENDCHAR
STARTCHAR w
ENCODING 119
SWIDTH 855 0
DWIDTH 24 0
BBX 24 15 0 0
BITMAP
F83C1F
787E1E
787E1E
787E1E
3C7E3C
3CE73C
3CE73C
3CE73C
1EE778
1FC3F8
1FC3F8
0FC3F0
0FC3F0
0F83F0
0F81E0
ENDCHAR
STARTCHAR x
ENCODING 120
SWIDTH 578 0
DWIDTH 16 0
BBX 16 15 0 0
BITMAP
781E
7C3E
3E7C
1E78
1FF8
0FF0
07E0
07E0
0FF0
0FF0
1FF8
3E7C
3C3C
7C3E
F81F
ENDCHAR
STARTCHAR y
ENCODING 121
SWIDTH 568 0
DWIDTH 16 0
BBX 16 22 0 -7
BITMAP
F81F
781E
781E
7C3E
3C3C
3C3C
1E7C
1E78
1E78
0FF0
0FF0
07F0
07E0
07E0
03E0
03C0
03C0
0780
0F80
7F00
7E00
7C00
ENDCHAR
STARTCHAR z
ENCODING 122
SWIDTH 487 0
DWIDTH 14 0
BBX 12 15 1 0
BITMAP
FFF0
FFF0
FFF0
01E0
03C0
07C0
0F80
0F00
1E00
3E00
7C00
7800
FFF0
FFF0
FFF0
ENDCHAR
STARTCHAR braceleft
ENCODING 123
SWIDTH 394 0
DWIDTH 11 0
BBX 10 24 0 -4
BITMAP
03C0
0FC0
0FC0
0F00
0F00
0F00
0F00
0F00
0F00
1E00
FE00
FC00
FC00
FE00
1E00
0F00
0F00
0F00
0F00
0F00
0F00
0FC0
0FC0
03C0
ENDCHAR
STARTCHAR bar
ENCODING 124
SWIDTH 550 0
DWIDTH 15 0
BBX 3 27 6 -6
BITMAP
E0
E0
E0
E0
E0
E0
E0
E0
E0
E0
E0
E0
E0
E0
E0
E0
E0
E0
E0
E0
E0
E0
E0
E0
E0
E0
E0
ENDCHAR
STARTCHAR braceright
ENCODING 125
SWIDTH 394 0
DWIDTH 11 0
BBX 10 24 1 -4
BITMAP
F000
FC00
FC00
3C00
3C00
3C00
3C00
3C00
3C00
1E00
1FC0
0FC0
0FC0
1FC0
1E00
3C00
3C00
3C00
3C00
3C00
3C00
FC00
FC00
F000
ENDCHAR
STARTCHAR asciitilde
ENCODING 126
SWIDTH 570 0
DWIDTH 16 0
BBX 14 5 1 7
BITMAP
3C04
FF0C
FFFC
C3FC
80F0
ENDCHAR
STARTCHAR nonbreakingspace
ENCODING 160
SWIDTH 259 0
DWIDTH 7 0
BBX 1 1 0 0
BITMAP
00
ENDCHAR
STARTCHAR exclamdown
ENCODING 161
SWIDTH 286 0
DWIDTH 8 0
BBX 4 20 2 -5
BITMAP
F0
F0
F0
F0
F0
00
00
F0
F0
F0
F0
F0
F0
F0
F0
F0
F0
F0
F0
F0
ENDCHAR
STARTCHAR cent
ENCODING 162
SWIDTH 570 0
DWIDTH 16 0
BBX 12 20 2 0
BITMAP
0300
0300
0FE0
3FF0
7FF0
7C20
F800
F000
F000
F000
F000
F000
F800
7C30
7FF0
3FF0
0FE0
0300
0300
0300
ENDCHAR
STARTCHAR sterling
ENCODING 163
SWIDTH 570 0
DWIDTH 16 0
BBX 14 20 1 0
BITMAP
03F0
0FFC
1FF8
1E08
1E00
1E00
1E00
1E00
FFF0
FFF0
FFF0
1E00
1E00
1E00
3E00
3C00
7800
FFFC
FFFC
FFFC
ENDCHAR
STARTCHAR currency
ENCODING 164
SWIDTH 570 0
DWIDTH 16 0
BBX 12 13 2 3
BITMAP
4020
EF70
FFF0
7FE0
70E0
70E0
6060
70E0
70E0
7FE0
FFF0
EF70
4020
ENDCHAR
STARTCHAR yen
ENCODING 165
SWIDTH 570 0
DWIDTH 16 0
BBX 16 20 0 0
BITMAP
F81F
781E
781E
3C3C
3C3C
1E78
1E78
0E70
0FF0
07E0
07E0
1FF8
1FF8
03C0
03C0
1FF8
1FF8
03C0
03C0
03C0
ENDCHAR
STARTCHAR brokenbar
ENCODING 166
SWIDTH 550 0
DWIDTH 15 0
BBX 3 27 6 -6
BITMAP
E0
E0
E0
E0
E0
E0
E0
E0
E0
E0
E0
00
00
00
00
00
E0
E0
E0
E0
E0
E0
E0
E0
E0
E0
E0
ENDCHAR
STARTCHAR section
ENCODING 167
SWIDTH 485 0
DWIDTH 14 0
BBX 12 21 1 0
BITMAP
1FC0
3FE0
7060
7000
7800
7E00
3F80
3FC0
71E0
70E0
70F0
78F0
7CE0
3FE0
0FC0
03E0
00F0
00F0
E0E0
FFC0
7F80
ENDCHAR
STARTCHAR dieresis
ENCODING 168
SWIDTH 606 0
DWIDTH 17 0
BBX 10 4 4 17
BITMAP
6180
F3C0
F3C0
E380
ENDCHAR
STARTCHAR copyright
ENCODING 169
SWIDTH 832 0
DWIDTH 23 0
BBX 21 20 1 0
BITMAP
01FC00
07FF00
0F0780
1C01C0
38FCE0
71FE70
63FC30
638030
C78018
C70018
C70018
C78018
638030
63FC30
71FC70
30FCE0
1C01C0
0F0380
07FF00
01FC00
ENDCHAR
STARTCHAR ordfeminine
ENCODING 170
SWIDTH 382 0
DWIDTH 11 0
BBX 9 10 1 10
BITMAP
3E00
FF00
4780
0380
7F80
F380
E380
E780
FF80
7980
ENDCHAR
STARTCHAR guillemotleft
ENCODING 171
SWIDTH 615 0
DWIDTH 17 0
BBX 15 13 1 1
BITMAP
0C18
0F1E
1E3C
3C78
7CF8
F9F0
F1E0
F9F0
7CF8
3C78
1E3C
0F1E
0C18
ENDCHAR
STARTCHAR logicalnot
ENCODING 172
SWIDTH 570 0
DWIDTH 16 0
BBX 14 8 1 3
BITMAP
FFFC
FFFC
FFFC
001C
001C
001C
001C
001C
ENDCHAR
STARTCHAR uni00AD
ENCODING 173
SWIDTH 321 0
DWIDTH 9 0
BBX 7 3 1 6
BITMAP
FE
FE
FE
ENDCHAR
STARTCHAR registered
ENCODING 174
SWIDTH 832 0
DWIDTH 23 0
BBX 21 20 1 0
BITMAP
01FC00
07FF00
0F0780
1C01C0
3BF8E0
73FC70
639E30
639E30
C39E18
C3FC18
C3F818
C3F818
63BC30
639C30
738E70
338FE0
1C01C0
0F0380
07FF00
01FC00
ENDCHAR
STARTCHAR overscore
ENCODING 175
SWIDTH 500 0
DWIDTH 14 0
BBX 14 3 0 21
BITMAP
FFFC
FFFC
FFFC
ENDCHAR
STARTCHAR degree
ENCODING 176
SWIDTH 428 0
DWIDTH 12 0
BBX 10 9 1 11
BITMAP
1E00
7F80
7F80
E1C0
E1C0
E1C0
7F80
7F80
1E00
ENDCHAR
STARTCHAR plusminus
ENCODING 177
SWIDTH 570 0
DWIDTH 16 0
BBX 14 17 1 0
BITMAP
0700
0700
0700
0700
0700
FFFC
FFFC
FFFC
0700
0700
0700
0700
0700
0000
FFFC
FFFC
FFFC
ENDCHAR
STARTCHAR twosuperior
ENCODING 178
SWIDTH 378 0
DWIDTH 11 0
BBX 9 12 1 8
BITMAP
3E00
FF00
FF80
4780
0700
0F00
1E00
3C00
7800
FF80
FF80
FF80
ENDCHAR
STARTCHAR threesuperior
ENCODING 179
SWIDTH 378 0
DWIDTH 11 0
BBX 9 12 1 8
BITMAP
3E00
FF00
6700
0700
0700
3E00
3E00
0780
0380
E780
FF00
7E00
ENDCHAR
STARTCHAR acute
ENCODING 180
SWIDTH 606 0
DWIDTH 17 0
BBX 7 4 5 17
BITMAP
3E
3C
78
E0
ENDCHAR
STARTCHAR mu
ENCODING 181
SWIDTH 660 0
DWIDTH 18 0
BBX 14 22 2 -7
BITMAP
F03C
F03C
F03C
F03C
F03C
F03C
F03C
F03C
F03C
F07C
F87C
F8FC
FFFC
FFFC
F79C
F000
F000
F000
F000
F000
F000
F000
ENDCHAR
STARTCHAR paragraph
ENCODING 182
SWIDTH 654 0
DWIDTH 18 0
BBX 14 25 2 -4
BITMAP
1FFC
7FFC
FFFC
FFDC
FFDC
FFDC
FFDC
FFDC
FFDC
FFDC
FFDC
FFDC
7FDC
1FDC
01DC
01DC
01DC
01DC
01DC
01DC
01DC
01DC
01DC
01DC
01DC
ENDCHAR
STARTCHAR periodcentered
ENCODING 183
SWIDTH 285 0
DWIDTH 8 0
BBX 4 5 2 7
BITMAP
F0
F0
F0
F0
F0
ENDCHAR
STARTCHAR cedilla
ENCODING 184
SWIDTH 205 0
DWIDTH 6 0
BBX 6 7 0 -7
BITMAP
70
78
7C
3C
3C
F8
F0
ENDCHAR
STARTCHAR onesuperior
ENCODING 185
SWIDTH 378 0
DWIDTH 11 0
BBX 6 12 2 8
BITMAP
1C
3C
FC
FC
5C
1C
1C
1C
1C
1C
1C
1C
ENDCHAR
STARTCHAR ordmasculine
ENCODING 186
SWIDTH 388 0
DWIDTH 11 0
BBX 9 10 1 10
BITMAP
3E00
7F00
E780
E380
E380
E380
E380
E780
7F00
3E00
ENDCHAR
STARTCHAR guillemotright
ENCODING 187
SWIDTH 615 0
DWIDTH 17 0
BBX 15 13 1 1
BITMAP
3060
F1E0
78F0
3C78
3E7C
1F3E
0F1E
1F3E
3E7C
3C78
78F0
F1E0
3060
ENDCHAR
STARTCHAR onequarter
ENCODING 188
SWIDTH 880 0
DWIDTH 25 0
BBX 22 20 1 0
BITMAP
1E0380
3E0380
7E0700
FE0700
5E0E00
1E1E00
1E1C00
1E3C00
1E3878
1E70F8
1E70F8
1EE1F8
00E3F8
01C378
03C678
038E78
078FFC
070FFC
0E0078
0E0078
ENDCHAR
STARTCHAR onehalf
ENCODING 189
SWIDTH 880 0
DWIDTH 25 0
BBX 23 20 1 0
BITMAP
1E0380
3E0380
7E0700
FE0700
5E0E00
1E1E00
1E1C00
1E3C00
1E38F8
1E73FC
1E73FC
1EE11C
00E01C
01C03C
03C078
0380F0
0781E0
0703FE
0E03FE
0E03FE
ENDCHAR
STARTCHAR threequarters
ENCODING 190
SWIDTH 880 0
DWIDTH 25 0
BBX 23 20 1 0
BITMAP
3E01C0
FF01C0
778380
038780
078700
3E0F00
3F0E00
039E00
039C78
E7B878
FFB8F8
7E71F8
00F1B8
00E3B8
01E738
01C638
03CFFE
038FFE
070038
070038
ENDCHAR
STARTCHAR questiondown
ENCODING 191
SWIDTH 477 0
DWIDTH 13 0
BBX 12 20 1 -5
BITMAP
0700
0F80
0F80
0F80
0700
0000
0000
0780
0780
0F00
1F00
3E00
7C00
F000
F000
F000
F060
FFF0
7FF0
1F80
ENDCHAR
STARTCHAR Agrave
ENCODING 192
SWIDTH 689 0
DWIDTH 19 0
BBX 19 26 0 0
BITMAP
07C000
03E000
00E000
007000
000000
000000
01F000
03F800
03F800
03B800
07BC00
07BC00
07BC00
0F1E00
0F1E00
0F1E00
1E0F00
1E0F00
1FFF00
3FFF80
3FFF80
3C0780
7C07C0
7803C0
7803C0
F803E0
ENDCHAR
STARTCHAR Aacute
ENCODING 193
SWIDTH 689 0
DWIDTH 19 0
BBX 19 26 0 0
BITMAP
003E00
007C00
00F000
00E000
000000
000000
01F000
03F800
03F800
03B800
07BC00
07BC00
07BC00
0F1E00
0F1E00
0F1E00
1E0F00
1E0F00
1FFF00
3FFF80
3FFF80
3C0780
7C07C0
7803C0
7803C0
F803E0
ENDCHAR
STARTCHAR Acircumflex
ENCODING 194
SWIDTH 689 0
DWIDTH 19 0
BBX 19 26 0 0
BITMAP
01F000
03F800
07BC00
0E0E00
000000
000000
01F000
03F800
03F800
03B800
07BC00
07BC00
07BC00
0F1E00
0F1E00
0F1E00
1E0F00
1E0F00
1FFF00
3FFF80
3FFF80
3C0780
7C07C0
7803C0
7803C0
F803E0
ENDCHAR
STARTCHAR Atilde
ENCODING 195
SWIDTH 689 0
DWIDTH 19 0
BBX 19 26 0 0
BITMAP
03C600
07FE00
0FFE00
0C3800
000000
000000
01F000
03F800
03F800
03B800
07BC00
07BC00
07BC00
0F1E00
0F1E00
0F1E00
1E0F00
1E0F00
1FFF00
3FFF80
3FFF80
3C0780
7C07C0
7803C0
7803C0
F803E0
ENDCHAR
STARTCHAR Adieresis
ENCODING 196
SWIDTH 689 0
DWIDTH 19 0
BBX 19 26 0 0
BITMAP
030C00
079E00
079E00
071C00
000000
000000
01F000
03F800
03F800
03B800
07BC00
07BC00
07BC00
0F1E00
0F1E00
0F1E00
1E0F00
1E0F00
1FFF00
3FFF80
3FFF80
3C0780
7C07C0
7803C0
7803C0
F803E0
ENDCHAR
STARTCHAR Aring
ENCODING 197
SWIDTH 689 0
DWIDTH 19 0
BBX 19 25 0 0
BITMAP
00F000
01F800
039800
031800
039800
01F000
03F800
03F800
03B800
07BC00
07BC00
07BC00
0F1E00
0F1E00
0F1E00
1E0F00
1E0F00
1FFF00
3FFF80
3FFF80
3C0780
7C07C0
7803C0
7803C0
F803E0
ENDCHAR
STARTCHAR AE
ENCODING 198
SWIDTH 952 0
DWIDTH 27 0
BBX 25 20 0 0
BITMAP
007FFF80
00FFFF80
00FFFF80
00E78000
01E78000
01E78000
03C78000
03C78000
0787FF80
0787FF80
0F87FF80
0F078000
1FFF8000
1FFF8000
3FFF8000
3C078000
3C078000
7807FF80
7807FF80
F807FF80
ENDCHAR
STARTCHAR Ccedilla
ENCODING 199
SWIDTH 637 0
DWIDTH 18 0
BBX 15 27 2 -7
BITMAP
03F8
0FFE
3FFC
7E0C
7C00
F800
F000
F000
F000
F000
F000
F000
F000
F000
F800
7800
7E0C
3FFC
1FFC
07F8
0380
03C0
01E0
00E0
00E0
07E0
07C0
ENDCHAR
STARTCHAR Egrave
ENCODING 200
SWIDTH 560 0
DWIDTH 16 0
BBX 11 26 3 0
BITMAP
7C00
3C00
1E00
0700
0000
0000
FFE0
FFE0
FFE0
F000
F000
F000
F000
F000
FFE0
FFE0
FFE0
F000
F000
F000
F000
F000
F000
FFE0
FFE0
FFE0
ENDCHAR
STARTCHAR Eacute
ENCODING 201
SWIDTH 560 0
DWIDTH 16 0
BBX 11 26 3 0
BITMAP
03C0
0780
0F00
1C00
0000
0000
FFE0
FFE0
FFE0
F000
F000
F000
F000
F000
FFE0
FFE0
FFE0
F000
F000
F000
F000
F000
F000
FFE0
FFE0
FFE0
ENDCHAR
STARTCHAR Ecircumflex
ENCODING 202
SWIDTH 560 0
DWIDTH 16 0
BBX 11 26 3 0
BITMAP
3F00
3F80
7BC0
E1E0
0000
0000
FFE0
FFE0
FFE0
F000
F000
F000
F000
F000
FFE0
FFE0
FFE0
F000
F000
F000
F000
F000
F000
FFE0
FFE0
FFE0
ENDCHAR
STARTCHAR Edieresis
ENCODING 203
SWIDTH 560 0
DWIDTH 16 0
BBX 11 26 3 0
BITMAP
30C0
71C0
79E0
71C0
0000
0000
FFE0
FFE0
FFE0
F000
F000
F000
F000
F000
FFE0
FFE0
FFE0
F000
F000
F000
F000
F000
F000
FFE0
FFE0
FFE0
ENDCHAR
STARTCHAR Igrave
ENCODING 204
SWIDTH 331 0
DWIDTH 9 0
BBX 8 26 -1 0
BITMAP
F8
3C
1E
07
00
00
1F
1F
1F
1F
1F
1F
1F
1F
1F
1F
1F
1F
1F
1F
1F
1F
1F
1F
1F
1F
ENDCHAR
STARTCHAR Iacute
ENCODING 205
SWIDTH 331 0
DWIDTH 9 0
BBX 8 26 2 0
BITMAP
1F
3E
78
F0
00
00
F8
F8
F8
F8
F8
F8
F8
F8
F8
F8
F8
F8
F8
F8
F8
F8
F8
F8
F8
F8
ENDCHAR
STARTCHAR Icircumflex
ENCODING 206
SWIDTH 331 0
DWIDTH 9 0
BBX 11 26 -1 0
BITMAP
1F00
3F80
7BC0
E0E0
0000
0000
1F00
1F00
1F00
1F00
1F00
1F00
1F00
1F00
1F00
1F00
1F00
1F00
1F00
1F00
1F00
1F00
1F00
1F00
1F00
1F00
ENDCHAR
STARTCHAR Idieresis
ENCODING 207
SWIDTH 331 0
DWIDTH 9 0
BBX 10 26 0 0
BITMAP
6180
F3C0
F3C0
E380
0000
0000
3E00
3E00
3E00
3E00
3E00
3E00
3E00
3E00
3E00
3E00
3E00
3E00
3E00
3E00
3E00
3E00
3E00
3E00
3E00
3E00
ENDCHAR
STARTCHAR Eth
ENCODING 208
SWIDTH 740 0
DWIDTH 21 0
BBX 18 20 1 0
BITMAP
3FF000
3FFC00
3FFF00
3C1F00
3C0F80
3C07C0
3C07C0
3C03C0
FF83C0
FF83C0
FF83C0
3C03C0
3C03C0
3C07C0
3C07C0
3C0F80
3C1F00
3FFE00
3FFC00
3FE000
ENDCHAR
STARTCHAR Ntilde
ENCODING 209
SWIDTH 812 0
DWIDTH 23 0
BBX 17 26 3 0
BITMAP
070C00
1FFC00
1FF800
18F000
000000
000000
F80380
FC0380
FC0380
FE0380
FF0380
EF0380
EF8380
E78380
E7C380
E3E380
E3E380
E1F380
E0F380
E0FB80
E07F80
E07F80
E03F80
E01F80
E01F80
E00F80
ENDCHAR
STARTCHAR Ograve
ENCODING 210
SWIDTH 795 0
DWIDTH 22 0
BBX 18 26 2 0
BITMAP
0F8000
03C000
01E000
00F000
000000
000000
03F000
1FFE00
3FFF00
7E1F80
7C0780
F807C0
F807C0
F003C0
F003C0
F003C0
F003C0
F003C0
F003C0
F007C0
F807C0
7C0F80
7E1F80
3FFF00
1FFE00
03F000
ENDCHAR
STARTCHAR Oacute
ENCODING 211
SWIDTH 795 0
DWIDTH 22 0
BBX 18 26 2 0
BITMAP
003E00
007800
00F000
01E000
000000
000000
03F000
1FFE00
3FFF00
7E1F80
7C0780
F807C0
F807C0
F003C0
F003C0
F003C0
F003C0
F003C0
F003C0
F007C0
F807C0
7C0F80
7E1F80
3FFF00
1FFE00
03F000
ENDCHAR
STARTCHAR Ocircumflex
ENCODING 212
SWIDTH 795 0
DWIDTH 22 0
BBX 18 26 2 0
BITMAP
03F000
07F800
0FBC00
1E1E00
000000
000000
03F000
1FFE00
3FFF00
7E1F80
7C0780
F807C0
F807C0
F003C0
F003C0
F003C0
F003C0
F003C0
F003C0
F007C0
F807C0
7C0F80
7E1F80
3FFF00
1FFE00
03F000
ENDCHAR
STARTCHAR Otilde
ENCODING 213
SWIDTH 795 0
DWIDTH 22 0
BBX 18 26 2 0
BITMAP
078600
0FFE00
0FFC00
0C7800
000000
000000
03F000
1FFE00
3FFF00
7E1F80
7C0780
F807C0
F807C0
F003C0
F003C0
F003C0
F003C0
F003C0
F003C0
F007C0
F807C0
7C0F80
7E1F80
3FFF00
1FFE00
03F000
ENDCHAR
STARTCHAR Odieresis
ENCODING 214
SWIDTH 795 0
DWIDTH 22 0
BBX 18 26 2 0
BITMAP
060800
071C00
071C00
071C00
000000
000000
03F000
1FFE00
3FFF00
7E1F80
7C0780
F807C0
F807C0
F003C0
F003C0
F003C0
F003C0
F003C0
F003C0
F007C0
F807C0
7C0F80
7E1F80
3FFF00
1FFE00
03F000
ENDCHAR
STARTCHAR multiply
ENCODING 215
SWIDTH 570 0
DWIDTH 16 0
BBX 12 11 2 4
BITMAP
6060
F0F0
79E0
3FC0
1F80
0F00
1F80
3FC0
79E0
F0F0
6060
ENDCHAR
STARTCHAR Oslash
ENCODING 216
SWIDTH 795 0
DWIDTH 22 0
BBX 18 21 2 -1
BITMAP
03FB80
1FFF00
3FFF00
7E1F80
7C1F80
F83FC0
F83BC0
F073C0
F0F3C0
F0E3C0
F1C3C0
F1C3C0
F383C0
F703C0
FF07C0
7E0780
7E1F80
3FFF00
3FFE00
77F000
100000
ENDCHAR
STARTCHAR Ugrave
ENCODING 217
SWIDTH 755 0
DWIDTH 21 0
BBX 17 26 2 0
BITMAP
1F0000
078000
03C000
01E000
000000
000000
F80F80
F80F80
F80F80
F80F80
F80F80
F80F80
F80F80
F80F80
F80F80
F80F80
F80F80
F80F80
F80F80
F80F80
780F00
780F00
7C1F00
3FFE00
1FFC00
07F000
ENDCHAR
STARTCHAR Uacute
ENCODING 218
SWIDTH 755 0
DWIDTH 21 0
BBX 17 26 2 0
BITMAP
007C00
00F800
01E000
03C000
000000
000000
F80F80
F80F80
F80F80
F80F80
F80F80
F80F80
F80F80
F80F80
F80F80
F80F80
F80F80
F80F80
F80F80
F80F80
780F00
780F00
7C1F00
3FFE00
1FFC00
07F000
ENDCHAR
STARTCHAR Ucircumflex
ENCODING 219
SWIDTH 755 0
DWIDTH 21 0
BBX 17 26 2 0
BITMAP
03E000
07F000
0F7800
1C1C00
000000
000000
F80F80
F80F80
F80F80
F80F80
F80F80
F80F80
F80F80
F80F80
F80F80
F80F80
F80F80
F80F80
F80F80
F80F80
780F00
780F00
7C1F00
3FFE00
1FFC00
07F000
ENDCHAR
STARTCHAR Udieresis
ENCODING 220
SWIDTH 755 0
DWIDTH 21 0
BBX 17 26 2 0
BITMAP
061800
0F3C00
0F3C00
0E3800
000000
000000
F80F80
F80F80
F80F80
F80F80
F80F80
F80F80
F80F80
F80F80
F80F80
F80F80
F80F80
F80F80
F80F80
F80F80
780F00
780F00
7C1F00
3FFE00
1FFC00
07F000
ENDCHAR
STARTCHAR Yacute
ENCODING 221
SWIDTH 624 0
DWIDTH 17 0
BBX 17 26 0 0
BITMAP
007C00
00F800
01E000
03C000
000000
000000
F80F80
780F80
7C1F00
3C1E00
3E3E00
1E3C00
1F7C00
0F7800
0FF800
07F000
07F000
03E000
03E000
03E000
03E000
03E000
03E000
03E000
03E000
03E000
ENDCHAR
STARTCHAR Thorn
ENCODING 222
SWIDTH 627 0
DWIDTH 18 0
BBX 14 20 3 0
BITMAP
F000
F000
F000
FFC0
FFF0
FFF8
F0F8
F07C
F07C
F07C
F07C
F078
F0F8
FFF0
FFE0
FFC0
F000
F000
F000
F000
ENDCHAR
STARTCHAR germandbls
ENCODING 223
SWIDTH 710 0
DWIDTH 20 0
BBX 17 21 2 0
BITMAP
0FF000
3FFC00
7FFE00
7C3E00
F81E00
F01E00
F03C00
F07800
F0F000
F1E000
F1F000
F1F800
F0FE00
F03F00
F01F80
F00780
F00780
F10F80
F1FF80
F1FF00
F1FC00
ENDCHAR
STARTCHAR agrave
ENCODING 224
SWIDTH 604 0
DWIDTH 17 0
BBX 14 21 1 0
BITMAP
1E00
0F00
0780
01C0
0000
0000
0FE0
3FF0
3FF8
187C
003C
003C
0FFC
3FFC
7C3C
F83C
F07C
F8FC
7FFC
7FBC
3F1C
ENDCHAR
STARTCHAR aacute
ENCODING 225
SWIDTH 604 0
DWIDTH 17 0
BBX 14 21 1 0
BITMAP
00F8
01E0
03C0
0780
0000
0000
0FE0
3FF0
3FF8
187C
003C
003C
0FFC
3FFC
7C3C
F83C
F07C
F8FC
7FFC
7FBC
3F1C
ENDCHAR
STARTCHAR acircumflex
ENCODING 226
SWIDTH 604 0
DWIDTH 17 0
BBX 14 21 1 0
BITMAP
07C0
0FE0
1EF0
3878
0000
0000
0FE0
3FF0
3FF8
187C
003C
003C
0FFC
3FFC
7C3C
F83C
F07C
F8FC
7FFC
7FBC
3F1C
ENDCHAR
STARTCHAR atilde
ENCODING 227
SWIDTH 604 0
DWIDTH 17 0
BBX 14 21 1 0
BITMAP
0F18
1FF8
3FF8
30F0
0000
0000
0FE0
3FF0
3FF8
187C
003C
003C
0FFC
3FFC
7C3C
F83C
F07C
F8FC
7FFC
7FBC
3F1C
ENDCHAR
STARTCHAR adieresis
ENCODING 228
SWIDTH 604 0
DWIDTH 17 0
BBX 14 21 1 0
BITMAP
0C30
1E78
1E78
1C70
0000
0000
0FE0
3FF0
3FF8
187C
003C
003C
0FFC
3FFC
7C3C
F83C
F07C
F8FC
7FFC
7FBC
3F1C
ENDCHAR
STARTCHAR aring
ENCODING 229
SWIDTH 604 0
DWIDTH 17 0
BBX 14 24 1 0
BITMAP
0380
07C0
0E60
0C60
0C60
07C0
0380
0000
0000
0FE0
3FF0
3FF8
187C
003C
003C
0FFC
3FFC
7C3C
F83C
F07C
F8FC
7FFC
7FBC
3F1C
ENDCHAR
STARTCHAR ae
ENCODING 230
SWIDTH 916 0
DWIDTH 26 0
BBX 24 15 1 0
BITMAP
0FC3F0
3FFFFC
3FFFFE
107E1E
003C0E
003C0F
0FFFFF
7FFFFF
7C3FFF
F83C00
F07C00
F8FE06
7FEFFE
7FCFFE
1F03FC
ENDCHAR
STARTCHAR ccedilla
ENCODING 231
SWIDTH 514 0
DWIDTH 14 0
BBX 12 22 1 -7
BITMAP
0FE0
1FF0
3FF0
7C20
7800
F800
F800
F800
F800
F800
7800
7C30
7FF0
3FF0
0FE0
0700
0780
03C0
01C0
01C0
0FC0
0F80
ENDCHAR
STARTCHAR egrave
ENCODING 232
SWIDTH 590 0
DWIDTH 17 0
BBX 15 21 1 0
BITMAP
1E00
0F00
0780
01C0
0000
0000
07E0
1FF8
3FF8
7C3C
781C
F81E
FFFE
FFFE
FFFE
F800
7800
7C0C
3FFC
1FFC
07F8
ENDCHAR
STARTCHAR eacute
ENCODING 233
SWIDTH 590 0
DWIDTH 17 0
BBX 15 21 1 0
BITMAP
00F8
01E0
03C0
0780
0000
0000
07E0
1FF8
3FF8
7C3C
781C
F81E
FFFE
FFFE
FFFE
F800
7800
7C0C
3FFC
1FFC
07F8
ENDCHAR
STARTCHAR ecircumflex
ENCODING 234
SWIDTH 590 0
DWIDTH 17 0
BBX 15 21 1 0
BITMAP
07C0
0FE0
1EF0
3838
0000
0000
07E0
1FF8
3FF8
7C3C
781C
F81E
FFFE
FFFE
FFFE
F800
7800
7C0C
3FFC
1FFC
07F8
ENDCHAR
STARTCHAR edieresis
ENCODING 235
SWIDTH 590 0
DWIDTH 17 0
BBX 15 21 1 0
BITMAP
0C30
1E78
1E78
0C30
0000
0000
07E0
1FF8
3FF8
7C3C
781C
F81E
FFFE
FFFE
FFFE
F800
7800
7C0C
3FFC
1FFC
07F8
ENDCHAR
STARTCHAR igrave
ENCODING 236
SWIDTH 305 0
DWIDTH 9 0
BBX 7 21 -1 0
BITMAP
F8
7C
1C
0E
00
00
1E
1E
1E
1E
1E
1E
1E
1E
1E
1E
1E
1E
1E
1E
1E
ENDCHAR
STARTCHAR iacute
ENCODING 237
SWIDTH 305 0
DWIDTH 9 0
BBX 8 21 2 0
BITMAP
1F
3C
78
F0
00
00
F0
F0
F0
F0
F0
F0
F0
F0
F0
F0
F0
F0
F0
F0
F0
ENDCHAR
STARTCHAR icircumflex
ENCODING 238
SWIDTH 305 0
DWIDTH 9 0
BBX 12 21 -2 0
BITMAP
1F80
1FC0
3DE0
F0F0
0000
0000
0F00
0F00
0F00
0F00
0F00
0F00
0F00
0F00
0F00
0F00
0F00
0F00
0F00
0F00
0F00
ENDCHAR
STARTCHAR idieresis
ENCODING 239
SWIDTH 305 0
DWIDTH 9 0
BBX 9 21 0 0
BITMAP
4100
E380
E380
E380
0000
0000
3C00
3C00
3C00
3C00
3C00
3C00
3C00
3C00
3C00
3C00
3C00
3C00
3C00
3C00
3C00
ENDCHAR
STARTCHAR eth
ENCODING 240
SWIDTH 619 0
DWIDTH 17 0
BBX 15 21 1 0
BITMAP
0430
0F78
07F0
07E0
1FF0
0E78
0078
0FBC
3FFC
7FFC
7C7E
783E
F83E
F83E
F83E
F83C
783C
7C7C
3FF8
1FF0
0FC0
ENDCHAR
STARTCHAR ntilde
ENCODING 241
SWIDTH 657 0
DWIDTH 18 0
BBX 14 21 2 0
BITMAP
1E18
3FF8
3FF0
31E0
0000
0000
F3E0
F7F8
FFF8
FC7C
F87C
F83C
F03C
F03C
F03C
F03C
F03C
F03C
F03C
F03C
F03C
ENDCHAR
STARTCHAR ograve
ENCODING 242
SWIDTH 619 0
DWIDTH 17 0
BBX 15 21 1 0
BITMAP
1E00
0F00
0780
01C0
0000
0000
0FC0
1FF0
3FF8
7C7C
783C
F83E
F83E
F83E
F83E
F83E
783C
7C7C
3FF8
1FF0
0FE0
ENDCHAR
STARTCHAR oacute
ENCODING 243
SWIDTH 619 0
DWIDTH 17 0
BBX 15 21 1 0
BITMAP
00F8
01F0
03C0
0380
0000
0000
0FC0
1FF0
3FF8
7C7C
783C
F83E
F83E
F83E
F83E
F83E
783C
7C7C
3FF8
1FF0
0FE0
ENDCHAR
STARTCHAR ocircumflex
ENCODING 244
SWIDTH 619 0
DWIDTH 17 0
BBX 15 21 1 0
BITMAP
07C0
0FE0
1EF0
3838
0000
0000
0FC0
1FF0
3FF8
7C7C
783C
F83E
F83E
F83E
F83E
F83E
783C
7C7C
3FF8
1FF0
0FE0
ENDCHAR
STARTCHAR otilde
ENCODING 245
SWIDTH 619 0
DWIDTH 17 0
BBX 15 21 1 0
BITMAP
0F18
1FF8
3FF8
30E0
0000
0000
0FC0
1FF0
3FF8
7C7C
783C
F83E
F83E
F83E
F83E
F83E
783C
7C7C
3FF8
1FF0
0FE0
ENDCHAR
STARTCHAR odieresis
ENCODING 246
SWIDTH 619 0
DWIDTH 17 0
BBX 15 21 1 0
BITMAP
0C30
1E78
1E78
1C70
0000
0000
0FC0
1FF0
3FF8
7C7C
783C
F83E
F83E
F83E
F83E
F83E
783C
7C7C
3FF8
1FF0
0FE0
ENDCHAR
STARTCHAR divide
ENCODING 247
SWIDTH 570 0
DWIDTH 16 0
BBX 14 13 1 3
BITMAP
0300
0780
0780
0300
0000
FFFC
FFFC
FFFC
0000
0300
0780
0780
0700
ENDCHAR
STARTCHAR oslash
ENCODING 248
SWIDTH 619 0
DWIDTH 17 0
BBX 15 16 1 -1
BITMAP
0FD8
1FF8
3FF8
7C7C
78FC
F9FE
F9FE
F3BE
FF3E
FF3E
7E3C
7E7C
3FF8
3FF0
3FE0
1000
ENDCHAR
STARTCHAR ugrave
ENCODING 249
SWIDTH 657 0
DWIDTH 18 0
BBX 14 21 2 0
BITMAP
3C00
1E00
0F00
0380
0000
0000
F03C
F03C
F03C
F03C
F03C
F03C
F03C
F03C
F03C
F07C
F07C
F8FC
7FFC
7FBC
1F3C
ENDCHAR
STARTCHAR uacute
ENCODING 250
SWIDTH 657 0
DWIDTH 18 0
BBX 14 21 2 0
BITMAP
00F0
01E0
03C0
0700
0000
0000
F03C
F03C
F03C
F03C
F03C
F03C
F03C
F03C
F03C
F07C
F07C
F8FC
7FFC
7FBC
1F3C
ENDCHAR
STARTCHAR ucircumflex
ENCODING 251
SWIDTH 657 0
DWIDTH 18 0
BBX 14 21 2 0
BITMAP
0FC0
1FE0
3EF0
7878
0000
0000
F03C
F03C
F03C
F03C
F03C
F03C
F03C
F03C
F03C
F07C
F07C
F8FC
7FFC
7FBC
1F3C
ENDCHAR
STARTCHAR udieresis
ENCODING 252
SWIDTH 657 0
DWIDTH 18 0
BBX 14 21 2 0
BITMAP
0820
1C70
3CF0
1C70
0000
0000
F03C
F03C
F03C
F03C
F03C
F03C
F03C
F03C
F03C
F07C
F07C
F8FC
7FFC
7FBC
1F3C
ENDCHAR
STARTCHAR yacute
ENCODING 253
SWIDTH 568 0
DWIDTH 16 0
BBX 16 28 0 -7
BITMAP
00F8
01F0
03C0
0380
0000
0000
F81F
781E
781E
7C3E
3C3C
3C3C
1E7C
1E78
1E78
0FF0
0FF0
07F0
07E0
07E0
03E0
03C0
03C0
0780
0F80
7F00
7E00
7C00
ENDCHAR
STARTCHAR thorn
ENCODING 254
SWIDTH 632 0
DWIDTH 18 0
BBX 15 28 2 -7
BITMAP
F000
F000
F000
F000
F000
F000
F3E0
F7F8
FFFC
FC7C
F83C
F83E
F03E
F03E
F03E
F83E
F83C
FC7C
FFFC
F7F8
F3E0
F000
F000
F000
F000
F000
F000
F000
ENDCHAR
STARTCHAR ydieresis
ENCODING 255
SWIDTH 568 0
DWIDTH 16 0
BBX 16 28 0 -7
BITMAP
0410
1E78
1E78
0E38
0000
0000
F81F
781E
781E
7C3E
3C3C
3C3C
1E7C
1E78
1E78
0FF0
0FF0
07F0
07E0
07E0
03E0
03C0
03C0
0780
0F80
7F00
7E00
7C00
ENDCHAR
STARTCHAR Amacron
ENCODING 256
SWIDTH 689 0
DWIDTH 19 0
BBX 19 25 0 0
BITMAP
07FC00
07FC00
07FC00
000000
000000
01F000
03F800
03F800
03B800
07BC00
07BC00
07BC00
0F1E00
0F1E00
0F1E00
1E0F00
1E0F00
1FFF00
3FFF80
3FFF80
3C0780
7C07C0
7803C0
7803C0
F803E0
ENDCHAR
STARTCHAR amacron
ENCODING 257
SWIDTH 604 0
DWIDTH 17 0
BBX 14 20 1 0
BITMAP
1FF0
1FF0
1FF0
0000
0000
0FE0
3FF0
3FF8
187C
003C
003C
0FFC
3FFC
7C3C
F83C
F07C
F8FC
7FFC
7FBC
3F1C
ENDCHAR
STARTCHAR Abreve
ENCODING 258
SWIDTH 689 0
DWIDTH 19 0
BBX 19 27 0 0
BITMAP
0E0600
0E0E00
07FC00
03FC00
01F000
000000
000000
01F000
03F800
03F800
03B800
07BC00
07BC00
07BC00
0F1E00
0F1E00
0F1E00
1E0F00
1E0F00
1FFF00
3FFF80
3FFF80
3C0780
7C07C0
7803C0
7803C0
F803E0
ENDCHAR
STARTCHAR abreve
ENCODING 259
SWIDTH 604 0
DWIDTH 17 0
BBX 14 22 1 0
BITMAP
3818
3838
1FF0
0FF0
07C0
0000
0000
0FE0
3FF0
3FF8
187C
003C
003C
0FFC
3FFC
7C3C
F83C
F07C
F8FC
7FFC
7FBC
3F1C
ENDCHAR
STARTCHAR Aogonek
ENCODING 260
SWIDTH 689 0
DWIDTH 19 0
BBX 19 27 0 -7
BITMAP
01F000
03F800
03F800
03B800
07BC00
07BC00
07BC00
0F1E00
0F1E00
0F1E00
1E0F00
1E0F00
1FFF00
3FFF80
3FFF80
3C0780
7C07C0
7803C0
7803C0
F803E0
000380
000700
000600
000E00
000FC0
0007C0
0003C0
ENDCHAR
STARTCHAR aogonek
ENCODING 261
SWIDTH 604 0
DWIDTH 17 0
BBX 14 22 1 -7
BITMAP
0FE0
3FF0
3FF8
187C
003C
003C
0FFC
3FFC
7C3C
F83C
F07C
F8FC
7FFC
7FBC
3F1C
0038
0070
0070
0070
007C
007C
003C
ENDCHAR
STARTCHAR Cacute
ENCODING 262
SWIDTH 637 0
DWIDTH 18 0
BBX 15 26 2 0
BITMAP
007C
00F8
01E0
03C0
0000
0000
03F8
0FFE
3FFC
7E0C
7C00
F800
F000
F000
F000
F000
F000
F000
F000
F000
F800
7800
7E0C
3FFC
1FFC
07F8
ENDCHAR
STARTCHAR cacute
ENCODING 263
SWIDTH 514 0
DWIDTH 14 0
BBX 13 21 1 0
BITMAP
00F8
01E0
03C0
0780
0000
0000
0FE0
1FF0
3FF0
7C20
7800
F800
F800
F800
F800
F800
7800
7C30
7FF0
3FF0
0FE0
ENDCHAR
STARTCHAR Ccircumflex
ENCODING 264
SWIDTH 637 0
DWIDTH 18 0
BBX 15 26 2 0
BITMAP
03F0
07F0
0F78
1E1E
0000
0000
03F8
0FFE
3FFC
7E0C
7C00
F800
F000
F000
F000
F000
F000
F000
F000
F000
F800
7800
7E0C
3FFC
1FFC
07F8
ENDCHAR
STARTCHAR ccircumflex
ENCODING 265
SWIDTH 514 0
DWIDTH 14 0
BBX 13 21 1 0
BITMAP
0FC0
0FE0
1EF0
7878
0000
0000
0FE0
1FF0
3FF0
7C20
7800
F800
F800
F800
F800
F800
7800
7C30
7FF0
3FF0
0FE0
ENDCHAR
STARTCHAR Cdot
ENCODING 266
SWIDTH 637 0
DWIDTH 18 0
BBX 15 26 2 0
BITMAP
01E0
01E0
01E0
01E0
0000
0000
03F8
0FFE
3FFC
7E0C
7C00
F800
F000
F000
F000
F000
F000
F000
F000
F000
F800
7800
7E0C
3FFC
1FFC
07F8
ENDCHAR
STARTCHAR cdot
ENCODING 267
SWIDTH 514 0
DWIDTH 14 0
BBX 12 21 1 0
BITMAP
0380
07C0
07C0
0380
0000
0000
0FE0
1FF0
3FF0
7C20
7800
F800
F800
F800
F800
F800
7800
7C30
7FF0
3FF0
0FE0
ENDCHAR
STARTCHAR Ccaron
ENCODING 268
SWIDTH 637 0
DWIDTH 18 0
BBX 15 26 2 0
BITMAP
1E1E
0F7C
07F8
03F0
0000
0000
03F8
0FFE
3FFC
7E0C
7C00
F800
F000
F000
F000
F000
F000
F000
F000
F000
F800
7800
7E0C
3FFC
1FFC
07F8
ENDCHAR
STARTCHAR ccaron
ENCODING 269
SWIDTH 514 0
DWIDTH 14 0
BBX 13 21 1 0
BITMAP
3838
1EF0
0FE0
07C0
0000
0000
0FE0
1FF0
3FF0
7C20
7800
F800
F800
F800
F800
F800
7800
7C30
7FF0
3FF0
0FE0
ENDCHAR
STARTCHAR Dcaron
ENCODING 270
SWIDTH 740 0
DWIDTH 21 0
BBX 16 26 3 0
BITMAP
7878
3DF0
1FE0
0FC0
0000
0000
FFC0
FFF0
FFFC
F07C
F03E
F01F
F01F
F00F
F00F
F00F
F00F
F00F
F00F
F01F
F01F
F03E
F07C
FFF8
FFF0
FF80
ENDCHAR
STARTCHAR dcaron
ENCODING 271
SWIDTH 632 0
DWIDTH 18 0
BBX 20 21 1 0
BITMAP
001E70
001EF0
001EE0
001EE0
001E00
001E00
0F9E00
3FDE00
7FFE00
7C7E00
783E00
F81E00
F81E00
F01E00
F81E00
F81E00
783E00
7C3E00
7FFE00
3FDE00
0F9E00
ENDCHAR
STARTCHAR Dcroat
ENCODING 272
SWIDTH 740 0
DWIDTH 21 0
BBX 18 20 1 0
BITMAP
3FF000
3FFC00
3FFF00
3C1F00
3C0F80
3C07C0
3C07C0
3C03C0
FF83C0
FF83C0
FF83C0
3C03C0
3C03C0
3C07C0
3C07C0
3C0F80
3C1F00
3FFE00
3FFC00
3FE000
ENDCHAR
STARTCHAR dcroat
ENCODING 273
SWIDTH 648 0
DWIDTH 18 0
BBX 17 21 1 0
BITMAP
003C00
003C00
03FF80
03FF80
03FF80
003C00
1F3C00
3FFC00
7FFC00
7C7C00
783C00
F83C00
F83C00
F83C00
F83C00
F83C00
783C00
7C7C00
7FFC00
3FBC00
1F1C00
ENDCHAR
STARTCHAR Emacron
ENCODING 274
SWIDTH 560 0
DWIDTH 16 0
BBX 11 25 3 0
BITMAP
7FC0
7FC0
7FC0
0000
0000
FFE0
FFE0
FFE0
F000
F000
F000
F000
F000
FFE0
FFE0
FFE0
F000
F000
F000
F000
F000
F000
FFE0
FFE0
FFE0
ENDCHAR
STARTCHAR emacron
ENCODING 275
SWIDTH 590 0
DWIDTH 17 0
BBX 15 20 1 0
BITMAP
1FF0
1FF0
1FF0
0000
0000
07E0
1FF8
3FF8
7C3C
781C
F81E
FFFE
FFFE
FFFE
F800
7800
7C0C
3FFC
1FFC
07F8
ENDCHAR
STARTCHAR Ebreve
ENCODING 276
SWIDTH 560 0
DWIDTH 16 0
BBX 11 27 3 0
BITMAP
C0E0
E1C0
FFC0
7F80
1F00
0000
0000
FFE0
FFE0
FFE0
F000
F000
F000
F000
F000
FFE0
FFE0
FFE0
F000
F000
F000
F000
F000
F000
FFE0
FFE0
FFE0
ENDCHAR
STARTCHAR ebreve
ENCODING 277
SWIDTH 590 0
DWIDTH 17 0
BBX 15 22 1 0
BITMAP
3838
3838
1FF0
1FE0
07C0
0000
0000
07E0
1FF8
3FF8
7C3C
781C
F81E
FFFE
FFFE
FFFE
F800
7800
7C0C
3FFC
1FFC
07F8
ENDCHAR
STARTCHAR Edotaccent
ENCODING 278
SWIDTH 560 0
DWIDTH 16 0
BBX 11 26 3 0
BITMAP
0E00
1F00
1F00
0E00
0000
0000
FFE0
FFE0
FFE0
F000
F000
F000
F000
F000
FFE0
FFE0
FFE0
F000
F000
F000
F000
F000
F000
FFE0
FFE0
FFE0
ENDCHAR
STARTCHAR edotaccent
ENCODING 279
SWIDTH 590 0
DWIDTH 17 0
BBX 15 21 1 0
BITMAP
03C0
07C0
03C0
0380
0000
0000
07E0
1FF8
3FF8
7C3C
781C
F81E
FFFE
FFFE
FFFE
F800
7800
7C0C
3FFC
1FFC
07F8
ENDCHAR
STARTCHAR Eogonek
ENCODING 280
SWIDTH 560 0
DWIDTH 16 0
BBX 11 27 3 -7
BITMAP
FFE0
FFE0
FFE0
F000
F000
F000
F000
F000
FFE0
FFE0
FFE0
F000
F000
F000
F000
F000
F000
FFE0
FFE0
FFE0
0180
0380
0700
0700
07E0
07E0
03E0
ENDCHAR
STARTCHAR eogonek
ENCODING 281
SWIDTH 590 0
DWIDTH 17 0
BBX 15 22 1 -7
BITMAP
07E0
1FF8
3FF8
7C3C
781C
F81E
FFFE
FFFE
FFFE
F800
7800
7C0C
3FFC
1FFC
07F8
0070
00E0
01C0
01C0
01F8
01F8
00F8
ENDCHAR
STARTCHAR Ecaron
ENCODING 282
SWIDTH 560 0
DWIDTH 16 0
BBX 11 26 3 0
BITMAP
E1E0
7BC0
3F80
1F00
0000
0000
FFE0
FFE0
FFE0
F000
F000
F000
F000
F000
FFE0
FFE0
FFE0
F000
F000
F000
F000
F000
F000
FFE0
FFE0
FFE0
ENDCHAR
STARTCHAR ecaron
ENCODING 283
SWIDTH 590 0
DWIDTH 17 0
BBX 15 21 1 0
BITMAP
3838
1EF0
0FE0
07C0
0000
0000
07E0
1FF8
3FF8
7C3C
781C
F81E
FFFE
FFFE
FFFE
F800
7800
7C0C
3FFC
1FFC
07F8
ENDCHAR
STARTCHAR Gcircumflex
ENCODING 284
SWIDTH 724 0
DWIDTH 20 0
BBX 16 26 2 0
BITMAP
03F0
07F8
0F7C
1E1E
0000
0000
03FC
0FFF
3FFE
3E06
7C00
F800
F800
F000
F000
F0FF
F0FF
F0FF
F00F
F00F
F80F
7C0F
7E0F
3FFF
1FFF
07FC
ENDCHAR
STARTCHAR gcircumflex
ENCODING 285
SWIDTH 564 0
DWIDTH 16 0
BBX 16 28 0 -7
BITMAP
07E0
0FF0
1EF8
3C3C
0000
0000
0FFF
1FFF
3C7E
783C
783C
783C
783C
3C78
1FF0
1FE0
3800
3C00
3FFC
1FFE
3FFE
781E
F00E
F00E
F83E
7FFC
7FF8
1FE0
ENDCHAR
STARTCHAR Gbreve
ENCODING 286
SWIDTH 724 0
DWIDTH 20 0
BBX 16 27 2 0
BITMAP
0C0C
0E1C
0FFC
07F8
01F0
0000
0000
03FC
0FFF
3FFE
3E06
7C00
F800
F800
F000
F000
F0FF
F0FF
F0FF
F00F
F00F
F80F
7C0F
7E0F
3FFF
1FFF
07FC
ENDCHAR
STARTCHAR gbreve
ENCODING 287
SWIDTH 564 0
DWIDTH 16 0
BBX 16 29 0 -7
BITMAP
1818
1C38
1FF8
0FF0
03E0
0000
0000
0FFF
1FFF
3C7E
783C
783C
783C
783C
3C78
1FF0
1FE0
3800
3C00
3FFC
1FFE
3FFE
781E
F00E
F00E
F83E
7FFC
7FF8
1FE0
ENDCHAR
STARTCHAR Gdot
ENCODING 288
SWIDTH 724 0
DWIDTH 20 0
BBX 16 26 2 0
BITMAP
00E0
01F0
01F0
00E0
0000
0000
03FC
0FFF
3FFE
3E06
7C00
F800
F800
F000
F000
F0FF
F0FF
F0FF
F00F
F00F
F80F
7C0F
7E0F
3FFF
1FFF
07FC
ENDCHAR
STARTCHAR gdot
ENCODING 289
SWIDTH 564 0
DWIDTH 16 0
BBX 16 28 0 -7
BITMAP
03C0
03C0
03C0
03C0
0000
0000
0FFF
1FFF
3C7E
783C
783C
783C
783C
3C78
1FF0
1FE0
3800
3C00
3FFC
1FFE
3FFE
781E
F00E
F00E
F83E
7FFC
7FF8
1FE0
ENDCHAR
STARTCHAR Gcommaaccent
ENCODING 290
SWIDTH 724 0
DWIDTH 20 0
BBX 16 26 2 -6
BITMAP
03FC
0FFF
3FFE
3E06
7C00
F800
F800
F000
F000
F0FF
F0FF
F0FF
F00F
F00F
F80F
7C0F
7E0F
3FFF
1FFF
07F8
0000
0000
01E0
01E0
01C0
0180
ENDCHAR
STARTCHAR gcommaaccent
ENCODING 291
SWIDTH 564 0
DWIDTH 16 0
BBX 16 28 0 -7
BITMAP
00C0
01C0
03C0
03C0
0000
0000
0FFF
1FFF
3C7E
783C
783C
783C
783C
3C78
1FF0
1FE0
3800
3C00
3FFC
1FFE
3FFE
781E
F00E
F00E
F83E
7FFC
7FF8
1FE0
ENDCHAR
STARTCHAR Hcircumflex
ENCODING 292
SWIDTH 765 0
DWIDTH 21 0
BBX 15 26 3 0
BITMAP
07C0
0FE0
1EF0
3838
0000
0000
F01E
F01E
F01E
F01E
F01E
F01E
F01E
F01E
FFFE
FFFE
FFFE
F01E
F01E
F01E
F01E
F01E
F01E
F01E
F01E
F01E
ENDCHAR
STARTCHAR hcircumflex
ENCODING 293
SWIDTH 657 0
DWIDTH 18 0
BBX 14 26 2 0
BITMAP
0FC0
0FE0
1EF0
7878
0000
F000
F000
F000
F000
F000
F000
F3E0
F7F8
FFF8
FC7C
F87C
F83C
F03C
F03C
F03C
F03C
F03C
F03C
F03C
F03C
F03C
ENDCHAR
STARTCHAR Hbar
ENCODING 294
SWIDTH 765 0
DWIDTH 21 0
BBX 21 20 0 0
BITMAP
1E03C0
1E03C0
1E03C0
FFFFF8
FFFFF8
FFFFF8
1E03C0
1E03C0
1FFFC0
1FFFC0
1FFFC0
1E03C0
1E03C0
1E03C0
1E03C0
1E03C0
1E03C0
1E03C0
1E03C0
1E03C0
ENDCHAR
STARTCHAR hbar
ENCODING 295
SWIDTH 657 0
DWIDTH 18 0
BBX 16 21 0 0
BITMAP
3C00
3C00
FFC0
FFC0
FFC0
3C00
3CF8
3DFE
3FFE
3F1F
3E1F
3E0F
3E0F
3C0F
3C0F
3C0F
3C0F
3C0F
3C0F
3C0F
3C0F
ENDCHAR
STARTCHAR Itilde
ENCODING 296
SWIDTH 331 0
DWIDTH 9 0
BBX 11 26 -1 0
BITMAP
3C60
7FE0
FFE0
C3C0
0000
0000
1F00
1F00
1F00
1F00
1F00
1F00
1F00
1F00
1F00
1F00
1F00
1F00
1F00
1F00
1F00
1F00
1F00
1F00
1F00
1F00
ENDCHAR
STARTCHAR itilde
ENCODING 297
SWIDTH 305 0
DWIDTH 9 0
BBX 11 21 -1 0
BITMAP
7860
FFE0
FFC0
C780
0000
0000
1E00
1E00
1E00
1E00
1E00
1E00
1E00
1E00
1E00
1E00
1E00
1E00
1E00
1E00
1E00
ENDCHAR
STARTCHAR Imacron
ENCODING 298
SWIDTH 331 0
DWIDTH 9 0
BBX 9 25 0 0
BITMAP
FF80
FF80
FF80
0000
0000
3E00
3E00
3E00
3E00
3E00
3E00
3E00
3E00
3E00
3E00
3E00
3E00
3E00
3E00
3E00
3E00
3E00
3E00
3E00
3E00
ENDCHAR
STARTCHAR imacron
ENCODING 299
SWIDTH 305 0
DWIDTH 9 0
BBX 9 20 0 0
BITMAP
FF80
FF80
FF80
0000
0000
3C00
3C00
3C00
3C00
3C00
3C00
3C00
3C00
3C00
3C00
3C00
3C00
3C00
3C00
3C00
ENDCHAR
STARTCHAR Ibreve
ENCODING 300
SWIDTH 331 0
DWIDTH 9 0
BBX 11 27 -1 0
BITMAP
E060
E0E0
7FC0
3FC0
1F00
0000
0000
1F00
1F00
1F00
1F00
1F00
1F00
1F00
1F00
1F00
1F00
1F00
1F00
1F00
1F00
1F00
1F00
1F00
1F00
1F00
1F00
ENDCHAR
STARTCHAR ibreve
ENCODING 301
SWIDTH 305 0
DWIDTH 9 0
BBX 11 22 -1 0
BITMAP
C0E0
E1C0
7FC0
7F80
1F00
0000
0000
1E00
1E00
1E00
1E00
1E00
1E00
1E00
1E00
1E00
1E00
1E00
1E00
1E00
1E00
1E00
ENDCHAR
STARTCHAR Iogonek
ENCODING 302
SWIDTH 331 0
DWIDTH 9 0
BBX 5 27 2 -7
BITMAP
F8
F8
F8
F8
F8
F8
F8
F8
F8
F8
F8
F8
F8
F8
F8
F8
F8
F8
F8
F8
70
E0
E0
E0
F8
F8
78
ENDCHAR
STARTCHAR iogonek
ENCODING 303
SWIDTH 305 0
DWIDTH 9 0
BBX 5 28 1 -7
BITMAP
38
78
78
38
00
00
78
78
78
78
78
78
78
78
78
78
78
78
78
78
78
70
E0
E0
E0
F8
F8
78
ENDCHAR
STARTCHAR Idotaccent
ENCODING 304
SWIDTH 331 0
DWIDTH 9 0
BBX 5 26 2 0
BITMAP
78
F8
78
70
00
00
F8
F8
F8
F8
F8
F8
F8
F8
F8
F8
F8
F8
F8
F8
F8
F8
F8
F8
F8
F8
ENDCHAR
STARTCHAR dotlessi
ENCODING 305
SWIDTH 305 0
DWIDTH 9 0
BBX 4 15 2 0
BITMAP
F0
F0
F0
F0
F0
F0
F0
F0
F0
F0
F0
F0
F0
F0
F0
ENDCHAR
STARTCHAR IJ
ENCODING 306
SWIDTH 720 0
DWIDTH 20 0
BBX 16 26 2 -6
BITMAP
F81F
F81F
F81F
F81F
F81F
F81F
F81F
F81F
F81F
F81F
F81F
F81F
F81F
F81F
F81F
F81F
F81F
F81F
F81F
F81F
001F
001E
003E
01FC
01FC
01F0
ENDCHAR
STARTCHAR ij
ENCODING 307
SWIDTH 590 0
DWIDTH 17 0
BBX 13 28 2 -7
BITMAP
7070
F0F8
F0F8
7070
0000
0000
F0F0
F0F0
F0F0
F0F0
F0F0
F0F0
F0F0
F0F0
F0F0
F0F0
F0F0
F0F0
F0F0
F0F0
F0F0
00F0
00F0
00F0
00F0
0FF0
0FE0
0FC0
ENDCHAR
STARTCHAR Jcircumflex
ENCODING 308
SWIDTH 331 0
DWIDTH 9 0
BBX 12 32 -2 -6
BITMAP
0F80
1FC0
3DE0
7870
0000
0000
0780
0780
0780
0780
0780
0780
0780
0780
0780
0780
0780
0780
0780
0780
0780
0780
0780
0780
0780
0F80
0F80
0F00
0F00
FF00
FE00
F800
ENDCHAR
STARTCHAR jcircumflex
ENCODING 309
SWIDTH 305 0
DWIDTH 9 0
BBX 12 28 -2 -7
BITMAP
1F80
1FC0
3DE0
F0F0
0000
0000
0F00
0F00
0F00
0F00
0F00
0F00
0F00
0F00
0F00
0F00
0F00
0F00
0F00
0F00
0F00
0F00
0F00
0F00
0F00
FF00
FE00
FC00
ENDCHAR
STARTCHAR Kcommaaccent
ENCODING 310
SWIDTH 664 0
DWIDTH 19 0
BBX 16 26 3 -6
BITMAP
F01F
F03E
F07C
F0F8
F1F0
F1E0
F3E0
F7C0
FF80
FF80
FFC0
FFC0
F3E0
F1F0
F0F0
F0F8
F07C
F03C
F03E
F01F
0000
0000
0780
0F00
0E00
0E00
ENDCHAR
STARTCHAR kcommaaccent
ENCODING 311
SWIDTH 620 0
DWIDTH 17 0
BBX 15 27 2 -6
BITMAP
F000
F000
F000
F000
F000
F000
F07C
F078
F0F0
F1F0
F3E0
F7C0
FF80
FFC0
FFC0
FBE0
F1F0
F0F0
F0F8
F07C
F03E
0000
0000
0780
0700
0700
0E00
ENDCHAR
STARTCHAR kgreenlandic
ENCODING 312
SWIDTH 620 0
DWIDTH 17 0
BBX 15 15 2 0
BITMAP
F03C
F078
F0F8
F1F0
F3E0
F3C0
F780
FF80
FFC0
FFE0
F1F0
F0F0
F0F8
F07C
F03E
ENDCHAR
STARTCHAR Lacute
ENCODING 313
SWIDTH 564 0
DWIDTH 16 0
BBX 12 26 3 0
BITMAP
1F00
1E00
3C00
7000
0000
0000
F000
F000
F000
F000
F000
F000
F000
F000
F000
F000
F000
F000
F000
F000
F000
F000
F000
FFF0
FFF0
FFF0
ENDCHAR
STARTCHAR lacute
ENCODING 314
SWIDTH 305 0
DWIDTH 9 0
BBX 8 26 2 0
BITMAP
1F
3E
38
70
00
F0
F0
F0
F0
F0
F0
F0
F0
F0
F0
F0
F0
F0
F0
F0
F0
F0
F0
F0
F0
F0
ENDCHAR
STARTCHAR Lcommaaccent
ENCODING 315
SWIDTH 564 0
DWIDTH 16 0
BBX 12 26 3 -6
BITMAP
F000
F000
F000
F000
F000
F000
F000
F000
F000
F000
F000
F000
F000
F000
F000
F000
F000
FFF0
FFF0
FFF0
0000
0000
0E00
1E00
1C00
1C00
ENDCHAR
STARTCHAR lcommaaccent
ENCODING 316
SWIDTH 305 0
DWIDTH 9 0
BBX 5 27 1 -6
BITMAP
78
78
78
78
78
78
78
78
78
78
78
78
78
78
78
78
78
78
78
78
78
00
00
78
70
70
E0
ENDCHAR
STARTCHAR Lcaron
ENCODING 317
SWIDTH 564 0
DWIDTH 16 0
BBX 12 20 3 0
BITMAP
F0E0
F1E0
F1C0
F1C0
F000
F000
F000
F000
F000
F000
F000
F000
F000
F000
F000
F000
F000
FFF0
FFF0
FFF0
ENDCHAR
STARTCHAR lcaron
ENCODING 318
SWIDTH 305 0
DWIDTH 9 0
BBX 10 21 2 0
BITMAP
F3C0
F3C0
F380
F380
F000
F000
F000
F000
F000
F000
F000
F000
F000
F000
F000
F000
F000
F000
F000
F000
F000
ENDCHAR
STARTCHAR Ldot
ENCODING 319
SWIDTH 564 0
DWIDTH 16 0
BBX 12 20 3 0
BITMAP
F000
F000
F000
F000
F000
F000
F000
F000
F1E0
F1E0
F1E0
F1E0
F000
F000
F000
F000
F000
FFF0
FFF0
FFF0
ENDCHAR
STARTCHAR ldot
ENCODING 320
SWIDTH 428 0
DWIDTH 12 0
BBX 11 21 2 0
BITMAP
F000
F000
F000
F000
F000
F000
F000
F000
F000
F000
F1C0
F3E0
F3E0
F1C0
F000
F000
F000
F000
F000
F000
F000
ENDCHAR
STARTCHAR Lslash
ENCODING 321
SWIDTH 564 0
DWIDTH 16 0
BBX 15 20 0 0
BITMAP
1E00
1E00
1E00
1E00
1E00
1E00
1E80
1FC0
1FC0
1F80
7E00
FE00
7E00
5E00
1E00
1E00
1E00
1FFE
1FFE
1FFE
ENDCHAR
STARTCHAR lslash
ENCODING 322
SWIDTH 330 0
DWIDTH 9 0
BBX 9 21 0 0
BITMAP
3E00
3E00
3E00
3E00
3E00
3E00
3E00
3E00
3F00
3F00
3F80
7F00
FE00
7E00
7E00
3E00
3E00
3E00
3E00
3E00
3E00
ENDCHAR
STARTCHAR Nacute
ENCODING 323
SWIDTH 812 0
DWIDTH 23 0
BBX 17 26 3 0
BITMAP
007C00
00F000
01E000
03C000
000000
000000
F80380
FC0380
FC0380
FE0380
FF0380
EF0380
EF8380
E78380
E7C380
E3E380
E3E380
E1F380
E0F380
E0FB80
E07F80
E07F80
E03F80
E01F80
E01F80
E00F80
ENDCHAR
STARTCHAR nacute
ENCODING 324
SWIDTH 657 0
DWIDTH 18 0
BBX 14 21 2 0
BITMAP
00F0
01E0
03C0
0700
0000
0000
F3E0
F7F8
FFF8
FC7C
F87C
F83C
F03C
F03C
F03C
F03C
F03C
F03C
F03C
F03C
F03C
ENDCHAR
STARTCHAR Ncommaaccent
ENCODING 325
SWIDTH 812 0
DWIDTH 23 0
BBX 17 26 3 -6
BITMAP
F80380
FC0380
FC0380
FE0380
FF0380
EF0380
EF8380
E78380
E7C380
E3E380
E3E380
E1F380
E0F380
E0FB80
E07F80
E07F80
E03F80
E01F80
E01F80
E00F80
000000
000000
03C000
038000
078000
070000
ENDCHAR
STARTCHAR ncommaaccent
ENCODING 326
SWIDTH 657 0
DWIDTH 18 0
BBX 14 21 2 -6
BITMAP
F3E0
F7F8
FFF8
FC7C
F87C
F83C
F03C
F03C
F03C
F03C
F03C
F03C
F03C
F03C
F03C
0000
0000
0780
0700
0700
0E00
ENDCHAR
STARTCHAR Ncaron
ENCODING 327
SWIDTH 812 0
DWIDTH 23 0
BBX 17 26 3 0
BITMAP
1E1E00
0F7800
07F000
03F000
000000
000000
F80380
FC0380
FC0380
FE0380
FF0380
EF0380
EF8380
E78380
E7C380
E3E380
E3E380
E1F380
E0F380
E0FB80
E07F80
E07F80
E03F80
E01F80
E01F80
E00F80
ENDCHAR
STARTCHAR ncaron
ENCODING 328
SWIDTH 657 0
DWIDTH 18 0
BBX 14 21 2 0
BITMAP
3838
1EF0
0FE0
07C0
0000
0000
F3E0
F7F8
FFF8
FC7C
F87C
F83C
F03C
F03C
F03C
F03C
F03C
F03C
F03C
F03C
F03C
ENDCHAR
STARTCHAR napostrophe
ENCODING 329
SWIDTH 778 0
DWIDTH 22 0
BBX 19 20 0 0
BITMAP
780000
780000
780000
700000
700000
F39F80
E3BFC0
03FFE0
03E3E0
03C1E0
03C1E0
03C1E0
03C1E0
03C1E0
03C1E0
03C1E0
03C1E0
03C1E0
03C1E0
03C1E0
ENDCHAR
STARTCHAR Eng
ENCODING 330
SWIDTH 812 0
DWIDTH 23 0
BBX 17 26 3 -6
BITMAP
F80380
FC0380
FE0380
FE0380
FF0380
EF8380
EFC380
E7C380
E3E380
E3F380
E1FB80
E0FB80
E07F80
E07F80
E03F80
E01F80
E01F80
E00F80
E00780
E00380
000380
000780
000780
00FF80
00FF00
00FC00
ENDCHAR
STARTCHAR eng
ENCODING 331
SWIDTH 657 0
DWIDTH 18 0
BBX 14 22 2 -7
BITMAP
F3E0
F7F8
FFF8
FC7C
F87C
F83C
F03C
F03C
F03C
F03C
F03C
F03C
F03C
F03C
F03C
003C
003C
003C
007C
01F8
01F8
01E0
ENDCHAR
STARTCHAR Omacron
ENCODING 332
SWIDTH 795 0
DWIDTH 22 0
BBX 18 25 2 0
BITMAP
07FC00
07FC00
07FC00
000000
000000
03F000
1FFE00
3FFF00
7E1F80
7C0780
F807C0
F807C0
F003C0
F003C0
F003C0
F003C0
F003C0
F003C0
F007C0
F807C0
7C0F80
7E1F80
3FFF00
1FFE00
03F000
ENDCHAR
STARTCHAR omacron
ENCODING 333
SWIDTH 619 0
DWIDTH 17 0
BBX 15 20 1 0
BITMAP
1FF0
1FF0
1FF0
0000
0000
0FC0
1FF0
3FF8
7C7C
783C
F83E
F83E
F83E
F83E
F83E
783C
7C7C
3FF8
1FF0
0FE0
ENDCHAR
STARTCHAR Obreve
ENCODING 334
SWIDTH 795 0
DWIDTH 22 0
BBX 18 27 2 0
BITMAP
0C0C00
0E1C00
0FFC00
07F800
01F000
000000
000000
03F000
1FFE00
3FFF00
7E1F80
7C0780
F807C0
F807C0
F003C0
F003C0
F003C0
F003C0
F003C0
F003C0
F007C0
F807C0
7C0F80
7E1F80
3FFF00
1FFE00
03F000
ENDCHAR
STARTCHAR obreve
ENCODING 335
SWIDTH 619 0
DWIDTH 17 0
BBX 15 22 1 0
BITMAP
3818
3838
1FF0
0FF0
07C0
0000
0000
0FC0
1FF0
3FF8
7C7C
783C
F83E
F83E
F83E
F83E
F83E
783C
7C7C
3FF8
1FF0
0FE0
ENDCHAR
STARTCHAR Ohungarumlaut
ENCODING 336
SWIDTH 795 0
DWIDTH 22 0
BBX 18 26 2 0
BITMAP
01EF00
03DE00
07BC00
063000
000000
000000
03F000
1FFE00
3FFF00
7E1F80
7C0780
F807C0
F807C0
F003C0
F003C0
F003C0
F003C0
F003C0
F003C0
F007C0
F807C0
7C0F80
7E1F80
3FFF00
1FFE00
03F000
ENDCHAR
STARTCHAR ohungarumlaut
ENCODING 337
SWIDTH 619 0
DWIDTH 17 0
BBX 15 21 1 0
BITMAP
07BC
0F78
0E70
1CE0
0000
0000
0FC0
1FF0
3FF8
7C7C
783C
F83E
F83E
F83E
F83E
F83E
783C
7C7C
3FF8
1FF0
0FE0
ENDCHAR
STARTCHAR OE
ENCODING 338
SWIDTH 973 0
DWIDTH 27 0
BBX 23 20 2 0
BITMAP
07FFFE
1FFFFE
3FFFFE
7E1F00
780F00
F80F00
F00F00
F00F00
F00FFE
F00FFE
F00FFE
F00F00
F00F00
F00F00
F80F00
780F00
7C1F00
3FFFFE
1FFFFE
07FFFE
ENDCHAR
STARTCHAR oe
ENCODING 339
SWIDTH 978 0
DWIDTH 27 0
BBX 25 15 1 0
BITMAP
0FC1F800
1FF7FE00
3FFFFF00
7C7F0F00
783E0700
F83E0780
F81FFF80
F81FFF80
F81FFF80
F83E0000
783E0000
7C7F0100
3FFFFF00
1FF7FF00
07E1FE00
ENDCHAR
STARTCHAR Racute
ENCODING 340
SWIDTH 660 0
DWIDTH 18 0
BBX 15 26 3 0
BITMAP
03E0
03C0
0780
0E00
0000
0000
FF80
FFE0
FFF0
F1F8
F0F8
F078
F078
F0F8
F1F0
FFF0
FFC0
FFC0
F3C0
F1E0
F1F0
F0F0
F0F8
F078
F07C
F03E
ENDCHAR
STARTCHAR racute
ENCODING 341
SWIDTH 454 0
DWIDTH 13 0
BBX 10 21 2 0
BITMAP
07C0
0780
0F00
1C00
0000
0000
E1C0
F7C0
FFC0
FFC0
FC00
F800
F800
F000
F000
F000
F000
F000
F000
F000
F000
ENDCHAR
STARTCHAR Rcommaaccent
ENCODING 342
SWIDTH 660 0
DWIDTH 18 0
BBX 15 26 3 -6
BITMAP
FF80
FFE0
FFF0
F1F8
F0F8
F078
F078
F0F8
F1F0
FFF0
FFC0
FFC0
F3C0
F1E0
F1F0
F0F0
F0F8
F078
F07C
F03E
0000
0000
0780
0700
0700
0E00
ENDCHAR
STARTCHAR rcommaaccent
ENCODING 343
SWIDTH 454 0
DWIDTH 13 0
BBX 11 21 1 -6
BITMAP
70E0
7BE0
7FE0
7FE0
7E00
7C00
7C00
7800
7800
7800
7800
7800
7800
7800
7800
0000
0000
7800
7000
7000
E000
ENDCHAR
STARTCHAR Rcaron
ENCODING 344
SWIDTH 660 0
DWIDTH 18 0
BBX 15 26 3 0
BITMAP
F0F0
7DE0
3FC0
1F80
0000
0000
FF80
FFE0
FFF0
F1F8
F0F8
F078
F078
F0F8
F1F0
FFF0
FFC0
FFC0
F3C0
F1E0
F1F0
F0F0
F0F8
F078
F07C
F03E
ENDCHAR
STARTCHAR rcaron
ENCODING 345
SWIDTH 454 0
DWIDTH 13 0
BBX 12 21 1 0
BITMAP
F0F0
79E0
3FC0
1F80
0000
0000
70E0
7BE0
7FE0
7FE0
7E00
7C00
7C00
7800
7800
7800
7800
7800
7800
7800
7800
ENDCHAR
STARTCHAR Sacute
ENCODING 346
SWIDTH 550 0
DWIDTH 15 0
BBX 13 26 1 0
BITMAP
01F0
01E0
03C0
0700
0000
0000
0FE0
3FF8
7FF0
7830
F800
F800
7800
7E00
7F00
3FC0
1FE0
07F0
01F8
00F8
0078
8078
E0F8
FFF0
FFE0
3F80
ENDCHAR
STARTCHAR sacute
ENCODING 347
SWIDTH 497 0
DWIDTH 14 0
BBX 12 21 1 0
BITMAP
01E0
03C0
0780
0E00
0000
0000
1FC0
7FF0
7FE0
F860
F800
FE00
7F80
3FE0
0FF0
01F0
00F0
C1F0
FFE0
FFE0
7F80
ENDCHAR
STARTCHAR Scircumflex
ENCODING 348
SWIDTH 550 0
DWIDTH 15 0
BBX 13 26 1 0
BITMAP
0FC0
1FE0
3EF0
7878
0000
0000
0FE0
3FF8
7FF0
7830
F800
F800
7800
7E00
7F00
3FC0
1FE0
07F0
01F8
00F8
0078
8078
E0F8
FFF0
FFE0
3F80
ENDCHAR
STARTCHAR scircumflex
ENCODING 349
SWIDTH 497 0
DWIDTH 14 0
BBX 12 21 1 0
BITMAP
1F80
1FC0
3DE0
F0F0
0000
0000
1FC0
7FF0
7FE0
F860
F800
FE00
7F80
3FE0
0FF0
01F0
00F0
C1F0
FFE0
FFE0
7F80
ENDCHAR
STARTCHAR Scedilla
ENCODING 350
SWIDTH 550 0
DWIDTH 15 0
BBX 13 27 1 -7
BITMAP
0FE0
3FF8
7FF0
7830
F800
F800
7800
7E00
7F00
3FC0
1FE0
07F0
01F8
00F8
0078
8078
E0F8
FFF0
FFE0
3F80
0700
0F00
0780
03C0
13C0
1F80
1F00
ENDCHAR
STARTCHAR scedilla
ENCODING 351
SWIDTH 497 0
DWIDTH 14 0
BBX 12 22 1 -7
BITMAP
1FC0
7FF0
7FE0
F860
F800
FE00
7F80
3FE0
0FF0
01F0
00F0
C1F0
FFE0
FFE0
7F80
0E00
0F00
0F80
0380
0780
1F80
1E00
ENDCHAR
STARTCHAR Scaron
ENCODING 352
SWIDTH 550 0
DWIDTH 15 0
BBX 13 26 1 0
BITMAP
7878
3EF0
1FE0
0FC0
0000
0000
0FE0
3FF8
7FF0
7830
F800
F800
7800
7E00
7F00
3FC0
1FE0
07F0
01F8
00F8
0078
8078
E0F8
FFF0
FFE0
3F80
ENDCHAR
STARTCHAR scaron
ENCODING 353
SWIDTH 497 0
DWIDTH 14 0
BBX 12 21 1 0
BITMAP
70F0
3DE0
1FC0
0F80
0000
0000
1FC0
7FF0
7FE0
F860
F800
FE00
7F80
3FE0
0FF0
01F0
00F0
C1F0
FFE0
FFE0
7F80
ENDCHAR
STARTCHAR Tcedilla
ENCODING 354
SWIDTH 579 0
DWIDTH 16 0
BBX 16 27 0 -7
BITMAP
FFFF
FFFF
FFFF
03C0
03C0
03C0
03C0
03C0
03C0
03C0
03C0
03C0
03C0
03C0
03C0
03C0
03C0
03C0
03C0
03C0
0180
03C0
01E0
00E0
04E0
07E0
07C0
ENDCHAR
STARTCHAR tcedilla
ENCODING 355
SWIDTH 434 0
DWIDTH 12 0
BBX 10 25 1 -7
BITMAP
1C00
3C00
3C00
7FC0
FFC0
FFC0
3C00
3C00
3C00
3C00
3C00
3C00
3C00
3C00
3C00
3FC0
3FC0
0FC0
0E00
0F00
0780
0380
0380
1F80
1F00
ENDCHAR
STARTCHAR Tcaron
ENCODING 356
SWIDTH 579 0
DWIDTH 16 0
BBX 16 26 0 0
BITMAP
3C3C
1F78
0FF0
07E0
0000
0000
FFFF
FFFF
FFFF
03C0
03C0
03C0
03C0
03C0
03C0
03C0
03C0
03C0
03C0
03C0
03C0
03C0
03C0
03C0
03C0
03C0
ENDCHAR
STARTCHAR tcaron
ENCODING 357
SWIDTH 434 0
DWIDTH 12 0
BBX 12 21 1 0
BITMAP
00F0
00F0
00E0
1CC0
3C00
3C00
7FC0
FFC0
FFC0
3C00
3C00
3C00
3C00
3C00
3C00
3C00
3C00
3C00
3FC0
3FC0
0FC0
ENDCHAR
STARTCHAR Tbar
ENCODING 358
SWIDTH 579 0
DWIDTH 16 0
BBX 16 20 0 0
BITMAP
FFFF
FFFF
FFFF
03C0
03C0
03C0
03C0
03C0
1FFC
1FFC
1FFC
03C0
03C0
03C0
03C0
03C0
03C0
03C0
03C0
03C0
ENDCHAR
STARTCHAR tbar
ENCODING 359
SWIDTH 434 0
DWIDTH 12 0
BBX 10 18 1 0
BITMAP
1C00
3C00
3C00
7FC0
FFC0
FFC0
3C00
3C00
3C00
FF80
FF80
FF80
3C00
3C00
3C00
3FC0
3FC0
0FC0
ENDCHAR
STARTCHAR Utilde
ENCODING 360
SWIDTH 755 0
DWIDTH 21 0
BBX 17 26 2 0
BITMAP
078C00
0FFC00
1FFC00
187800
000000
000000
F80F80
F80F80
F80F80
F80F80
F80F80
F80F80
F80F80
F80F80
F80F80
F80F80
F80F80
F80F80
F80F80
F80F80
780F00
780F00
7C1F00
3FFE00
1FFC00
07F000
ENDCHAR
STARTCHAR utilde
ENCODING 361
SWIDTH 657 0
DWIDTH 18 0
BBX 14 21 2 0
BITMAP
1E18
3FF8
3FF0
31E0
0000
0000
F03C
F03C
F03C
F03C
F03C
F03C
F03C
F03C
F03C
F07C
F07C
F8FC
7FFC
7FBC
1F3C
ENDCHAR
STARTCHAR Umacron
ENCODING 362
SWIDTH 755 0
DWIDTH 21 0
BBX 17 25 2 0
BITMAP
0FF800
0FF800
0FF800
000000
000000
F80F80
F80F80
F80F80
F80F80
F80F80
F80F80
F80F80
F80F80
F80F80
F80F80
F80F80
F80F80
F80F80
F80F80
780F00
780F00
7C1F00
3FFE00
1FFC00
07F000
ENDCHAR
STARTCHAR umacron
ENCODING 363
SWIDTH 657 0
DWIDTH 18 0
BBX 14 20 2 0
BITMAP
1FF0
1FF0
1FF0
0000
0000
F03C
F03C
F03C
F03C
F03C
F03C
F03C
F03C
F03C
F07C
F07C
F8FC
7FFC
7FBC
1F3C
ENDCHAR
STARTCHAR Ubreve
ENCODING 364
SWIDTH 755 0
DWIDTH 21 0
BBX 17 27 2 0
BITMAP
1C1C00
1C1C00
0FF800
07F000
03E000
000000
000000
F80F80
F80F80
F80F80
F80F80
F80F80
F80F80
F80F80
F80F80
F80F80
F80F80
F80F80
F80F80
F80F80
F80F80
780F00
780F00
7C1F00
3FFE00
1FFC00
07F000
ENDCHAR
STARTCHAR ubreve
ENCODING 365
SWIDTH 657 0
DWIDTH 18 0
BBX 14 22 2 0
BITMAP
3030
3870
3FF0
1FE0
0780
0000
0000
F03C
F03C
F03C
F03C
F03C
F03C
F03C
F03C
F03C
F07C
F07C
F8FC
7FFC
7FBC
1F3C
ENDCHAR
STARTCHAR Uring
ENCODING 366
SWIDTH 755 0
DWIDTH 21 0
BBX 17 29 2 0
BITMAP
01C000
03E000
063000
063000
063000
03E000
01C000
000000
000000
F80F80
F80F80
F80F80
F80F80
F80F80
F80F80
F80F80
F80F80
F80F80
F80F80
F80F80
F80F80
F80F80
F80F80
780F00
780F00
7C1F00
3FFE00
1FFC00
07F000
ENDCHAR
STARTCHAR uring
ENCODING 367
SWIDTH 657 0
DWIDTH 18 0
BBX 14 24 2 0
BITMAP
0780
0FC0
0CC0
0CE0
0CC0
0FC0
0780
0000
0000
F03C
F03C
F03C
F03C
F03C
F03C
F03C
F03C
F03C
F07C
F07C
F8FC
7FFC
7FBC
1F3C
ENDCHAR
STARTCHAR Uhungarumlaut
ENCODING 368
SWIDTH 755 0
DWIDTH 21 0
BBX 17 26 2 0
BITMAP
03FF00
03DE00
073800
0E7000
000000
000000
F80F80
F80F80
F80F80
F80F80
F80F80
F80F80
F80F80
F80F80
F80F80
F80F80
F80F80
F80F80
F80F80
F80F80
780F00
780F00
7C1F00
3FFE00
1FFC00
07F000
ENDCHAR
STARTCHAR uhungarumlaut
ENCODING 369
SWIDTH 657 0
DWIDTH 18 0
BBX 14 21 2 0
BITMAP
07BC
0F78
0E70
1CE0
0000
0000
F03C
F03C
F03C
F03C
F03C
F03C
F03C
F03C
F03C
F07C
F07C
F8FC
7FFC
7FBC
1F3C
ENDCHAR
STARTCHAR Uogonek
ENCODING 370
SWIDTH 755 0
DWIDTH 21 0
BBX 17 27 2 -7
BITMAP
F80F80
F80F80
F80F80
F80F80
F80F80
F80F80
F80F80
F80F80
F80F80
F80F80
F80F80
F80F80
F80F80
F80F80
780F00
780F00
7C1F00
3FFE00
1FFC00
07F000
00E000
01C000
038000
038000
03F000
01F000
00F000
ENDCHAR
STARTCHAR uogonek
ENCODING 371
SWIDTH 657 0
DWIDTH 18 0
BBX 14 22 2 -7
BITMAP
F03C
F03C
F03C
F03C
F03C
F03C
F03C
F03C
F03C
F07C
F07C
F8FC
7FFC
7FBC
1F3C
0038
0070
0070
0070
007C
007C
003C
ENDCHAR
STARTCHAR Wcircumflex
ENCODING 372
SWIDTH 966 0
DWIDTH 27 0
BBX 27 26 0 0
BITMAP
001F0000
003F8000
007BC000
00E0E000
00000000
00000000
F01F01E0
F81F03E0
781F03C0
781F03C0
783F83C0
783B83C0
3C3B8780
3C3B8780
3C7BC780
3C7BC780
1E71CF00
1E71CF00
1EF1EF00
1EF1EF00
0EE0EE00
0FE0FE00
0FE0FE00
0FE0FE00
07C07C00
07C07C00
ENDCHAR
STARTCHAR wcircumflex
ENCODING 373
SWIDTH 855 0
DWIDTH 24 0
BBX 24 21 0 0
BITMAP
007E00
00FF00
01EF80
03C3C0
000000
000000
F83C1F
787E1E
787E1E
787E1E
3C7E3C
3CE73C
3CE73C
3CE73C
1EE778
1FC3F8
1FC3F8
0FC3F0
0FC3F0
0F83F0
0F81E0
ENDCHAR
STARTCHAR Ycircumflex
ENCODING 374
SWIDTH 624 0
DWIDTH 17 0
BBX 17 26 0 0
BITMAP
03F000
07F000
0F7800
1E1E00
000000
000000
F80F80
780F80
7C1F00
3C1E00
3E3E00
1E3C00
1F7C00
0F7800
0FF800
07F000
07F000
03E000
03E000
03E000
03E000
03E000
03E000
03E000
03E000
03E000
ENDCHAR
STARTCHAR ycircumflex
ENCODING 375
SWIDTH 568 0
DWIDTH 16 0
BBX 16 28 0 -7
BITMAP
07E0
0FF0
1EF8
3C3C
0000
0000
F81F
781E
781E
7C3E
3C3C
3C3C
1E7C
1E78
1E78
0FF0
0FF0
07F0
07E0
07E0
03E0
03C0
03C0
0780
0F80
7F00
7E00
7C00
ENDCHAR
STARTCHAR Ydieresis
ENCODING 376
SWIDTH 624 0
DWIDTH 17 0
BBX 17 26 0 0
BITMAP
061800
0F3C00
0F3C00
061800
000000
000000
F80F80
780F80
7C1F00
3C1E00
3E3E00
1E3C00
1F7C00
0F7800
0FF800
07F000
07F000
03E000
03E000
03E000
03E000
03E000
03E000
03E000
03E000
03E000
ENDCHAR
STARTCHAR Zacute
ENCODING 377
SWIDTH 579 0
DWIDTH 16 0
BBX 14 26 1 0
BITMAP
01F0
01E0
03C0
0700
0000
0000
FFFC
FFFC
FFFC
0078
00F8
01F0
01E0
03E0
03C0
07C0
0F80
0F00
1F00
3E00
3C00
7C00
F800
FFFC
FFFC
FFFC
ENDCHAR
STARTCHAR zacute
ENCODING 378
SWIDTH 487 0
DWIDTH 14 0
BBX 12 21 1 0
BITMAP
01E0
03C0
0780
0E00
0000
0000
FFF0
FFF0
FFF0
01E0
03C0
07C0
0F80
0F00
1E00
3E00
7C00
7800
FFF0
FFF0
FFF0
ENDCHAR
STARTCHAR Zdotaccent
ENCODING 379
SWIDTH 579 0
DWIDTH 16 0
BBX 14 26 1 0
BITMAP
0780
0780
0780
0780
0000
0000
FFFC
FFFC
FFFC
0078
00F8
01F0
01E0
03E0
03C0
07C0
0F80
0F00
1F00
3E00
3C00
7C00
F800
FFFC
FFFC
FFFC
ENDCHAR
STARTCHAR zdotaccent
ENCODING 380
SWIDTH 487 0
DWIDTH 14 0
BBX 12 21 1 0
BITMAP
0F00
0F00
0F00
0F00
0000
0000
FFF0
FFF0
FFF0
01E0
03C0
07C0
0F80
0F00
1E00
3E00
7C00
7800
FFF0
FFF0
FFF0
ENDCHAR
STARTCHAR Zcaron
ENCODING 381
SWIDTH 579 0
DWIDTH 16 0
BBX 14 26 1 0
BITMAP
3878
1EF0
0FE0
0FC0
0000
0000
FFFC
FFFC
FFFC
0078
00F8
01F0
01E0
03E0
03C0
07C0
0F80
0F00
1F00
3E00
3C00
7C00
F800
FFFC
FFFC
FFFC
ENDCHAR
STARTCHAR zcaron
ENCODING 382
SWIDTH 487 0
DWIDTH 14 0
BBX 12 21 1 0
BITMAP
F0F0
79E0
3FC0
1F80
0000
0000
FFF0
FFF0
FFF0
01E0
03C0
07C0
0F80
0F00
1E00
3E00
7C00
7800
FFF0
FFF0
FFF0
ENDCHAR
STARTCHAR longs
ENCODING 383
SWIDTH 382 0
DWIDTH 11 0
BBX 9 21 2 0
BITMAP
1F80
7F80
7F80
F800
F000
F000
F000
F000
F000
F000
F000
F000
F000
F000
F000
F000
F000
F000
F000
F000
F000
ENDCHAR
STARTCHAR florin
ENCODING 402
SWIDTH 570 0
DWIDTH 16 0
BBX 11 27 3 -7
BITMAP
07E0
0FE0
1FE0
1F00
1E00
1E00
3FC0
7FC0
7FC0
1E00
1E00
1E00
1E00
1E00
1E00
1E00
1E00
1E00
1E00
1E00
1E00
1E00
1E00
3E00
FE00
FC00
F800
ENDCHAR
STARTCHAR Ohorn
ENCODING 416
SWIDTH 825 0
DWIDTH 23 0
BBX 22 21 2 0
BITMAP
00007C
03F878
1FFE78
3FFFF8
7E1FF0
7C07E0
F807C0
F807C0
F003C0
F003C0
F003C0
F003C0
F003C0
F003C0
F007C0
F807C0
7C0F80
7E1F80
3FFF00
1FFE00
03F000
ENDCHAR
STARTCHAR ohorn
ENCODING 417
SWIDTH 679 0
DWIDTH 19 0
BBX 19 17 1 0
BITMAP
0001E0
0003E0
0FE3C0
1FF7C0
3FFF80
7C7E00
783C00
F83E00
F83E00
F83E00
F83E00
F83E00
783C00
7C7C00
3FF800
1FF000
0FE000
ENDCHAR
STARTCHAR Uhorn
ENCODING 431
SWIDTH 884 0
DWIDTH 25 0
BBX 23 21 2 0
BITMAP
00001E
F80FBE
F80FBC
F80FFC
F80FF8
F80FF0
F80F80
F80F80
F80F80
F80F80
F80F80
F80F80
F80F80
F80F80
F80F80
780F00
780F00
7C1F00
3FFE00
1FFC00
07F000
ENDCHAR
STARTCHAR uhorn
ENCODING 432
SWIDTH 759 0
DWIDTH 21 0
BBX 20 17 2 0
BITMAP
0000F0
0000F0
F03DE0
F03DE0
F03FC0
F03F00
F03C00
F03C00
F03C00
F03C00
F03C00
F07C00
F07C00
F8FC00
7FFC00
7FBC00
1F3C00
ENDCHAR
STARTCHAR uni01F0
ENCODING 496
SWIDTH 305 0
DWIDTH 9 0
BBX 12 28 -2 -7
BITMAP
F0F0
3DE0
1FC0
1F80
0000
0000
0F00
0F00
0F00
0F00
0F00
0F00
0F00
0F00
0F00
0F00
0F00
0F00
0F00
0F00
0F00
0F00
0F00
0F00
0F00
FF00
FE00
FC00
ENDCHAR
STARTCHAR Aringacute
ENCODING 506
SWIDTH 689 0
DWIDTH 19 0
BBX 19 27 0 0
BITMAP
003E00
007800
00F000
000000
00E000
01F000
033800
031800
033800
01F000
03F800
03F800
03B800
07BC00
07BC00
0F1E00
0F1E00
0E0E00
1E0F00
1FFF00
3FFF00
3FFF80
3C0780
7C07C0
7803C0
7803C0
F803E0
ENDCHAR
STARTCHAR aringacute
ENCODING 507
SWIDTH 604 0
DWIDTH 17 0
BBX 14 27 1 0
BITMAP
01F0
01E0
0380
0000
0380
07C0
0E60
0C60
0E60
07C0
0380
0000
0FE0
3FF0
3FF8
187C
003C
003C
0FFC
3FFC
7C3C
F83C
F07C
F8FC
7FFC
7FBC
3F1C
ENDCHAR
STARTCHAR AEacute
ENCODING 508
SWIDTH 952 0
DWIDTH 27 0
BBX 25 26 0 0
BITMAP
00007800
0000F000
0001E000
00038000
00000000
00000000
007FFF80
00FFFF80
00FFFF80
00E78000
01E78000
01E78000
03C78000
03C78000
0787FF80
0787FF80
0F87FF80
0F078000
1FFF8000
1FFF8000
3FFF8000
3C078000
3C078000
7807FF80
7807FF80
F807FF80
ENDCHAR
STARTCHAR aeacute
ENCODING 509
SWIDTH 916 0
DWIDTH 26 0
BBX 24 21 1 0
BITMAP
0007C0
000F00
001E00
003800
000000
000000
0FC3F0
3FFFFC
3FFFFE
107E1E
003C0E
003C0F
0FFFFF
7FFFFF
7C3FFF
F83C00
F07C00
F8FE06
7FEFFE
7FCFFE
1F03FC
ENDCHAR
STARTCHAR Oslashacute
ENCODING 510
SWIDTH 795 0
DWIDTH 22 0
BBX 18 27 2 -1
BITMAP
003C00
007800
00F000
01C000
000000
000000
03FB80
1FFF00
3FFF00
7E1F80
7C1F80
F83FC0
F83BC0
F073C0
F0F3C0
F0E3C0
F1C3C0
F1C3C0
F383C0
F703C0
FF07C0
7E0780
7E1F80
3FFF00
3FFE00
77F000
100000
ENDCHAR
STARTCHAR oslashacute
ENCODING 511
SWIDTH 619 0
DWIDTH 17 0
BBX 15 22 1 -1
BITMAP
00F8
01F0
03C0
0780
0000
0000
0FD8
1FF8
3FF8
7C7C
78FC
F9FE
F9FE
F3BE
FF3E
FF3E
7E3C
7E7C
3FF8
3FF0
3FE0
1000
ENDCHAR
STARTCHAR Scommaaccent
ENCODING 536
SWIDTH 550 0
DWIDTH 15 0
BBX 13 26 1 -6
BITMAP
0FE0
3FF8
7FF0
7830
F800
F800
7800
7E00
7F00
3FC0
1FE0
07F0
01F8
00F8
0078
8078
E0F8
FFF0
FFE0
3F80
0000
0000
0F00
0F00
0E00
0E00
ENDCHAR
STARTCHAR scommaaccent
ENCODING 537
SWIDTH 497 0
DWIDTH 14 0
BBX 12 21 1 -6
BITMAP
1FC0
7FF0
7FE0
F860
F800
FE00
7F80
3FE0
0FF0
01F0
00F0
C1F0
FFE0
FFE0
7F80
0000
0000
0F00
0E00
1C00
1C00
ENDCHAR
STARTCHAR Tcommaaccent
ENCODING 538
SWIDTH 579 0
DWIDTH 16 0
BBX 16 26 0 -6
BITMAP
FFFF
FFFF
FFFF
03C0
03C0
03C0
03C0
03C0
03C0
03C0
03C0
03C0
03C0
03C0
03C0
03C0
03C0
03C0
03C0
03C0
0000
0000
03C0
0380
0380
0700
ENDCHAR
STARTCHAR tcommaaccent
ENCODING 539
SWIDTH 434 0
DWIDTH 12 0
BBX 10 24 1 -6
BITMAP
1C00
3C00
3C00
7FC0
FFC0
FFC0
3C00
3C00
3C00
3C00
3C00
3C00
3C00
3C00
3C00
3FC0
3FC0
0FC0
0000
0000
0F00
0E00
1E00
1C00
ENDCHAR
STARTCHAR dotlessj
ENCODING 567
SWIDTH 305 0
DWIDTH 9 0
BBX 8 22 -2 -7
BITMAP
0F
0F
0F
0F
0F
0F
0F
0F
0F
0F
0F
0F
0F
0F
0F
0F
0F
0F
0F
FF
FE
FC
ENDCHAR
STARTCHAR uni02BC
ENCODING 700
SWIDTH 216 0
DWIDTH 6 0
BBX 6 7 0 13
BITMAP
3C
78
78
78
70
70
F0
ENDCHAR
STARTCHAR circumflex
ENCODING 710
SWIDTH 606 0
DWIDTH 17 0
BBX 11 4 3 17
BITMAP
1F00
3F80
7BC0
E0E0
ENDCHAR
STARTCHAR caron
ENCODING 711
SWIDTH 606 0
DWIDTH 17 0
BBX 11 4 3 17
BITMAP
E0E0
7BC0
3F80
1F00
ENDCHAR
STARTCHAR macron
ENCODING 713
SWIDTH 606 0
DWIDTH 17 0
BBX 9 3 4 17
BITMAP
FF80
FF80
FF80
ENDCHAR
STARTCHAR breve
ENCODING 728
SWIDTH 606 0
DWIDTH 17 0
BBX 11 5 3 17
BITMAP
E0E0
E0E0
7FC0
7F80
1F00
ENDCHAR
STARTCHAR dotaccent
ENCODING 729
SWIDTH 305 0
DWIDTH 9 0
BBX 5 4 2 17
BITMAP
70
F8
F8
70
ENDCHAR
STARTCHAR ring
ENCODING 730
SWIDTH 577 0
DWIDTH 16 0
BBX 6 7 5 17
BITMAP
78
FC
CC
CC
CC
FC
78
ENDCHAR
STARTCHAR ogonek
ENCODING 731
SWIDTH 206 0
DWIDTH 6 0
BBX 6 7 0 -7
BITMAP
38
70
E0
E0
FC
7C
3C
ENDCHAR
STARTCHAR tilde
ENCODING 732
SWIDTH 606 0
DWIDTH 17 0
BBX 11 4 3 17
BITMAP
3860
7FE0
FFC0
C380
ENDCHAR
STARTCHAR hungarumlaut
ENCODING 733
SWIDTH 587 0
DWIDTH 16 0
BBX 12 4 2 17
BITMAP
3FF0
3DE0
7380
E700
ENDCHAR
STARTCHAR uni02F3
ENCODING 755
SWIDTH 333 0
DWIDTH 9 0
BBX 7 6 1 -8
BITMAP
7C
FE
C6
C6
FE
7C
ENDCHAR
STARTCHAR uni0300
ENCODING 768
SWIDTH 0 0
DWIDTH 0 0
BBX 7 4 -13 17
BITMAP
F0
78
3C
0E
ENDCHAR
STARTCHAR uni0301
ENCODING 769
SWIDTH 0 0
DWIDTH 0 0
BBX 7 4 -11 17
BITMAP
1E
3C
78
E0
ENDCHAR
STARTCHAR uni0303
ENCODING 771
SWIDTH 0 0
DWIDTH 0 0
BBX 11 4 -14 17
BITMAP
7860
FFE0
FFC0
C780
ENDCHAR
STARTCHAR hook
ENCODING 777
SWIDTH 0 0
DWIDTH 0 0
BBX 6 7 -11 17
BITMAP
F8
FC
BC
1C
3C
78
70
ENDCHAR
STARTCHAR uni030F
ENCODING 783
SWIDTH 0 0
DWIDTH 0 0
BBX 12 4 -16 17
BITMAP
FBC0
79E0
1CE0
0E70
ENDCHAR
STARTCHAR dotbelow
ENCODING 803
SWIDTH 0 0
DWIDTH 0 0
BBX 4 4 -11 -6
BITMAP
70
F0
F0
F0
ENDCHAR
STARTCHAR tonos
ENCODING 900
SWIDTH 577 0
DWIDTH 16 0
BBX 5 5 6 17
BITMAP
78
78
70
70
E0
ENDCHAR
STARTCHAR dieresistonos
ENCODING 901
SWIDTH 577 0
DWIDTH 16 0
BBX 11 6 2 17
BITMAP
0780
0700
2740
76E0
F0E0
70E0
ENDCHAR
STARTCHAR Alphatonos
ENCODING 902
SWIDTH 689 0
DWIDTH 19 0
BBX 20 21 -1 0
BITMAP
780000
78F800
71FC00
F1FC00
E1DC00
03DE00
03DE00
03DE00
078F00
078F00
078F00
0F0780
0F0780
0FFF80
1FFFC0
1FFFC0
1E03C0
3E03E0
3C01E0
3C01E0
7C01F0
ENDCHAR
STARTCHAR anoteleia
ENCODING 903
SWIDTH 285 0
DWIDTH 8 0
BBX 4 5 2 8
BITMAP
F0
F0
F0
F0
F0
ENDCHAR
STARTCHAR Epsilontonos
ENCODING 904
SWIDTH 629 0
DWIDTH 18 0
BBX 17 21 -1 0
BITMAP
700000
F7FF80
F7FF80
E7FF80
C7C000
07C000
07C000
07C000
07C000
07FF80
07FF80
07FF80
07C000
07C000
07C000
07C000
07C000
07C000
07FF80
07FF80
07FF80
ENDCHAR
STARTCHAR Etatonos
ENCODING 905
SWIDTH 834 0
DWIDTH 23 0
BBX 21 21 -1 0
BITMAP
700000
F7C078
F7C078
E7C078
C7C078
07C078
07C078
07C078
07C078
07FFF8
07FFF8
07FFF8
07C078
07C078
07C078
07C078
07C078
07C078
07C078
07C078
07C078
ENDCHAR
STARTCHAR Iotatonos
ENCODING 906
SWIDTH 512 0
DWIDTH 14 0
BBX 11 21 -1 0
BITMAP
7000
F1E0
F1E0
E1E0
C1E0
01E0
01E0
01E0
01E0
01E0
01E0
01E0
01E0
01E0
01E0
01E0
01E0
01E0
01E0
01E0
01E0
ENDCHAR
STARTCHAR Omicrontonos
ENCODING 908
SWIDTH 835 0
DWIDTH 23 0
BBX 22 21 -1 0
BITMAP
780000
783F80
71FFE0
E3FFF0
E7E1F8
07C078
0F807C
0F803C
0F003C
0F003C
0F003C
0F003C
0F003C
0F003C
0F803C
0F807C
07C078
07E1F8
03FFF0
01FFE0
003F80
ENDCHAR
STARTCHAR Upsilontonos
ENCODING 910
SWIDTH 764 0
DWIDTH 21 0
BBX 23 21 -2 0
BITMAP
780000
7BE03E
71E03C
71F07C
E0F078
00F8F8
0078F0
007DF0
003DE0
003FE0
001FC0
001FC0
000F80
000F80
000F80
000F80
000F80
000F80
000F80
000F80
000F80
ENDCHAR
STARTCHAR Omegatonos
ENCODING 911
SWIDTH 786 0
DWIDTH 22 0
BBX 23 21 -1 0
BITMAP
780000
783F80
71FFE0
E3FFF0
E7E0F8
07C07C
0F803C
0F003E
0F003E
0F003E
0F003E
0F003E
0F003C
0F003C
07803C
078078
03C0F0
01E1E0
1FF1FE
1FF1FE
1FF1FE
ENDCHAR
STARTCHAR iotadieresistonos
ENCODING 912
SWIDTH 407 0
DWIDTH 11 0
BBX 11 23 -1 0
BITMAP
0780
0700
4740
FEE0
F0E0
60E0
0000
0000
1E00
1E00
1E00
1E00
1E00
1E00
1E00
1E00
1E00
1E00
1E00
1F00
0FE0
0FE0
07E0
ENDCHAR
STARTCHAR Alpha
ENCODING 913
SWIDTH 689 0
DWIDTH 19 0
BBX 19 20 0 0
BITMAP
01F000
03F800
03F800
03B800
07BC00
07BC00
07BC00
0F1E00
0F1E00
0F1E00
1E0F00
1E0F00
1FFF00
3FFF80
3FFF80
3C0780
7C07C0
7803C0
7803C0
F803E0
ENDCHAR
STARTCHAR Beta
ENCODING 914
SWIDTH 671 0
DWIDTH 19 0
BBX 15 20 3 0
BITMAP
FFC0
FFF0
FFF8
F07C
F03C
F03C
F07C
F078
FFF8
FFE0
FFF8
F07C
F03C
F03C
F03E
F03C
F07C
FFF8
FFF0
FFC0
ENDCHAR
STARTCHAR Gamma
ENCODING 915
SWIDTH 561 0
DWIDTH 16 0
BBX 12 20 3 0
BITMAP
FFF0
FFF0
FFF0
F000
F000
F000
F000
F000
F000
F000
F000
F000
F000
F000
F000
F000
F000
F000
F000
F000
ENDCHAR
STARTCHAR uni0394
ENCODING 916
SWIDTH 658 0
DWIDTH 18 0
BBX 16 20 1 0
BITMAP
07E0
07E0
07E0
0FF0
0FF0
0FF0
1E78
1E78
1E78
3C3C
3C3C
3C3C
781E
781E
781E
F81F
F00F
FFFF
FFFF
FFFF
ENDCHAR
STARTCHAR Epsilon
ENCODING 917
SWIDTH 560 0
DWIDTH 16 0
BBX 11 20 3 0
BITMAP
FFE0
FFE0
FFE0
F000
F000
F000
F000
F000
FFE0
FFE0
FFE0
F000
F000
F000
F000
F000
F000
FFE0
FFE0
FFE0
ENDCHAR
STARTCHAR Zeta
ENCODING 918
SWIDTH 579 0
DWIDTH 16 0
BBX 14 20 1 0
BITMAP
FFFC
FFFC
FFFC
0078
00F8
01F0
01E0
03E0
03C0
07C0
0F80
0F00
1F00
3E00
3C00
7C00
F800
FFFC
FFFC
FFFC
ENDCHAR
STARTCHAR Eta
ENCODING 919
SWIDTH 765 0
DWIDTH 21 0
BBX 15 20 3 0
BITMAP
F01E
F01E
F01E
F01E
F01E
F01E
F01E
F01E
FFFE
FFFE
FFFE
F01E
F01E
F01E
F01E
F01E
F01E
F01E
F01E
F01E
ENDCHAR
STARTCHAR Theta
ENCODING 920
SWIDTH 795 0
DWIDTH 22 0
BBX 18 20 2 0
BITMAP
03F000
1FFE00
3FFF00
7E1F80
780780
F807C0
F003C0
F003C0
F3F3C0
F3F3C0
F3F3C0
F003C0
F003C0
F003C0
F807C0
780780
7E1F80
3FFF00
1FFE00
03F000
ENDCHAR
STARTCHAR Iota
ENCODING 921
SWIDTH 331 0
DWIDTH 9 0
BBX 5 20 2 0
BITMAP
F8
F8
F8
F8
F8
F8
F8
F8
F8
F8
F8
F8
F8
F8
F8
F8
F8
F8
F8
F8
ENDCHAR
STARTCHAR Kappa
ENCODING 922
SWIDTH 664 0
DWIDTH 19 0
BBX 16 20 3 0
BITMAP
F01F
F03E
F07C
F0F8
F1F0
F1E0
F3E0
F7C0
FF80
FF80
FFC0
FFC0
F3E0
F1F0
F0F0
F0F8
F07C
F03C
F03E
F01F
ENDCHAR
STARTCHAR Lambda
ENCODING 923
SWIDTH 649 0
DWIDTH 18 0
BBX 18 20 0 0
BITMAP
03E000
03F000
03F000
07F000
07F800
07B800
0F3800
0F3C00
0F3C00
1E1C00
1E1E00
1E1E00
3E0E00
3C0F00
3C0F00
7C0F00
780780
780780
F807C0
F003C0
ENDCHAR
STARTCHAR Mu
ENCODING 924
SWIDTH 942 0
DWIDTH 26 0
BBX 20 20 3 0
BITMAP
F801F0
FC03F0
FC03F0
FC03F0
FE07F0
EE0770
EE0770
EE0F70
EF0E70
E70E70
E71E70
E79C70
E39C70
E3BC70
E3F870
E3F870
E1F870
E1F070
E1F070
E0F070
ENDCHAR
STARTCHAR Nu
ENCODING 925
SWIDTH 812 0
DWIDTH 23 0
BBX 17 20 3 0
BITMAP
F80380
FC0380
FC0380
FE0380
FF0380
EF0380
EF8380
E78380
E7C380
E3E380
E3E380
E1F380
E0F380
E0FB80
E07F80
E07F80
E03F80
E01F80
E01F80
E00F80
ENDCHAR
STARTCHAR Xi
ENCODING 926
SWIDTH 570 0
DWIDTH 16 0
BBX 14 20 1 0
BITMAP
7FF8
7FF8
7FF8
0000
0000
0000
0000
0000
3FF0
3FF0
3FF0
0000
0000
0000
0000
0000
0000
FFFC
FFFC
FFFC
ENDCHAR
STARTCHAR Omicron
ENCODING 927
SWIDTH 795 0
DWIDTH 22 0
BBX 18 20 2 0
BITMAP
03F000
1FFE00
3FFF00
7E1F80
7C0780
F807C0
F807C0
F003C0
F003C0
F003C0
F003C0
F003C0
F003C0
F007C0
F807C0
7C0F80
7E1F80
3FFF00
1FFE00
03F000
ENDCHAR
STARTCHAR Pi
ENCODING 928
SWIDTH 745 0
DWIDTH 21 0
BBX 15 20 3 0
BITMAP
FFFE
FFFE
FFFE
F01E
F01E
F01E
F01E
F01E
F01E
F01E
F01E
F01E
F01E
F01E
F01E
F01E
F01E
F01E
F01E
F01E
ENDCHAR
STARTCHAR Rho
ENCODING 929
SWIDTH 627 0
DWIDTH 18 0
BBX 14 20 3 0
BITMAP
FFC0
FFF0
FFF8
F0F8
F07C
F07C
F07C
F07C
F078
F0F8
FFF0
FFE0
FF80
F000
F000
F000
F000
F000
F000
F000
ENDCHAR
STARTCHAR Sigma
ENCODING 931
SWIDTH 592 0
DWIDTH 17 0
BBX 15 20 1 0
BITMAP
FFFC
FFFC
FFFC
7800
3C00
1E00
0F00
0780
03C0
01E0
03C0
0780
0F80
1F00
3E00
7C00
7800
FFFE
FFFE
FFFE
ENDCHAR
STARTCHAR Tau
ENCODING 932
SWIDTH 579 0
DWIDTH 16 0
BBX 16 20 0 0
BITMAP
FFFF
FFFF
FFFF
03C0
03C0
03C0
03C0
03C0
03C0
03C0
03C0
03C0
03C0
03C0
03C0
03C0
03C0
03C0
03C0
03C0
ENDCHAR
STARTCHAR Upsilon
ENCODING 933
SWIDTH 624 0
DWIDTH 17 0
BBX 17 20 0 0
BITMAP
F80F80
780F80
7C1F00
3C1E00
3E3E00
1E3C00
1F7C00
0F7800
0FF800
07F000
07F000
03E000
03E000
03E000
03E000
03E000
03E000
03E000
03E000
03E000
ENDCHAR
STARTCHAR Phi
ENCODING 934
SWIDTH 859 0
DWIDTH 24 0
BBX 22 20 1 0
BITMAP
007800
007800
07FF80
1FFFE0
3FFFF0
7C78F8
787878
F8787C
F0783C
F0783C
F0783C
787878
787878
7E79F8
3FFFF0
1FFFE0
07FF80
007800
007800
007800
ENDCHAR
STARTCHAR Chi
ENCODING 935
SWIDTH 666 0
DWIDTH 19 0
BBX 19 20 0 0
BITMAP
7803C0
7C07C0
3E0F80
1E0F00
1F1F00
0F9E00
07BC00
07FC00
03F800
01F000
03F000
03F800
07FC00
0FBE00
0F1E00
1E1F00
3E0F80
3C0780
7C07C0
F803E0
ENDCHAR
STARTCHAR Psi
ENCODING 936
SWIDTH 875 0
DWIDTH 25 0
BBX 23 20 1 0
BITMAP
F0381E
F0381E
F0381E
F0381E
F0381E
F0381E
F0381E
70383C
78383C
78383C
7C387C
3FFFF8
1FFFF0
07FFC0
003800
003800
003800
003800
003800
003800
ENDCHAR
STARTCHAR uni03A9
ENCODING 937
SWIDTH 786 0
DWIDTH 22 0
BBX 20 20 1 0
BITMAP
03FC00
0FFF00
1FFF80
3F0FC0
7C03E0
7C03E0
7801E0
F801E0
F801F0
7801E0
7801E0
7801E0
7801E0
3C03C0
3C03C0
1E0780
0F0F00
FF1FF0
FF1FF0
FF1FF0
ENDCHAR
STARTCHAR Iotadieresis
ENCODING 938
SWIDTH 331 0
DWIDTH 9 0
BBX 10 26 0 0
BITMAP
6180
F3C0
F3C0
E380
0000
0000
3E00
3E00
3E00
3E00
3E00
3E00
3E00
3E00
3E00
3E00
3E00
3E00
3E00
3E00
3E00
3E00
3E00
3E00
3E00
3E00
ENDCHAR
STARTCHAR Upsilondieresis
ENCODING 939
SWIDTH 624 0
DWIDTH 17 0
BBX 17 26 0 0
BITMAP
061800
0F3C00
0F3C00
061800
000000
000000
F80F80
780F80
7C1F00
3C1E00
3E3E00
1E3C00
1F7C00
0F7800
0FF800
07F000
07F000
03E000
03E000
03E000
03E000
03E000
03E000
03E000
03E000
03E000
ENDCHAR
STARTCHAR alphatonos
ENCODING 940
SWIDTH 646 0
DWIDTH 18 0
BBX 16 22 1 0
BITMAP
01E0
01C0
01C0
0380
0380
0000
0000
0F8E
3FDE
7FFE
7C7E
783C
F83C
F81C
F81C
F83C
F83C
783E
7C7F
7FFF
3FDF
0F8F
ENDCHAR
STARTCHAR epsilontonos
ENCODING 941
SWIDTH 555 0
DWIDTH 16 0
BBX 14 22 1 0
BITMAP
01E0
01C0
03C0
0380
0380
0000
0000
0FF0
3FFC
7FF8
7818
7800
7800
3FE0
0FE0
7FE0
F800
F000
F80C
FFFC
7FFC
1FF0
ENDCHAR
STARTCHAR etatonos
ENCODING 942
SWIDTH 657 0
DWIDTH 18 0
BBX 14 29 2 -7
BITMAP
01E0
01C0
01C0
0380
0380
0000
0000
F3E0
F7F8
FFF8
FC7C
F87C
F83C
F03C
F03C
F03C
F03C
F03C
F03C
F03C
F03C
F03C
003C
003C
003C
003C
003C
003C
003C
ENDCHAR
STARTCHAR iotatonos
ENCODING 943
SWIDTH 407 0
DWIDTH 11 0
BBX 8 22 2 0
BITMAP
3C
38
38
70
70
00
00
F0
F0
F0
F0
F0
F0
F0
F0
F0
F0
F0
F8
7F
7F
3F
ENDCHAR
STARTCHAR upsilondieresistonos
ENCODING 944
SWIDTH 645 0
DWIDTH 18 0
BBX 15 23 2 0
BITMAP
03C0
0380
13B0
7B70
7870
3870
0000
0000
F07C
F03C
F03C
F03C
F03C
F03C
F03E
F03E
F03C
F03C
F03C
787C
7FF8
3FF0
0FC0
ENDCHAR
STARTCHAR alpha
ENCODING 945
SWIDTH 646 0
DWIDTH 18 0
BBX 16 15 1 0
BITMAP
0F8E
3FDE
7FFE
7C7E
783C
F83C
F81C
F81C
F83C
F83C
783E
7C7F
7FFF
3FDF
0F8F
ENDCHAR
STARTCHAR beta
ENCODING 946
SWIDTH 660 0
DWIDTH 18 0
BBX 15 28 2 -7
BITMAP
0FE0
3FF0
7FF8
787C
F83C
F03C
F03C
F078
F3F0
F3E0
F3F8
F07C
F03E
F01E
F01E
F01E
F03E
F87E
FFFC
FFF8
F7E0
F000
F000
F000
F000
F000
F000
F000
ENDCHAR
STARTCHAR gamma
ENCODING 947
SWIDTH 567 0
DWIDTH 16 0
BBX 16 22 0 -7
BITMAP
F81F
781E
781E
7C3E
3C3C
3C3C
1E7C
1E78
1E78
0E70
0FF0
07F0
07E0
07E0
03C0
03C0
07C0
07C0
0780
0780
0780
0780
ENDCHAR
STARTCHAR delta
ENCODING 948
SWIDTH 619 0
DWIDTH 17 0
BBX 15 21 1 0
BITMAP
07F0
1FFE
1FFC
3E18
3C00
1E00
1F00
0FC0
07F0
1FF8
3FFC
7C7C
783E
F83E
F83E
F83E
F83C
7C7C
7FF8
3FF8
0FE0
ENDCHAR
STARTCHAR epsilon
ENCODING 949
SWIDTH 555 0
DWIDTH 16 0
BBX 14 15 1 0
BITMAP
0FF0
3FFC
7FF8
7818
7800
7800
3FE0
0FE0
7FE0
F800
F000
F80C
FFFC
7FFC
1FF0
ENDCHAR
STARTCHAR zeta
ENCODING 950
SWIDTH 498 0
DWIDTH 14 0
BBX 13 26 1 -5
BITMAP
7FF8
7FF8
7FF8
01F0
03C0
0780
0F00
1F00
3E00
3C00
7C00
7800
7800
F800
F800
F800
F800
7E00
7FC0
1FF0
07F8
00F8
0078
00F0
00F0
01E0
ENDCHAR
STARTCHAR eta
ENCODING 951
SWIDTH 657 0
DWIDTH 18 0
BBX 14 22 2 -7
BITMAP
F3E0
F7F8
FFF8
FC7C
F87C
F83C
F03C
F03C
F03C
F03C
F03C
F03C
F03C
F03C
F03C
003C
003C
003C
003C
003C
003C
003C
ENDCHAR
STARTCHAR theta
ENCODING 952
SWIDTH 618 0
DWIDTH 17 0
BBX 15 21 1 0
BITMAP
07C0
1FF0
3FF8
7C78
783C
783C
783C
F83E
F83E
FFFE
FFFE
FFFE
F83E
F83E
783C
783C
783C
3C78
3FF8
1FF0
07C0
ENDCHAR
STARTCHAR iota
ENCODING 953
SWIDTH 407 0
DWIDTH 11 0
BBX 8 15 2 0
BITMAP
F0
F0
F0
F0
F0
F0
F0
F0
F0
F0
F0
F8
7F
7F
3F
ENDCHAR
STARTCHAR kappa
ENCODING 954
SWIDTH 620 0
DWIDTH 17 0
BBX 15 15 2 0
BITMAP
F03C
F078
F0F8
F1F0
F3E0
F3C0
F780
FF80
FFC0
FFE0
F1F0
F0F0
F0F8
F07C
F03E
ENDCHAR
STARTCHAR lambda
ENCODING 955
SWIDTH 615 0
DWIDTH 17 0
BBX 17 21 0 0
BITMAP
3C0000
3F0000
3F8000
3F8000
07C000
03C000
03C000
03E000
03E000
07F000
07F000
0FF000
0FF800
0F7800
1E7C00
1E3C00
3C3E00
3C3F80
7C1F80
781F80
F80780
ENDCHAR
STARTCHAR uni03BC
ENCODING 956
SWIDTH 660 0
DWIDTH 18 0
BBX 14 22 2 -7
BITMAP
F03C
F03C
F03C
F03C
F03C
F03C
F03C
F03C
F03C
F07C
F87C
F8FC
FFFC
FFFC
F79C
F000
F000
F000
F000
F000
F000
F000
ENDCHAR
STARTCHAR nu
ENCODING 957
SWIDTH 595 0
DWIDTH 17 0
BBX 16 15 0 0
BITMAP
F80F
780F
780F
7C1F
3C1F
3C1E
1E1E
1E1E
1F3C
0F3C
0F78
07F8
07F0
07E0
03C0
ENDCHAR
STARTCHAR xi
ENCODING 958
SWIDTH 498 0
DWIDTH 14 0
BBX 13 26 1 -5
BITMAP
7FF0
7FF0
7FF0
0F00
3C00
7800
7800
7800
7C00
3FE0
0FE0
3FE0
7C00
7800
F800
F800
F800
7C00
7FC0
3FF0
0FF8
00F8
0078
00F0
00F0
01E0
ENDCHAR
STARTCHAR omicron
ENCODING 959
SWIDTH 619 0
DWIDTH 17 0
BBX 15 15 1 0
BITMAP
0FC0
1FF0
3FF8
7C7C
783C
F83E
F83E
F83E
F83E
F83E
783C
7C7C
3FF8
1FF0
0FE0
ENDCHAR
STARTCHAR pi
ENCODING 960
SWIDTH 738 0
DWIDTH 21 0
BBX 20 15 0 0
BITMAP
3FFFF0
FFFFF0
FFFFF0
0F0780
0F0780
0F0780
0F0780
0F0780
0F0780
0F0780
0F0780
0F0780
0F07F0
0F07F0
0F03E0
ENDCHAR
STARTCHAR rho
ENCODING 961
SWIDTH 618 0
DWIDTH 17 0
BBX 14 22 2 -7
BITMAP
0FC0
3FE0
7FF0
78F8
F078
F07C
F07C
F07C
F07C
F07C
F078
F8F8
FFF0
FFF0
F7C0
F000
F000
F000
F000
F000
F000
F000
ENDCHAR
STARTCHAR sigma1
ENCODING 962
SWIDTH 498 0
DWIDTH 14 0
BBX 13 20 1 -5
BITMAP
07E0
1FF8
3FF0
7C30
7800
7800
F800
F800
F800
F800
7800
7F00
3FE0
1FF0
03F8
0078
0078
00F0
00F0
01E0
ENDCHAR
STARTCHAR sigma
ENCODING 963
SWIDTH 652 0
DWIDTH 18 0
BBX 16 15 1 0
BITMAP
07FF
1FFF
3FFF
7C78
783C
F83C
F81E
F81E
F81E
F81E
783E
7C7C
3FFC
1FF8
0FE0
ENDCHAR
STARTCHAR tau
ENCODING 964
SWIDTH 538 0
DWIDTH 15 0
BBX 13 15 1 0
BITMAP
7FF8
FFF8
FFF8
1F00
1F00
1F00
1F00
1F00
1F00
1F00
1F00
1F00
0FF0
0FF0
03F0
ENDCHAR
STARTCHAR upsilon
ENCODING 965
SWIDTH 645 0
DWIDTH 18 0
BBX 15 15 2 0
BITMAP
F07C
F03C
F03C
F03C
F03C
F03C
F03E
F03E
F03C
F03C
F03C
787C
7FF8
3FF0
0FC0
ENDCHAR
STARTCHAR phi
ENCODING 966
SWIDTH 791 0
DWIDTH 22 0
BBX 20 22 1 -7
BITMAP
101F00
3C7FC0
3CFFC0
78F1E0
78F1E0
F0F0F0
F0F0F0
F0F0F0
F0F0F0
F0F1E0
78F1E0
7CF7C0
3FFFC0
1FFF00
07FC00
00F000
00F000
00F000
00F000
00F000
00F000
00F000
ENDCHAR
STARTCHAR chi
ENCODING 967
SWIDTH 591 0
DWIDTH 17 0
BBX 17 22 0 -7
BITMAP
7C0780
7E0F00
7E1F00
7F1E00
0F3C00
0FBC00
07F800
07F800
03F000
03E000
03E000
03E000
07F000
0FF000
0F7800
1E7800
1E7C00
3C3C00
7C3F80
783F80
F81F80
F00F80
ENDCHAR
STARTCHAR psi
ENCODING 968
SWIDTH 836 0
DWIDTH 23 0
BBX 20 28 2 -7
BITMAP
00F000
00F000
00F000
00F000
00F000
00F000
F0F1E0
F0F1E0
F0F1E0
F0F1E0
F0F1E0
F0F0E0
F0F0E0
F0F0F0
F0F0E0
F0F1E0
F8F1E0
7CF3E0
7FFFC0
3FFF80
0FFC00
00F000
00F000
00F000
00F000
00F000
00F000
00F000
ENDCHAR
STARTCHAR omega
ENCODING 969
SWIDTH 862 0
DWIDTH 24 0
BBX 22 15 1 0
BITMAP
3C00F0
780078
780078
780078
780078
707838
F07838
F0783C
70783C
707838
787878
7CFCF8
3FFFF0
1FCFF0
0F87C0
ENDCHAR
STARTCHAR iotadieresis
ENCODING 970
SWIDTH 407 0
DWIDTH 11 0
BBX 10 21 0 0
BITMAP
2080
F3C0
F3C0
61C0
0000
0000
3C00
3C00
3C00
3C00
3C00
3C00
3C00
3C00
3C00
3C00
3C00
3E00
1FC0
1FC0
0FC0
ENDCHAR
STARTCHAR upsilondieresis
ENCODING 971
SWIDTH 645 0
DWIDTH 18 0
BBX 15 21 2 0
BITMAP
0820
3CF0
3CF0
1C70
0000
0000
F07C
F03C
F03C
F03C
F03C
F03C
F03E
F03E
F03C
F03C
F03C
787C
7FF8
3FF0
0FC0
ENDCHAR
STARTCHAR omicrontonos
ENCODING 972
SWIDTH 619 0
DWIDTH 17 0
BBX 15 22 1 0
BITMAP
01E0
01E0
01C0
01C0
0380
0000
0000
0FC0
1FF0
3FF8
7C7C
783C
F83E
F83E
F83E
F83E
F83E
783C
7C7C
3FF8
1FF0
0FE0
ENDCHAR
STARTCHAR upsilontonos
ENCODING 973
SWIDTH 645 0
DWIDTH 18 0
BBX 15 22 2 0
BITMAP
03C0
03C0
0380
0380
0700
0000
0000
F07C
F03C
F03C
F03C
F03C
F03C
F03E
F03E
F03C
F03C
F03C
787C
7FF8
3FF0
0FC0
ENDCHAR
STARTCHAR omegatonos
ENCODING 974
SWIDTH 862 0
DWIDTH 24 0
BBX 22 22 1 0
BITMAP
001C00
003C00
003C00
003800
003000
000000
000000
3C00F0
780078
780078
780078
780078
707838
F07838
F0783C
70783C
707838
787878
7CFCF8
3FFFF0
1FCFF0
0F87C0
ENDCHAR
STARTCHAR uni03D1
ENCODING 977
SWIDTH 731 0
DWIDTH 21 0
BBX 19 21 1 0
BITMAP
03F000
07FC00
0FFE00
1F1F00
1E0F00
1E0F00
1F0780
0FC780
07FFE0
03FFE0
787FE0
FC0780
FC0780
1C0780
1C0780
1C0780
3C0F80
1E1F00
1FFE00
0FFC00
07F000
ENDCHAR
STARTCHAR uni03D2
ENCODING 978
SWIDTH 630 0
DWIDTH 18 0
BBX 18 20 0 0
BITMAP
F803C0
7807C0
7C0FC0
3C1F00
3E1E00
1E3C00
0F3C00
0F7800
07F800
07F000
03F000
03E000
01E000
01E000
01E000
01E000
01E000
01E000
01E000
01E000
ENDCHAR
STARTCHAR uni03D6
ENCODING 982
SWIDTH 999 0
DWIDTH 28 0
BBX 26 15 1 0
BITMAP
7FFFFFC0
FFFFFFC0
FFFFFFC0
1E001E00
1E001E00
1C000E00
3C000F00
3C1E0F00
3C1E0F00
3C1E0F00
1E1E1E00
1E3F1E00
1FFFFE00
0FF3FC00
03E1F000
ENDCHAR
STARTCHAR uni0400
ENCODING 1024
SWIDTH 560 0
DWIDTH 16 0
BBX 11 26 3 0
BITMAP
F800
7C00
1E00
0E00
0000
0000
FFE0
FFE0
FFE0
F000
F000
F000
F000
F000
FFE0
FFE0
FFE0
F000
F000
F000
F000
F000
F000
FFE0
FFE0
FFE0
ENDCHAR
STARTCHAR afii10023
ENCODING 1025
SWIDTH 560 0
DWIDTH 16 0
BBX 11 26 3 0
BITMAP
2080
71C0
71C0
71C0
0000
0000
FFE0
FFE0
FFE0
F000
F000
F000
F000
F000
FFE0
FFE0
FFE0
F000
F000
F000
F000
F000
F000
FFE0
FFE0
FFE0
ENDCHAR
STARTCHAR afii10051
ENCODING 1026
SWIDTH 805 0
DWIDTH 23 0
BBX 21 20 1 0
BITMAP
FFFE00
FFFE00
FFFE00
078000
078000
078000
078000
07FF80
07FFE0
07FFF0
0780F0
0780F0
0780F8
0780F8
0780F8
0780F0
0780F0
078FF0
078FE0
078FC0
ENDCHAR
STARTCHAR afii10052
ENCODING 1027
SWIDTH 561 0
DWIDTH 16 0
BBX 12 26 3 0
BITMAP
03E0
07C0
0F00
0E00
0000
0000
FFF0
FFF0
FFF0
F000
F000
F000
F000
F000
F000
F000
F000
F000
F000
F000
F000
F000
F000
F000
F000
F000
ENDCHAR
STARTCHAR afii10053
ENCODING 1028
SWIDTH 676 0
DWIDTH 19 0
BBX 16 20 2 0
BITMAP
03FC
0FFF
1FFE
3E0E
7C00
F800
F000
F000
FFF8
FFF8
FFF8
F000
F000
F800
F800
7C00
7E06
3FFE
1FFE
03FC
ENDCHAR
STARTCHAR afii10054
ENCODING 1029
SWIDTH 550 0
DWIDTH 15 0
BBX 13 20 1 0
BITMAP
0FE0
3FF8
7FF0
7830
F800
F800
7800
7E00
7F00
3FC0
1FE0
07F0
01F8
00F8
0078
8078
E0F8
FFF0
FFE0
3F80
ENDCHAR
STARTCHAR afii10055
ENCODING 1030
SWIDTH 331 0
DWIDTH 9 0
BBX 5 20 2 0
BITMAP
F8
F8
F8
F8
F8
F8
F8
F8
F8
F8
F8
F8
F8
F8
F8
F8
F8
F8
F8
F8
ENDCHAR
STARTCHAR afii10056
ENCODING 1031
SWIDTH 331 0
DWIDTH 9 0
BBX 10 26 0 0
BITMAP
6180
F3C0
F3C0
E380
0000
0000
3E00
3E00
3E00
3E00
3E00
3E00
3E00
3E00
3E00
3E00
3E00
3E00
3E00
3E00
3E00
3E00
3E00
3E00
3E00
3E00
ENDCHAR
STARTCHAR afii10057
ENCODING 1032
SWIDTH 331 0
DWIDTH 9 0
BBX 9 26 -2 -6
BITMAP
0780
0780
0780
0780
0780
0780
0780
0780
0780
0780
0780
0780
0780
0780
0780
0780
0780
0780
0780
0F80
0F80
0F00
0F00
FF00
FE00
F800
ENDCHAR
STARTCHAR afii10058
ENCODING 1033
SWIDTH 999 0
DWIDTH 28 0
BBX 27 20 0 0
BITMAP
03FF8000
03FF8000
07FF8000
07878000
07878000
07878000
07878000
07878000
0787FE00
0F07FF80
0F07FFC0
0F0787C0
0F0783E0
0F0783E0
1F0783E0
1E0783E0
1E0787C0
FE07FFC0
FC07FF80
F807FE00
ENDCHAR
STARTCHAR afii10059
ENCODING 1034
SWIDTH 1001 0
DWIDTH 28 0
BBX 24 20 3 0
BITMAP
F03C00
F03C00
F03C00
F03C00
F03C00
F03C00
F03C00
F03C00
FFFFF0
FFFFFC
FFFFFE
F03C3E
F03C1F
F03C1F
F03C1F
F03C1F
F03C3E
F03FFE
F03FFC
F03FF0
ENDCHAR
STARTCHAR afii10060
ENCODING 1035
SWIDTH 805 0
DWIDTH 23 0
BBX 21 20 1 0
BITMAP
FFFE00
FFFE00
FFFE00
078000
078000
078000
078000
07FF80
07FFE0
07FFF0
0780F0
0780F0
0780F8
0780F8
0780F8
0780F8
0780F8
0780F8
0780F8
0780F8
ENDCHAR
STARTCHAR afii10061
ENCODING 1036
SWIDTH 671 0
DWIDTH 19 0
BBX 16 26 3 0
BITMAP
00F8
01E0
03C0
0700
0000
0000
F01E
F03C
F07C
F0F8
F0F0
F1E0
F3E0
F7C0
F780
FF00
FF80
F7C0
F3C0
F3E0
F1F0
F0F8
F078
F07C
F03E
F01F
ENDCHAR
STARTCHAR uni040D
ENCODING 1037
SWIDTH 823 0
DWIDTH 23 0
BBX 17 26 3 0
BITMAP
1F0000
0F8000
038000
01C000
000000
000000
E00F80
E01F80
E01F80
E03F80
E03F80
E07B80
E0FB80
E0F380
E1F380
E1E380
E3C380
E7C380
E78380
EF8380
EF0380
FE0380
FE0380
FC0380
FC0380
F80380
ENDCHAR
STARTCHAR afii10062
ENCODING 1038
SWIDTH 652 0
DWIDTH 18 0
BBX 18 27 0 0
BITMAP
1C0F00
1E0F00
1F3E00
0FFC00
03F800
000000
000000
F807C0
780780
7C0780
3C0F00
3C0F00
1E0F00
1E1E00
0F1E00
0F3C00
07BC00
07B800
07F800
03F800
03F000
01F000
03E000
07E000
7FC000
7F8000
7E0000
ENDCHAR
STARTCHAR afii10145
ENCODING 1039
SWIDTH 745 0
DWIDTH 21 0
BBX 15 26 3 -6
BITMAP
F01E
F01E
F01E
F01E
F01E
F01E
F01E
F01E
F01E
F01E
F01E
F01E
F01E
F01E
F01E
F01E
F01E
FFFE
FFFE
FFFE
07C0
07C0
07C0
07C0
07C0
07C0
ENDCHAR
STARTCHAR afii10017
ENCODING 1040
SWIDTH 689 0
DWIDTH 19 0
BBX 19 20 0 0
BITMAP
01F000
03F800
03F800
03B800
07BC00
07BC00
07BC00
0F1E00
0F1E00
0F1E00
1E0F00
1E0F00
1FFF00
3FFF80
3FFF80
3C0780
7C07C0
7803C0
7803C0
F803E0
ENDCHAR
STARTCHAR afii10018
ENCODING 1041
SWIDTH 638 0
DWIDTH 18 0
BBX 14 20 3 0
BITMAP
FFF0
FFF0
FFF0
F000
F000
F000
F000
F000
FF80
FFF0
FFF8
F0F8
F07C
F07C
F07C
F07C
F0F8
FFF8
FFF0
FFC0
ENDCHAR
STARTCHAR afii10019
ENCODING 1042
SWIDTH 671 0
DWIDTH 19 0
BBX 15 20 3 0
BITMAP
FFC0
FFF0
FFF8
F07C
F03C
F03C
F07C
F078
FFF8
FFE0
FFF8
F07C
F03C
F03C
F03E
F03C
F07C
FFF8
FFF0
FFC0
ENDCHAR
STARTCHAR afii10020
ENCODING 1043
SWIDTH 561 0
DWIDTH 16 0
BBX 12 20 3 0
BITMAP
FFF0
FFF0
FFF0
F000
F000
F000
F000
F000
F000
F000
F000
F000
F000
F000
F000
F000
F000
F000
F000
F000
ENDCHAR
STARTCHAR afii10021
ENCODING 1044
SWIDTH 764 0
DWIDTH 21 0
BBX 20 26 0 -6
BITMAP
03FFC0
03FFC0
03FFC0
03C3C0
03C3C0
0783C0
0783C0
0783C0
0783C0
0F03C0
0F03C0
0F03C0
1F03C0
1E03C0
1E03C0
3E03C0
3C03C0
FFFFF0
FFFFF0
FFFFF0
F000F0
F000F0
F000F0
F000F0
F000F0
F000F0
ENDCHAR
STARTCHAR afii10022
ENCODING 1045
SWIDTH 560 0
DWIDTH 16 0
BBX 11 20 3 0
BITMAP
FFE0
FFE0
FFE0
F000
F000
F000
F000
F000
FFE0
FFE0
FFE0
F000
F000
F000
F000
F000
F000
FFE0
FFE0
FFE0
ENDCHAR
STARTCHAR afii10024
ENCODING 1046
SWIDTH 942 0
DWIDTH 26 0
BBX 26 20 0 0
BITMAP
781E0780
7C1E0F80
3C1E0F00
1E1E1E00
1F1E3E00
0F1E3C00
079E7800
07DEF800
03DEF000
01FFE000
03FFF000
03DEF000
079E7800
0F9E7C00
0F1E3C00
1E1E1E00
3E1E1F00
3C1E0F00
7C1E0F80
F81E07C0
ENDCHAR
STARTCHAR afii10025
ENCODING 1047
SWIDTH 647 0
DWIDTH 18 0
BBX 16 20 1 0
BITMAP
0FF0
7FFC
7FFC
783E
001E
001E
001E
007C
1FF8
1FE0
1FFC
007E
001E
000F
000F
001F
E03E
FFFE
FFF8
3FE0
ENDCHAR
STARTCHAR afii10026
ENCODING 1048
SWIDTH 823 0
DWIDTH 23 0
BBX 17 20 3 0
BITMAP
E00F80
E01F80
E01F80
E03F80
E03F80
E07B80
E0FB80
E0F380
E1F380
E1E380
E3C380
E7C380
E78380
EF8380
EF0380
FE0380
FE0380
FC0380
FC0380
F80380
ENDCHAR
STARTCHAR afii10027
ENCODING 1049
SWIDTH 823 0
DWIDTH 23 0
BBX 17 27 3 0
BITMAP
3C1E00
3C1E00
3E3C00
1FFC00
07F000
000000
000000
E00F80
E01F80
E01F80
E03F80
E03F80
E07B80
E0FB80
E0F380
E1F380
E1E380
E3C380
E7C380
E78380
EF8380
EF0380
FE0380
FE0380
FC0380
FC0380
F80380
ENDCHAR
STARTCHAR afii10028
ENCODING 1050
SWIDTH 671 0
DWIDTH 19 0
BBX 16 20 3 0
BITMAP
F01E
F03C
F07C
F0F8
F0F0
F1E0
F3E0
F7C0
F780
FF00
FF80
F7C0
F3C0
F3E0
F1F0
F0F8
F078
F07C
F03E
F01F
ENDCHAR
STARTCHAR afii10029
ENCODING 1051
SWIDTH 745 0
DWIDTH 21 0
BBX 18 20 0 0
BITMAP
03FFC0
03FFC0
07FFC0
0783C0
0783C0
0783C0
0783C0
0783C0
0783C0
0F03C0
0F03C0
0F03C0
0F03C0
0F03C0
0F03C0
1E03C0
1E03C0
FE03C0
FC03C0
F803C0
ENDCHAR
STARTCHAR afii10030
ENCODING 1052
SWIDTH 942 0
DWIDTH 26 0
BBX 20 20 3 0
BITMAP
F801F0
FC03F0
FC03F0
FC03F0
FE07F0
EE0770
EE0770
EE0F70
EF0E70
E70E70
E71E70
E79C70
E39C70
E3BC70
E3F870
E3F870
E1F870
E1F070
E1F070
E0F070
ENDCHAR
STARTCHAR afii10031
ENCODING 1053
SWIDTH 765 0
DWIDTH 21 0
BBX 15 20 3 0
BITMAP
F01E
F01E
F01E
F01E
F01E
F01E
F01E
F01E
FFFE
FFFE
FFFE
F01E
F01E
F01E
F01E
F01E
F01E
F01E
F01E
F01E
ENDCHAR
STARTCHAR afii10032
ENCODING 1054
SWIDTH 795 0
DWIDTH 22 0
BBX 18 20 2 0
BITMAP
03F000
1FFE00
3FFF00
7E1F80
7C0780
F807C0
F807C0
F003C0
F003C0
F003C0
F003C0
F003C0
F003C0
F007C0
F807C0
7C0F80
7E1F80
3FFF00
1FFE00
03F000
ENDCHAR
STARTCHAR afii10033
ENCODING 1055
SWIDTH 745 0
DWIDTH 21 0
BBX 15 20 3 0
BITMAP
FFFE
FFFE
FFFE
F01E
F01E
F01E
F01E
F01E
F01E
F01E
F01E
F01E
F01E
F01E
F01E
F01E
F01E
F01E
F01E
F01E
ENDCHAR
STARTCHAR afii10034
ENCODING 1056
SWIDTH 627 0
DWIDTH 18 0
BBX 14 20 3 0
BITMAP
FFC0
FFF0
FFF8
F0F8
F07C
F07C
F07C
F07C
F078
F0F8
FFF0
FFE0
FF80
F000
F000
F000
F000
F000
F000
F000
ENDCHAR
STARTCHAR afii10035
ENCODING 1057
SWIDTH 637 0
DWIDTH 18 0
BBX 15 20 2 0
BITMAP
03F8
0FFE
3FFC
7E0C
7C00
F800
F000
F000
F000
F000
F000
F000
F000
F000
F800
7800
7E0C
3FFC
1FFC
07F8
ENDCHAR
STARTCHAR afii10036
ENCODING 1058
SWIDTH 579 0
DWIDTH 16 0
BBX 16 20 0 0
BITMAP
FFFF
FFFF
FFFF
03C0
03C0
03C0
03C0
03C0
03C0
03C0
03C0
03C0
03C0
03C0
03C0
03C0
03C0
03C0
03C0
03C0
ENDCHAR
STARTCHAR afii10037
ENCODING 1059
SWIDTH 652 0
DWIDTH 18 0
BBX 18 20 0 0
BITMAP
F807C0
780780
7C0780
3C0F00
3C0F00
1E0F00
1E1E00
0F1E00
0F3C00
07BC00
07B800
07F800
03F800
03F000
01F000
03E000
07E000
7FC000
7F8000
7E0000
ENDCHAR
STARTCHAR afii10038
ENCODING 1060
SWIDTH 859 0
DWIDTH 24 0
BBX 22 20 1 0
BITMAP
007800
007800
07FF80
1FFFE0
3FFFF0
7C78F8
787878
F8787C
F0783C
F0783C
F0783C
787878
787878
7E79F8
3FFFF0
1FFFE0
07FF80
007800
007800
007800
ENDCHAR
STARTCHAR afii10039
ENCODING 1061
SWIDTH 666 0
DWIDTH 19 0
BBX 19 20 0 0
BITMAP
7803C0
7C07C0
3E0F80
1E0F00
1F1F00
0F9E00
07BC00
07FC00
03F800
01F000
03F000
03F800
07FC00
0FBE00
0F1E00
1E1F00
3E0F80
3C0780
7C07C0
F803E0
ENDCHAR
STARTCHAR afii10040
ENCODING 1062
SWIDTH 780 0
DWIDTH 22 0
BBX 18 26 3 -6
BITMAP
F01E00
F01E00
F01E00
F01E00
F01E00
F01E00
F01E00
F01E00
F01E00
F01E00
F01E00
F01E00
F01E00
F01E00
F01E00
F01E00
F01E00
FFFFC0
FFFFC0
FFFFC0
0003C0
0003C0
0003C0
0003C0
0003C0
0003C0
ENDCHAR
STARTCHAR afii10041
ENCODING 1063
SWIDTH 728 0
DWIDTH 20 0
BBX 16 20 1 0
BITMAP
F80F
F80F
F80F
F80F
F80F
F80F
F80F
F80F
F80F
7C1F
7FFF
3FFF
1FCF
000F
000F
000F
000F
000F
000F
000F
ENDCHAR
STARTCHAR afii10042
ENCODING 1064
SWIDTH 1078 0
DWIDTH 30 0
BBX 24 20 3 0
BITMAP
F03C0F
F03C0F
F03C0F
F03C0F
F03C0F
F03C0F
F03C0F
F03C0F
F03C0F
F03C0F
F03C0F
F03C0F
F03C0F
F03C0F
F03C0F
F03C0F
F03C0F
FFFFFF
FFFFFF
FFFFFF
ENDCHAR
STARTCHAR afii10043
ENCODING 1065
SWIDTH 1113 0
DWIDTH 31 0
BBX 27 26 3 -6
BITMAP
F03C0F00
F03C0F00
F03C0F00
F03C0F00
F03C0F00
F03C0F00
F03C0F00
F03C0F00
F03C0F00
F03C0F00
F03C0F00
F03C0F00
F03C0F00
F03C0F00
F03C0F00
F03C0F00
F03C0F00
FFFFFFE0
FFFFFFE0
FFFFFFE0
000001E0
000001E0
000001E0
000001E0
000001E0
000001E0
ENDCHAR
STARTCHAR afii10044
ENCODING 1066
SWIDTH 727 0
DWIDTH 20 0
BBX 19 20 0 0
BITMAP
FF8000
FF8000
FF8000
078000
078000
078000
078000
078000
07FC00
07FF80
07FFC0
0787C0
0783E0
0783E0
0783E0
0783E0
0787C0
07FFC0
07FF80
07FC00
ENDCHAR
STARTCHAR afii10045
ENCODING 1067
SWIDTH 905 0
DWIDTH 25 0
BBX 19 20 3 0
BITMAP
F001E0
F001E0
F001E0
F001E0
F001E0
F001E0
F001E0
F001E0
FF81E0
FFE1E0
FFF1E0
F1F1E0
F0F9E0
F079E0
F079E0
F0F9E0
F1F1E0
FFF1E0
FFE1E0
FF81E0
ENDCHAR
STARTCHAR afii10046
ENCODING 1068
SWIDTH 638 0
DWIDTH 18 0
BBX 14 20 3 0
BITMAP
F000
F000
F000
F000
F000
F000
F000
F000
FF80
FFF0
FFF8
F0F8
F07C
F07C
F07C
F07C
F0F8
FFF8
FFF0
FFC0
ENDCHAR
STARTCHAR afii10047
ENCODING 1069
SWIDTH 663 0
DWIDTH 19 0
BBX 16 20 1 0
BITMAP
3FC0
FFF8
7FFC
707E
001E
001F
000F
000F
1FFF
1FFF
1FFF
000F
000F
001F
001F
003E
C07E
FFFC
FFF0
3FC0
ENDCHAR
STARTCHAR afii10048
ENCODING 1070
SWIDTH 1069 0
DWIDTH 30 0
BBX 25 20 3 0
BITMAP
F007F000
F01FFC00
F03FFE00
F07C1F00
F0780F00
F0F80F80
F0F00780
F0F00780
FFF00780
FFF00780
FFF00780
F0F00780
F0F00780
F0F00780
F0F80F80
F0780F00
F07C1F00
F03FFE00
F01FFC00
F007F000
ENDCHAR
STARTCHAR afii10049
ENCODING 1071
SWIDTH 665 0
DWIDTH 19 0
BBX 16 20 0 0
BITMAP
03FF
0FFF
1FFF
3F0F
3E0F
3C0F
3C0F
3E0F
1F0F
0FFF
07FF
07FF
078F
0F8F
1F0F
1E0F
3E0F
7C0F
780F
F80F
ENDCHAR
STARTCHAR afii10065
ENCODING 1072
SWIDTH 604 0
DWIDTH 17 0
BBX 14 15 1 0
BITMAP
0FE0
3FF0
3FF8
187C
003C
003C
0FFC
3FFC
7C3C
F83C
F07C
F8FC
7FFC
7FBC
3F1C
ENDCHAR
STARTCHAR afii10066
ENCODING 1073
SWIDTH 622 0
DWIDTH 17 0
BBX 15 21 1 0
BITMAP
001C
03FC
0FFE
1FFE
3FE0
7C00
7800
79F0
7FF8
FFFC
FC7C
F83E
F83E
F83E
F83E
783E
783C
7C7C
3FF8
1FF0
07E0
ENDCHAR
STARTCHAR afii10067
ENCODING 1074
SWIDTH 639 0
DWIDTH 18 0
BBX 15 15 2 0
BITMAP
FFF0
FFF8
FFFC
F03C
F03C
F03C
FFF8
FFF0
FFFC
F03E
F01E
F03E
FFFC
FFFC
FFF0
ENDCHAR
STARTCHAR afii10068
ENCODING 1075
SWIDTH 478 0
DWIDTH 13 0
BBX 10 15 2 0
BITMAP
FFC0
FFC0
FFC0
F000
F000
F000
F000
F000
F000
F000
F000
F000
F000
F000
F000
ENDCHAR
STARTCHAR afii10069
ENCODING 1076
SWIDTH 664 0
DWIDTH 19 0
BBX 19 20 0 -5
BITMAP
07FF00
07FF00
07FF00
078F00
078F00
0F0F00
0F0F00
0F0F00
1F0F00
1E0F00
1E0F00
3C0F00
FFFFE0
FFFFE0
FFFFE0
F001E0
F001E0
F001E0
F001E0
F001E0
ENDCHAR
STARTCHAR afii10070
ENCODING 1077
SWIDTH 590 0
DWIDTH 17 0
BBX 15 15 1 0
BITMAP
07E0
1FF8
3FF8
7C3C
781C
F81E
FFFE
FFFE
FFFE
F800
7800
7C0C
3FFC
1FFC
07F8
ENDCHAR
STARTCHAR afii10072
ENCODING 1078
SWIDTH 873 0
DWIDTH 24 0
BBX 24 15 0 0
BITMAP
783C1E
3C3C3C
3E3C7C
1E3C78
0F3CF0
07BDE0
07FDE0
03FFC0
07BDE0
0FBCF0
1F3CF8
1E3C78
3C3C3C
7C3C3E
F83C1F
ENDCHAR
STARTCHAR afii10073
ENCODING 1079
SWIDTH 555 0
DWIDTH 16 0
BBX 14 15 1 0
BITMAP
3FC0
FFF0
7FF8
6078
0038
0078
0FF0
0FE0
0FF8
007C
003C
C07C
FFF8
FFF0
7FC0
ENDCHAR
STARTCHAR afii10074
ENCODING 1080
SWIDTH 720 0
DWIDTH 20 0
BBX 16 15 2 0
BITMAP
F03F
F03F
F07F
F07F
F0FF
F1EF
F1EF
F3CF
F78F
F78F
FF0F
FE0F
FE0F
FC0F
FC0F
ENDCHAR
STARTCHAR afii10075
ENCODING 1081
SWIDTH 720 0
DWIDTH 20 0
BBX 16 22 2 0
BITMAP
781E
383C
3E7C
1FF8
0FE0
0000
0000
F03F
F03F
F07F
F07F
F0FF
F1EF
F1EF
F3CF
F78F
F78F
FF0F
FE0F
FE0F
FC0F
FC0F
ENDCHAR
STARTCHAR afii10076
ENCODING 1082
SWIDTH 619 0
DWIDTH 17 0
BBX 15 15 2 0
BITMAP
F07C
F078
F0F0
F1F0
F3E0
F3C0
F780
FF80
F7C0
F3E0
F1E0
F0F0
F0F8
F07C
F03E
ENDCHAR
STARTCHAR afii10077
ENCODING 1083
SWIDTH 645 0
DWIDTH 18 0
BBX 16 15 0 0
BITMAP
0FFF
0FFF
0FFF
0F0F
0F0F
0F0F
0E0F
1E0F
1E0F
1E0F
3E0F
FC0F
FC0F
F80F
F00F
ENDCHAR
STARTCHAR afii10078
ENCODING 1084
SWIDTH 844 0
DWIDTH 24 0
BBX 20 15 2 0
BITMAP
FC03F0
FE07F0
FE07F0
FE07F0
FF0FF0
F70EF0
F79EF0
F79EF0
F39CF0
F3FCF0
F1F8F0
F1F8F0
F1F8F0
F0F0F0
F0F0F0
ENDCHAR
STARTCHAR afii10079
ENCODING 1085
SWIDTH 662 0
DWIDTH 19 0
BBX 15 15 2 0
BITMAP
F01E
F01E
F01E
F01E
F01E
F01E
FFFE
FFFE
FFFE
F01E
F01E
F01E
F01E
F01E
F01E
ENDCHAR
STARTCHAR afii10080
ENCODING 1086
SWIDTH 619 0
DWIDTH 17 0
BBX 15 15 1 0
BITMAP
0FC0
1FF0
3FF8
7C7C
783C
F83E
F83E
F83E
F83E
F83E
783C
7C7C
3FF8
1FF0
0FE0
ENDCHAR
STARTCHAR afii10081
ENCODING 1087
SWIDTH 651 0
DWIDTH 18 0
BBX 14 15 2 0
BITMAP
FFFC
FFFC
FFFC
F03C
F03C
F03C
F03C
F03C
F03C
F03C
F03C
F03C
F03C
F03C
F03C
ENDCHAR
STARTCHAR afii10082
ENCODING 1088
SWIDTH 632 0
DWIDTH 18 0
BBX 15 22 2 -7
BITMAP
F3E0
F7F8
FFFC
FC7C
F83C
F83E
F03E
F03E
F03E
F83E
F83C
FC7C
FFF8
F7F8
F3E0
F000
F000
F000
F000
F000
F000
F000
ENDCHAR
STARTCHAR afii10083
ENCODING 1089
SWIDTH 514 0
DWIDTH 14 0
BBX 12 15 1 0
BITMAP
0FE0
1FF0
3FF0
7C20
7800
F800
F800
F800
F800
F800
7800
7C30
7FF0
3FF0
0FE0
ENDCHAR
STARTCHAR afii10084
ENCODING 1090
SWIDTH 553 0
DWIDTH 15 0
BBX 13 15 1 0
BITMAP
FFF8
FFF8
FFF8
0F80
0F80
0F80
0F80
0F80
0F80
0F80
0F80
0F80
0F80
0F80
0F80
ENDCHAR
STARTCHAR afii10085
ENCODING 1091
SWIDTH 568 0
DWIDTH 16 0
BBX 16 22 0 -7
BITMAP
F81F
781E
781E
7C3E
3C3C
3C3C
1E7C
1E78
1E78
0FF0
0FF0
07F0
07E0
07E0
03E0
03C0
03C0
0780
0F80
7F00
7E00
7C00
ENDCHAR
STARTCHAR afii10086
ENCODING 1092
SWIDTH 813 0
DWIDTH 23 0
BBX 21 28 1 -7
BITMAP
007000
007000
007000
007000
007000
007000
03FE00
1FFF80
3FFFE0
7E73F0
7C71F0
F870F0
F870F8
F870F8
F870F8
F870F0
7C71F0
7E73F0
3FFFE0
0FFFC0
03FE00
007000
007000
007000
007000
007000
007000
007000
ENDCHAR
STARTCHAR afii10087
ENCODING 1093
SWIDTH 578 0
DWIDTH 16 0
BBX 16 15 0 0
BITMAP
781E
7C3E
3E7C
1E78
1FF8
0FF0
07E0
07E0
0FF0
0FF0
1FF8
3E7C
3C3C
7C3E
F81F
ENDCHAR
STARTCHAR afii10088
ENCODING 1094
SWIDTH 687 0
DWIDTH 19 0
BBX 17 20 2 -5
BITMAP
F03C00
F03C00
F03C00
F03C00
F03C00
F03C00
F03C00
F03C00
F03C00
F03C00
F03C00
F03C00
FFFF80
FFFF80
FFFF80
000780
000780
000780
000780
000780
ENDCHAR
STARTCHAR afii10089
ENCODING 1095
SWIDTH 655 0
DWIDTH 18 0
BBX 14 15 2 0
BITMAP
F03C
F03C
F03C
F03C
F03C
F03C
F07C
FFFC
7FFC
3F3C
003C
003C
003C
003C
003C
ENDCHAR
STARTCHAR afii10090
ENCODING 1096
SWIDTH 969 0
DWIDTH 27 0
BBX 23 15 2 0
BITMAP
F07C1E
F07C1E
F07C1E
F07C1E
F07C1E
F07C1E
F07C1E
F07C1E
F07C1E
F07C1E
F07C1E
F07C1E
FFFFFE
FFFFFE
FFFFFE
ENDCHAR
STARTCHAR afii10091
ENCODING 1097
SWIDTH 984 0
DWIDTH 28 0
BBX 25 20 2 -5
BITMAP
F07C1E00
F07C1E00
F07C1E00
F07C1E00
F07C1E00
F07C1E00
F07C1E00
F07C1E00
F07C1E00
F07C1E00
F07C1E00
F07C1E00
FFFFFF80
FFFFFF80
FFFFFF80
00000780
00000780
00000780
00000780
00000780
ENDCHAR
STARTCHAR afii10092
ENCODING 1098
SWIDTH 709 0
DWIDTH 20 0
BBX 19 15 0 0
BITMAP
FF8000
FF8000
FF8000
078000
078000
078000
07FF00
07FFC0
07FFE0
0783E0
0781E0
0783E0
07FFE0
07FFC0
07FF00
ENDCHAR
STARTCHAR afii10093
ENCODING 1099
SWIDTH 850 0
DWIDTH 24 0
BBX 20 15 2 0
BITMAP
F000F0
F000F0
F000F0
F000F0
F000F0
F000F0
FFC0F0
FFF0F0
FFF8F0
F078F0
F078F0
F078F0
FFF8F0
FFF0F0
FFC0F0
ENDCHAR
STARTCHAR afii10094
ENCODING 1100
SWIDTH 613 0
DWIDTH 17 0
BBX 14 15 2 0
BITMAP
F000
F000
F000
F000
F000
F000
FFE0
FFF8
FFFC
F07C
F03C
F07C
FFFC
FFF8
FFE0
ENDCHAR
STARTCHAR afii10095
ENCODING 1101
SWIDTH 512 0
DWIDTH 14 0
BBX 12 15 1 0
BITMAP
3F00
FFC0
7FE0
43E0
01E0
01F0
3FF0
3FF0
3FF0
01F0
01E0
C3E0
FFC0
FFC0
7F00
ENDCHAR
STARTCHAR afii10096
ENCODING 1102
SWIDTH 876 0
DWIDTH 25 0
BBX 22 15 2 0
BITMAP
F01F80
F03FE0
F07FF0
F0F8F8
F0F078
F1F07C
FFE07C
FFE07C
FFE07C
F1F07C
F1F078
F0F8F8
F0FFF0
F07FE0
F01FC0
ENDCHAR
STARTCHAR afii10097
ENCODING 1103
SWIDTH 592 0
DWIDTH 17 0
BBX 15 15 0 0
BITMAP
0FFE
1FFE
3FFE
7C1E
781E
781E
7C1E
3FFE
1FFE
0FFE
0F1E
1E1E
3C1E
7C1E
F81E
ENDCHAR
STARTCHAR uni0450
ENCODING 1104
SWIDTH 590 0
DWIDTH 17 0
BBX 15 21 1 0
BITMAP
1E00
0F00
0780
01C0
0000
0000
07E0
1FF8
3FF8
7C3C
781C
F81E
FFFE
FFFE
FFFE
F800
7800
7C0C
3FFC
1FFC
07F8
ENDCHAR
STARTCHAR afii10071
ENCODING 1105
SWIDTH 590 0
DWIDTH 17 0
BBX 15 21 1 0
BITMAP
0C30
1E78
1E78
1C70
0000
0000
07E0
1FF8
3FF8
7C3C
781C
F81E
FFFE
FFFE
FFFE
F800
7800
7C0C
3FFC
1FFC
07F8
ENDCHAR
STARTCHAR afii10099
ENCODING 1106
SWIDTH 657 0
DWIDTH 18 0
BBX 16 28 0 -7
BITMAP
3C00
3C00
FFC0
FFC0
FFC0
3C00
3CF8
3DFE
3FFE
3F1F
3E1F
3E0F
3E0F
3C0F
3C0F
3C0F
3C0F
3C0F
3C0F
3C0F
3C0F
000F
000F
000F
001F
007E
007E
0078
ENDCHAR
STARTCHAR afii10100
ENCODING 1107
SWIDTH 478 0
DWIDTH 13 0
BBX 11 21 2 0
BITMAP
03E0
0780
0F00
1C00
0000
0000
FFC0
FFC0
FFC0
F000
F000
F000
F000
F000
F000
F000
F000
F000
F000
F000
F000
ENDCHAR
STARTCHAR afii10101
ENCODING 1108
SWIDTH 523 0
DWIDTH 15 0
BBX 13 15 1 0
BITMAP
0FF0
1FF8
3FF0
7C10
7800
F800
FFE0
FFE0
FFE0
F800
7800
7C18
3FF8
1FF8
07F0
ENDCHAR
STARTCHAR afii10102
ENCODING 1109
SWIDTH 497 0
DWIDTH 14 0
BBX 12 15 1 0
BITMAP
1FC0
7FF0
7FE0
F860
F800
FE00
7F80
3FE0
0FF0
01F0
00F0
C1F0
FFE0
FFE0
7F80
ENDCHAR
STARTCHAR afii10103
ENCODING 1110
SWIDTH 305 0
DWIDTH 9 0
BBX 4 21 2 0
BITMAP
70
F0
F0
70
00
00
F0
F0
F0
F0
F0
F0
F0
F0
F0
F0
F0
F0
F0
F0
F0
ENDCHAR
STARTCHAR afii10104
ENCODING 1111
SWIDTH 305 0
DWIDTH 9 0
BBX 9 21 0 0
BITMAP
4100
E380
E380
E380
0000
0000
3C00
3C00
3C00
3C00
3C00
3C00
3C00
3C00
3C00
3C00
3C00
3C00
3C00
3C00
3C00
ENDCHAR
STARTCHAR afii10105
ENCODING 1112
SWIDTH 305 0
DWIDTH 9 0
BBX 8 28 -2 -7
BITMAP
07
0F
0F
07
00
00
0F
0F
0F
0F
0F
0F
0F
0F
0F
0F
0F
0F
0F
0F
0F
0F
0F
0F
0F
FF
FE
FC
ENDCHAR
STARTCHAR afii10106
ENCODING 1113
SWIDTH 888 0
DWIDTH 25 0
BBX 24 15 0 0
BITMAP
0FFE00
0FFE00
0FFE00
0F1E00
0F1E00
0F1E00
0E1FF8
1E1FFE
1E1FFF
1E1E1F
3E1E0F
FC1E1F
FC1FFF
F81FFE
F01FF8
ENDCHAR
STARTCHAR afii10107
ENCODING 1114
SWIDTH 888 0
DWIDTH 25 0
BBX 22 15 2 0
BITMAP
F07800
F07800
F07800
F07800
F07800
F07800
FFFFE0
FFFFF8
FFFFFC
F0787C
F0783C
F0787C
F07FFC
F07FF8
F07FE0
ENDCHAR
STARTCHAR afii10108
ENCODING 1115
SWIDTH 657 0
DWIDTH 18 0
BBX 16 21 0 0
BITMAP
3C00
3C00
FFC0
FFC0
FFC0
3C00
3CF8
3DFE
3FFE
3F1F
3E1F
3E0F
3E0F
3C0F
3C0F
3C0F
3C0F
3C0F
3C0F
3C0F
3C0F
ENDCHAR
STARTCHAR afii10109
ENCODING 1116
SWIDTH 619 0
DWIDTH 17 0
BBX 15 21 2 0
BITMAP
00F8
01E0
03C0
0700
0000
0000
F07C
F078
F0F0
F1F0
F3E0
F3C0
F780
FF80
F7C0
F3E0
F1E0
F0F0
F0F8
F07C
F03E
ENDCHAR
STARTCHAR uni045D
ENCODING 1117
SWIDTH 720 0
DWIDTH 20 0
BBX 16 21 2 0
BITMAP
1F00
0F80
03C0
01C0
0000
0000
F03F
F03F
F07F
F07F
F0FF
F1EF
F1EF
F3CF
F78F
F78F
FF0F
FE0F
FE0F
FC0F
FC0F
ENDCHAR
STARTCHAR afii10110
ENCODING 1118
SWIDTH 568 0
DWIDTH 16 0
BBX 16 29 0 -7
BITMAP
781E
383C
3E7C
1FF8
0FE0
0000
0000
F81F
781E
781E
7C3E
3C3C
3C3C
1E7C
1E78
1E78
0FF0
0FF0
07F0
07E0
07E0
03E0
03C0
03C0
0780
0F80
7F00
7E00
7C00
ENDCHAR
STARTCHAR afii10193
ENCODING 1119
SWIDTH 671 0
DWIDTH 19 0
BBX 15 20 2 -5
BITMAP
F01E
F01E
F01E
F01E
F01E
F01E
F01E
F01E
F01E
F01E
F01E
F01E
FFFE
FFFE
FFFE
0380
0380
0380
0380
0380
ENDCHAR
STARTCHAR uni0460
ENCODING 1120
SWIDTH 1087 0
DWIDTH 30 0
BBX 26 20 2 0
BITMAP
0FC0FC00
1FE1FE00
3FE1FF00
7C408F80
F80007C0
F00003C0
F00003C0
F00003C0
F00003C0
F00003C0
F01E03C0
F01E03C0
F01E03C0
F01E03C0
F81E07C0
781E0780
7E3F0F80
3FFFFF00
1FFFFE00
07E1F800
ENDCHAR
STARTCHAR uni0461
ENCODING 1121
SWIDTH 884 0
DWIDTH 25 0
BBX 24 15 0 0
BITMAP
F87C0F
787C0F
783C0F
7C3E0F
3C3E1F
3C3E1E
3E3E1E
1E7F1E
1E7F3E
0E7F3C
0FF7FC
0FF7F8
07E7F0
07E3F0
07C3E0
ENDCHAR
STARTCHAR uni0462
ENCODING 1122
SWIDTH 672 0
DWIDTH 19 0
BBX 18 21 0 0
BITMAP
1F0000
1F0000
1F0000
FFF800
FFF800
FFF800
1F0000
1F0000
1F0000
1FF800
1FFF00
1FFF80
1F0F80
1F07C0
1F07C0
1F07C0
1F07C0
1F0F80
1FFF80
1FFF00
1FFC00
ENDCHAR
STARTCHAR uni0463
ENCODING 1123
SWIDTH 662 0
DWIDTH 19 0
BBX 18 18 0 0
BITMAP
0F0000
0F0000
0F0000
FFF800
FFF800
FFF800
0F0000
0F0000
0F0000
0FFE00
0FFF80
0FFFC0
0F07C0
0F03C0
0F07C0
0FFFC0
0FFF80
0FFE00
ENDCHAR
STARTCHAR uni0464
ENCODING 1124
SWIDTH 950 0
DWIDTH 27 0
BBX 23 20 3 0
BITMAP
F007F8
F01FFE
F03FFC
F07C1C
F0F800
F1F000
F1E000
F1E000
FFFFF0
FFFFF0
FFFFF0
F1E000
F1E000
F1F000
F1F000
F0F800
F0FC0C
F07FFC
F03FFC
F007F8
ENDCHAR
STARTCHAR uni0465
ENCODING 1125
SWIDTH 799 0
DWIDTH 22 0
BBX 19 15 2 0
BITMAP
F01F80
F07FE0
F0FFC0
F0F840
F0F000
F1F000
FFFF80
FFFF80
FFFF80
F1F000
F0F000
F0F860
F0FFE0
F07FE0
F01FC0
ENDCHAR
STARTCHAR uni0466
ENCODING 1126
SWIDTH 729 0
DWIDTH 20 0
BBX 20 20 0 0
BITMAP
01F800
01F800
01FC00
03DC00
039C00
079E00
078E00
070F00
0FFF00
0FFF00
0FFF80
1EF780
1EF380
3CF3C0
3CF3C0
3CF3C0
78F1E0
78F1E0
78F1E0
F0F0F0
ENDCHAR
STARTCHAR uni0467
ENCODING 1127
SWIDTH 640 0
DWIDTH 18 0
BBX 18 15 0 0
BITMAP
03F000
03F000
07F800
07F800
073800
0F3C00
0E1C00
1FFE00
1FFE00
3FFF00
3DEF00
39E700
79E780
79E780
F1E3C0
ENDCHAR
STARTCHAR uni0468
ENCODING 1128
SWIDTH 1004 0
DWIDTH 28 0
BBX 25 20 3 0
BITMAP
F00FC000
F00FC000
F01FE000
F01FE000
F01CE000
F03CF000
F03CF000
F0387000
FFFFF800
FFFFF800
FFFFF800
F0F7BC00
F0E79C00
F1E79E00
F1E79E00
F1E79E00
F3C78F00
F3C78F00
F3C78F00
F7878780
ENDCHAR
STARTCHAR uni0469
ENCODING 1129
SWIDTH 901 0
DWIDTH 25 0
BBX 23 15 2 0
BITMAP
F01F80
F01F80
F03FC0
F03FC0
F039C0
F079E0
FFFFE0
FFFFF0
FFFFF0
F1EF78
F1EF78
F1CF38
F3CF3C
F3CF3C
F78F1E
ENDCHAR
STARTCHAR uni046A
ENCODING 1130
SWIDTH 804 0
DWIDTH 23 0
BBX 21 20 1 0
BITMAP
7FFFF0
7FFFF0
3FFFE0
1E03C0
0F0780
078F00
03DE00
03FE00
07FF00
0FFF80
1FFFC0
1EFBC0
3CF9E0
3CF9E0
7CF9F0
78F8F0
78F8F0
F8F8F8
F0F878
F0F878
ENDCHAR
STARTCHAR uni046B
ENCODING 1131
SWIDTH 623 0
DWIDTH 17 0
BBX 17 15 0 0
BITMAP
7FFF00
7FFF00
3FFE00
1E3C00
0F7800
07F000
0FF800
1FFC00
1FFC00
3DDE00
39CE00
79CF00
79CF00
71C700
F1C780
ENDCHAR
STARTCHAR uni046C
ENCODING 1132
SWIDTH 1073 0
DWIDTH 30 0
BBX 26 20 3 0
BITMAP
F3FFFF80
F3FFFF80
F1FFFF00
F0F01E00
F0783C00
F07C7800
F03EF000
F01FF000
FFFFF800
FFFFFC00
FFFFFE00
F0F7DE00
F1E7CF00
F1E7CF00
F3E7CF80
F3C7C780
F3C7C780
F7C7C7C0
F787C3C0
F787C3C0
ENDCHAR
STARTCHAR uni046D
ENCODING 1133
SWIDTH 879 0
DWIDTH 25 0
BBX 23 15 2 0
BITMAP
F1FFFC
F1FFFC
F0FFF8
F078F0
F03DE0
FFFFC0
FFFFE0
FFFFF0
F0FFF0
F0F778
F0E738
F1E73C
F1E73C
F1C71C
F3C71E
ENDCHAR
STARTCHAR uni046E
ENCODING 1134
SWIDTH 631 0
DWIDTH 18 0
BBX 16 30 1 -6
BITMAP
3C3C
1E7C
0FF0
07E0
1FF0
FFFC
FFFE
703E
001E
001E
001E
007C
1FF8
1FE0
1FFC
007E
001E
000F
000F
001F
003E
1FFE
7FF8
FFE0
F000
F000
F000
FFF8
7FF8
3FF8
ENDCHAR
STARTCHAR uni046F
ENCODING 1135
SWIDTH 555 0
DWIDTH 16 0
BBX 15 25 0 -6
BITMAP
3C1C
1C7C
0E70
07E0
1FF0
7FF8
3FFC
303C
001C
003C
07F8
07F0
07FC
003E
001E
003E
1FFC
3FF8
7FE0
7000
F000
F000
7FF8
7FF8
1FF8
ENDCHAR
STARTCHAR uni0470
ENCODING 1136
SWIDTH 875 0
DWIDTH 25 0
BBX 23 20 1 0
BITMAP
F0381E
F0381E
F0381E
F0381E
F0381E
F0381E
F0381E
70383C
78383C
78383C
7C387C
3FFFF8
1FFFF0
07FFC0
003800
003800
003800
003800
003800
003800
ENDCHAR
STARTCHAR uni0471
ENCODING 1137
SWIDTH 836 0
DWIDTH 23 0
BBX 20 28 2 -7
BITMAP
00F000
00F000
00F000
00F000
00F000
00F000
F0F1E0
F0F1E0
F0F1E0
F0F1E0
F0F1E0
F0F0E0
F0F0E0
F0F0F0
F0F0E0
F0F1E0
F8F1E0
7CF3E0
7FFFC0
3FFF80
0FFC00
00F000
00F000
00F000
00F000
00F000
00F000
00F000
ENDCHAR
STARTCHAR uni0472
ENCODING 1138
SWIDTH 795 0
DWIDTH 22 0
BBX 18 20 2 0
BITMAP
03F000
1FFE00
3FFF00
7E1F80
780780
F807C0
F003C0
F003C0
FFFFC0
FFFFC0
FFFFC0
F003C0
F003C0
F807C0
F807C0
7C0F80
7E1F80
3FFF00
1FFE00
03F000
ENDCHAR
STARTCHAR uni0473
ENCODING 1139
SWIDTH 619 0
DWIDTH 17 0
BBX 15 15 1 0
BITMAP
0FC0
1FF0
3FF8
7C7C
783C
F83E
FFFE
FFFE
FFFE
F83E
783C
7C7C
3FF8
1FF0
0FE0
ENDCHAR
STARTCHAR uni0474
ENCODING 1140
SWIDTH 716 0
DWIDTH 20 0
BBX 20 20 0 0
BITMAP
F001F0
7803F0
7807F0
780780
3C0F80
3C0F00
3C0F00
1E0F00
1E1E00
1E1E00
0F1E00
0F3C00
0F3C00
073C00
07F800
07F800
03F800
03F000
03F000
01F000
ENDCHAR
STARTCHAR uni0475
ENCODING 1141
SWIDTH 604 0
DWIDTH 17 0
BBX 17 15 0 0
BITMAP
F80780
781F80
781F80
7C1E00
3C3C00
3C3C00
1E7C00
1E7800
1E7800
0FF000
0FF000
07F000
07E000
07E000
03C000
ENDCHAR
STARTCHAR uni0476
ENCODING 1142
SWIDTH 716 0
DWIDTH 20 0
BBX 20 26 0 0
BITMAP
3EF000
1E7800
073800
039C00
000000
000000
F001F0
7803F0
7807F0
780780
3C0F80
3C0F00
3C0F00
1E0F00
1E1E00
1E1E00
0F1E00
0F3C00
0F3C00
073C00
07F800
07F800
03F800
03F000
03F000
01F000
ENDCHAR
STARTCHAR uni0477
ENCODING 1143
SWIDTH 604 0
DWIDTH 17 0
BBX 17 21 0 0
BITMAP
79E000
3CE000
1E7000
063800
000000
000000
F80780
781F80
781F80
7C1E00
3C3C00
3C3C00
1E7C00
1E7800
1E7800
0FF000
0FF000
07F000
07E000
07E000
03C000
ENDCHAR
STARTCHAR uni0478
ENCODING 1144
SWIDTH 1318 0
DWIDTH 37 0
BBX 35 27 2 -7
BITMAP
07F0000000
1FFC000000
3FFE000000
7C1F000000
780F800000
F80F9F03E0
F0078F03C0
F0078F03C0
F0078F87C0
F007C78780
F007C78780
F00783CF80
F00783CF00
F00783CF00
F80F81FE00
780F81FE00
7C1F00FE00
3FFE00FC00
1FFC00FC00
07F0007C00
0000007800
0000007800
000000F000
000001F000
00000FE000
00000FC000
00000F8000
ENDCHAR
STARTCHAR uni0479
ENCODING 1145
SWIDTH 1145 0
DWIDTH 32 0
BBX 31 22 1 -7
BITMAP
07E1F03E
1FF0F03C
3FF8F03C
7C7CF87C
783C7878
F83E7878
F81E3CF8
F81E3CF0
F81E3CF0
F83E1FE0
783C1FE0
7C7C0FE0
3FF80FC0
1FF00FC0
07E007C0
00000780
00000780
00000F00
00001F00
0000FE00
0000FC00
0000F800
ENDCHAR
STARTCHAR uni047A
ENCODING 1146
SWIDTH 835 0
DWIDTH 23 0
BBX 19 23 2 -2
BITMAP
00E000
07FC00
1FFF00
3FFF80
7EEFC0
7803C0
F803E0
F001E0
F001E0
F001E0
F001E0
F001E0
F001E0
F001E0
F001E0
F803E0
7803C0
7EEFC0
3FFF80
1FFF00
07FC00
00E000
004000
ENDCHAR
STARTCHAR uni047B
ENCODING 1147
SWIDTH 679 0
DWIDTH 19 0
BBX 17 18 1 -2
BITMAP
01C000
07F000
1FFC00
3FFE00
7DDF00
780F00
F80F80
F80F80
F80F80
F80F80
F80F80
780F00
7DDF00
3FFE00
1FFC00
07F000
01C000
008000
ENDCHAR
STARTCHAR uni047C
ENCODING 1148
SWIDTH 1087 0
DWIDTH 30 0
BBX 26 30 2 0
BITMAP
007C0000
00FFE000
00FFE000
01C3E000
001C0000
001E0000
001E0000
00060000
000C0000
00180000
0FC0FC00
1FE1FE00
3FE1FF00
7C408F80
F80007C0
F00003C0
F00003C0
F00003C0
F00003C0
F00003C0
F00003C0
F00003C0
F00003C0
F00003C0
F80007C0
780C0780
7C3F0F80
3FFFFF00
1FFFFE00
07E1F800
ENDCHAR
STARTCHAR uni047D
ENCODING 1149
SWIDTH 890 0
DWIDTH 25 0
BBX 23 25 1 0
BITMAP
01F800
03FF80
03FF80
038780
003800
007C00
001C00
003800
007000
000000
0FC7E0
3FC7F8
7FC7FC
7C007C
78003C
F8003E
F8003E
F8003E
F8003E
F8003E
78103C
7C387C
3FFFF8
3FFFF8
0FC7E0
ENDCHAR
STARTCHAR uni047E
ENCODING 1150
SWIDTH 1087 0
DWIDTH 30 0
BBX 26 25 2 0
BITMAP
01FFE000
01FFE000
00CCC000
00804000
00000000
0FC0FC00
1FE1FE00
3FE1FF00
7C408F80
F80007C0
F00003C0
F00003C0
F00003C0
F00003C0
F00003C0
F01E03C0
F01E03C0
F01E03C0
F01E03C0
F81E07C0
781E0780
7E3F0F80
3FFFFF00
1FFFFE00
07E1F800
ENDCHAR
STARTCHAR uni047F
ENCODING 1151
SWIDTH 884 0
DWIDTH 25 0
BBX 24 19 0 0
BITMAP
03FFC0
01FFC0
019980
010080
F8780F
787C0F
783C0F
7C3C0F
3C3E1F
3C3E1E
1E3E1E
1E7F1E
1E7F3E
0E7F3C
0FF7FC
0FF7F8
07E7F0
07E3E0
03C3E0
ENDCHAR
STARTCHAR uni0480
ENCODING 1152
SWIDTH 676 0
DWIDTH 19 0
BBX 16 27 2 -7
BITMAP
03FC
0FFF
1FFE
3E0E
7C00
F800
F800
F000
F000
F000
F000
F000
F000
F000
F800
7C00
7E00
3FFC
0FFC
03FC
003C
003C
003C
003C
003C
003C
003C
ENDCHAR
STARTCHAR uni0481
ENCODING 1153
SWIDTH 523 0
DWIDTH 15 0
BBX 13 22 1 -7
BITMAP
0FF0
1FF8
3FF0
7C10
7800
F800
F800
F800
F800
F800
7800
7C00
3FF0
1FF0
07F0
01F0
01F0
01F0
01F0
01F0
01F0
01F0
ENDCHAR
STARTCHAR uni0482
ENCODING 1154
SWIDTH 608 0
DWIDTH 17 0
BBX 13 18 2 0
BITMAP
0020
0030
0860
1EE0
0FC0
03C0
01F0
03F8
0318
C600
FE00
7C00
1E00
1F80
3BC0
3080
6000
2000
ENDCHAR
STARTCHAR uni0483
ENCODING 1155
SWIDTH 557 0
DWIDTH 16 0
BBX 10 4 3 16
BITMAP
01C0
FFC0
FFC0
C000
ENDCHAR
STARTCHAR uni0484
ENCODING 1156
SWIDTH 577 0
DWIDTH 16 0
BBX 11 4 3 17
BITMAP
07C0
FFE0
FFE0
F0E0
ENDCHAR
STARTCHAR uni0485
ENCODING 1157
SWIDTH 577 0
DWIDTH 16 0
BBX 4 6 6 17
BITMAP
70
F0
F0
E0
70
30
ENDCHAR
STARTCHAR uni0486
ENCODING 1158
SWIDTH 577 0
DWIDTH 16 0
BBX 4 6 6 17
BITMAP
70
F0
70
30
70
C0
ENDCHAR
STARTCHAR uni0488
ENCODING 1160
SWIDTH 988 0
DWIDTH 28 0
BBX 26 23 1 -4
BITMAP
001E0000
00230000
00000000
00000000
1E001E00
23002300
00000000
00000000
00000000
00000000
F80007C0
88000440
00000000
00000000
00000000
00000000
00000000
1E001E00
23002300
00000000
00000000
001E0000
00230000
ENDCHAR
STARTCHAR uni0489
ENCODING 1161
SWIDTH 956 0
DWIDTH 27 0
BBX 25 26 1 -5
BITMAP
00040000
000C0000
000C0000
08180000
08180400
0C001C00
0E007800
06002000
00000000
00000000
00000000
00000000
F0000700
70000780
00000000
00000000
00000000
00000000
00001000
06003000
0E001800
180C1800
000C0800
00180000
00180000
00100000
ENDCHAR
STARTCHAR uni048A
ENCODING 1162
SWIDTH 916 0
DWIDTH 26 0
BBX 22 33 3 -6
BITMAP
3C1E00
3C1E00
3E3C00
1FFC00
07F000
000000
000000
E00F80
E01F80
E01F80
E03F80
E03F80
E07B80
E0FB80
E0F380
E1F380
E1E380
E3C380
E7C380
E78380
EF8380
EF0380
FE0380
FE0380
FC03FC
FC03FC
F803F8
000078
000078
0000F8
0000F0
0000F0
0001F0
ENDCHAR
STARTCHAR uni048B
ENCODING 1163
SWIDTH 801 0
DWIDTH 22 0
BBX 20 27 2 -5
BITMAP
781E00
383C00
3E7C00
1FF800
0FE000
000000
000000
F03F00
F03F00
F07F00
F07F00
F0FF00
F1EF00
F1EF00
F3CF00
F78F00
F78F00
FF0F00
FE0F00
FE0FF0
FC0FF0
FC0FE0
0000E0
0001E0
0001E0
0003C0
0003C0
ENDCHAR
STARTCHAR uni048C
ENCODING 1164
SWIDTH 616 0
DWIDTH 17 0
BBX 15 20 1 0
BITMAP
3C00
3C00
FFC0
FFC0
FFC0
3C00
3C00
3C00
3FE0
3FF8
3FFC
3C3E
3C1E
3C1E
3C1E
3C1E
3C3E
3FFC
3FF8
3FE0
ENDCHAR
STARTCHAR uni048D
ENCODING 1165
SWIDTH 613 0
DWIDTH 17 0
BBX 16 21 0 0
BITMAP
3C00
3C00
3C00
FFE0
FFE0
FFE0
3C00
3C00
3C00
3C00
3C00
3C00
3FF8
3FFE
3FFF
3C1F
3C0F
3C1F
3FFF
3FFE
3FF8
ENDCHAR
STARTCHAR uni048E
ENCODING 1166
SWIDTH 627 0
DWIDTH 18 0
BBX 14 20 3 0
BITMAP
FFC0
FFF0
FFF8
F0F8
F07C
F07C
F07C
F17C
F3F8
F3F8
FFF0
FFE0
FFF0
F070
F020
F000
F000
F000
F000
F000
ENDCHAR
STARTCHAR uni048F
ENCODING 1167
SWIDTH 632 0
DWIDTH 18 0
BBX 15 22 2 -7
BITMAP
F3E0
F7F8
FFFC
FC7C
F83C
F83E
F03E
F03E
F03E
F8FE
F9FC
FCFC
FFFC
F7F8
F3FC
F018
F000
F000
F000
F000
F000
F000
ENDCHAR
STARTCHAR afii10050
ENCODING 1168
SWIDTH 581 0
DWIDTH 16 0
BBX 12 24 3 0
BITMAP
0070
0070
0070
0070
FFF0
FFF0
FFF0
F000
F000
F000
F000
F000
F000
F000
F000
F000
F000
F000
F000
F000
F000
F000
F000
F000
ENDCHAR
STARTCHAR afii10098
ENCODING 1169
SWIDTH 512 0
DWIDTH 14 0
BBX 11 19 2 0
BITMAP
01E0
01E0
01E0
01E0
FFE0
FFE0
FFE0
F000
F000
F000
F000
F000
F000
F000
F000
F000
F000
F000
F000
ENDCHAR
STARTCHAR uni0492
ENCODING 1170
SWIDTH 559 0
DWIDTH 16 0
BBX 14 20 1 0
BITMAP
3FFC
3FFC
3FFC
3C00
3C00
3C00
3C00
3C00
FFE0
FFE0
FFE0
3C00
3C00
3C00
3C00
3C00
3C00
3C00
3C00
3C00
ENDCHAR
STARTCHAR uni0493
ENCODING 1171
SWIDTH 491 0
DWIDTH 14 0
BBX 13 15 0 0
BITMAP
3FF8
3FF8
3FF8
3C00
3C00
3C00
FFE0
FFE0
FFE0
3C00
3C00
3C00
3C00
3C00
3C00
ENDCHAR
STARTCHAR uni0494
ENCODING 1172
SWIDTH 733 0
DWIDTH 21 0
BBX 17 27 3 -7
BITMAP
FFF000
FFF000
FFF000
F00000
F00000
F00000
F00000
F00000
F00000
FFE000
FFF800
FFFC00
F07E00
F01F00
F00F00
F00F00
F00F00
F00F80
F00F80
F00F80
000F00
000F00
001F00
083E00
0FFE00
0FF800
0FF000
ENDCHAR
STARTCHAR uni0495
ENCODING 1173
SWIDTH 602 0
DWIDTH 17 0
BBX 14 22 2 -7
BITMAP
FFE0
FFE0
FFE0
F000
F000
F000
FF80
FFE0
FFF0
FFF8
F0F8
F07C
F03C
F03C
F03C
003C
007C
0078
0FF8
0FF0
0FF0
0FC0
ENDCHAR
STARTCHAR uni0496
ENCODING 1174
SWIDTH 1028 0
DWIDTH 29 0
BBX 28 26 0 -6
BITMAP
781E0780
7C1E0F80
3C1E0F00
1E1E1E00
1F1E3E00
0F1E3C00
079E7800
07DEF800
03DEF000
01FFE000
03FFF000
03DEF000
079E7800
0F9E7800
0F1E3C00
1E1E1E00
3E1E1E00
3C1E0FF0
7C1E0FF0
F81E07F0
000000F0
000000F0
000000F0
000000F0
000000F0
000000F0
ENDCHAR
STARTCHAR uni0497
ENCODING 1175
SWIDTH 941 0
DWIDTH 26 0
BBX 25 20 0 -5
BITMAP
783C1E00
3C3C3C00
3E3C7C00
1E3C7800
0F3CF000
07BDE000
07FDE000
03FFC000
07BDE000
0FBCF000
1F3CF800
1E3C7800
3C3C3F80
7C3C3F80
F83C1F80
00000780
00000780
00000780
00000780
00000780
ENDCHAR
STARTCHAR uni0498
ENCODING 1176
SWIDTH 647 0
DWIDTH 18 0
BBX 16 27 1 -7
BITMAP
0FF0
7FFC
7FFC
783E
001E
001E
001E
007C
1FF8
1FE0
1FFC
007E
001E
000F
000F
001F
E03E
FFFE
FFF8
3FE0
0380
01C0
01C0
00C0
07C0
07C0
0780
ENDCHAR
STARTCHAR uni0499
ENCODING 1177
SWIDTH 555 0
DWIDTH 16 0
BBX 14 22 1 -7
BITMAP
3FC0
FFF0
7FF8
6078
0038
0078
0FF0
0FE0
0FF8
007C
003C
C07C
FFF8
FFF0
7FC0
0600
0700
0380
0380
1F80
1F80
1E00
ENDCHAR
STARTCHAR uni049A
ENCODING 1178
SWIDTH 755 0
DWIDTH 21 0
BBX 18 26 3 -6
BITMAP
F01E00
F03C00
F07C00
F0F800
F0F000
F1E000
F3E000
F7C000
F78000
FF0000
FF8000
F78000
F3C000
F3E000
F1F000
F0F000
F07800
F07FC0
F03FC0
F01FC0
0003C0
0003C0
0003C0
0003C0
0003C0
0003C0
ENDCHAR
STARTCHAR uni049B
ENCODING 1179
SWIDTH 665 0
DWIDTH 19 0
BBX 16 20 2 -5
BITMAP
F07C
F078
F0F0
F1F0
F3E0
F3C0
F780
FF80
F7C0
F3E0
F1E0
F0F0
F0FF
F07F
F03F
000F
000F
000F
000F
000F
ENDCHAR
STARTCHAR uni049C
ENCODING 1180
SWIDTH 664 0
DWIDTH 19 0
BBX 16 20 3 0
BITMAP
F01F
F03E
F27C
F2F8
F3F0
F3E0
F3E0
F7C0
FF80
FF80
FFC0
FFC0
F3E0
F3F0
F3F0
F2F8
F27C
F07C
F03E
F01F
ENDCHAR
STARTCHAR uni049D
ENCODING 1181
SWIDTH 599 0
DWIDTH 17 0
BBX 15 15 2 0
BITMAP
F03C
F678
F6F0
F7E0
F7E0
F7C0
F780
FF00
F780
F7C0
F7E0
F7F0
F6F8
F67C
F03E
ENDCHAR
STARTCHAR uni049E
ENCODING 1182
SWIDTH 643 0
DWIDTH 18 0
BBX 18 20 0 0
BITMAP
3C07C0
3C0F80
FF1F00
FF3E00
FF3C00
3C7C00
3CF800
3DF000
3DE000
3FE000
3FF000
3FF800
3E7800
3C7C00
3C3E00
3C3E00
3C1F00
3C0F00
3C0F80
3C07C0
ENDCHAR
STARTCHAR uni049F
ENCODING 1183
SWIDTH 620 0
DWIDTH 17 0
BBX 17 21 0 0
BITMAP
3C0000
3C0000
FFC000
FFC000
FFC000
3C0000
3C1F00
3C1E00
3C3C00
3C7C00
3CF800
3DF000
3FE000
3FF000
3FF000
3EF800
3C7C00
3C3C00
3C3E00
3C1F00
3C0F80
ENDCHAR
STARTCHAR uni04A0
ENCODING 1184
SWIDTH 732 0
DWIDTH 21 0
BBX 21 20 0 0
BITMAP
FF80F8
FF81F0
FF83E0
0787C0
078F80
078F00
079F00
07BE00
07FC00
07FC00
07FE00
07FE00
079F00
078F80
078780
0787C0
0783E0
0781E0
0781F0
0780F8
ENDCHAR
STARTCHAR uni04A1
ENCODING 1185
SWIDTH 694 0
DWIDTH 19 0
BBX 19 15 0 0
BITMAP
FF03C0
FF0780
FF0F00
0F1E00
0F3E00
0F3C00
0F7800
0FF000
0F7800
0F3C00
0F1E00
0F0F00
0F0F80
0F07C0
0F03E0
ENDCHAR
STARTCHAR uni04A2
ENCODING 1186
SWIDTH 840 0
DWIDTH 24 0
BBX 20 26 3 -6
BITMAP
F01E00
F01E00
F01E00
F01E00
F01E00
F01E00
F01E00
F01E00
FFFE00
FFFE00
FFFE00
F01E00
F01E00
F01E00
F01E00
F01E00
F01E00
F01FF0
F01FF0
F01FF0
0001F0
0001F0
0001F0
0001F0
0001F0
0001F0
ENDCHAR
STARTCHAR uni04A3
ENCODING 1187
SWIDTH 743 0
DWIDTH 21 0
BBX 19 20 2 -5
BITMAP
F01E00
F01E00
F01E00
F01E00
F01E00
F01E00
FFFE00
FFFE00
FFFE00
F01E00
F01E00
F01E00
F01FE0
F01FE0
F01FE0
0001E0
0001E0
0001E0
0001E0
0001E0
ENDCHAR
STARTCHAR uni04A4
ENCODING 1188
SWIDTH 833 0
DWIDTH 23 0
BBX 20 20 3 0
BITMAP
F01FF0
F01FF0
F01FF0
F01E00
F01E00
F01E00
F01E00
F01E00
FFFE00
FFFE00
FFFE00
F01E00
F01E00
F01E00
F01E00
F01E00
F01E00
F01E00
F01E00
F01E00
ENDCHAR
STARTCHAR uni04A5
ENCODING 1189
SWIDTH 757 0
DWIDTH 21 0
BBX 19 15 2 0
BITMAP
F01FE0
F01FE0
F01FE0
F01E00
F01E00
F01E00
FFFE00
FFFE00
FFFE00
F01E00
F01E00
F01E00
F01E00
F01E00
F01E00
ENDCHAR
STARTCHAR uni04A6
ENCODING 1190
SWIDTH 1125 0
DWIDTH 32 0
BBX 28 27 3 -7
BITMAP
FFFE0000
FFFE0000
FFFE0000
F01E0000
F01E0000
F01E0000
F01E0000
F01E0000
F01E0000
F01FFC00
F01FFF00
F01FFF80
F01E0FC0
F01E03E0
F01E01E0
F01E01E0
F01E01E0
F01E01F0
F01E01F0
F01E01F0
000001E0
000001E0
000003E0
000007C0
0000FFC0
0000FF80
0000FE00
ENDCHAR
STARTCHAR uni04A7
ENCODING 1191
SWIDTH 889 0
DWIDTH 25 0
BBX 22 22 2 -7
BITMAP
FFFC00
FFFC00
FFFC00
F03C00
F03C00
F03C00
F03FC0
F03FE0
F03FF0
F03FF8
F03CF8
F03C7C
F03C3C
F03C3C
F03C3C
00003C
00007C
00007C
000FF8
000FF0
000FF0
000FC0
ENDCHAR
STARTCHAR uni04A8
ENCODING 1192
SWIDTH 776 0
DWIDTH 22 0
BBX 19 21 2 -1
BITMAP
07F000
1FF000
3FE000
7C0000
780000
F81F00
F07F80
F0FFC0
F0F3C0
F0F1C0
F0F1E0
F0F1E0
F0F1C0
F0F3C0
F8F3C0
7C7F80
7E7F80
3FFF00
1FFFE0
03FFE0
0003E0
ENDCHAR
STARTCHAR uni04A9
ENCODING 1193
SWIDTH 655 0
DWIDTH 18 0
BBX 16 16 1 -1
BITMAP
0FC0
1FC0
3F80
7C00
7878
F8FE
F9FE
F1CF
F1CF
F9CF
79EE
7DFE
3FFC
1FFF
0FFF
000F
ENDCHAR
STARTCHAR uni04AA
ENCODING 1194
SWIDTH 637 0
DWIDTH 18 0
BBX 15 27 2 -7
BITMAP
03F8
0FFE
3FFC
7E0C
7C00
F800
F000
F000
F000
F000
F000
F000
F000
F000
F800
7800
7E0C
3FFC
1FFC
07F8
01C0
00E0
0060
0070
03F0
03E0
03C0
ENDCHAR
STARTCHAR uni04AB
ENCODING 1195
SWIDTH 514 0
DWIDTH 14 0
BBX 12 22 1 -7
BITMAP
0FE0
1FF0
3FF0
7C20
7800
F800
F800
F800
F800
F800
7800
7C30
7FF0
3FF0
0FE0
0380
01C0
01C0
00C0
07C0
07C0
0780
ENDCHAR
STARTCHAR uni04AC
ENCODING 1196
SWIDTH 579 0
DWIDTH 16 0
BBX 16 26 0 -6
BITMAP
FFFF
FFFF
FFFF
03C0
03C0
03C0
03C0
03C0
03C0
03C0
03C0
03C0
03C0
03C0
03C0
03C0
03C0
03FC
03FC
03FC
003C
003C
003C
003C
003C
003C
ENDCHAR
STARTCHAR uni04AD
ENCODING 1197
SWIDTH 549 0
DWIDTH 15 0
BBX 13 20 1 -5
BITMAP
FFF8
FFF8
FFF8
0780
0780
0780
0780
0780
0780
0780
0780
0780
07F0
07F0
07F0
0070
0070
0070
0070
0070
ENDCHAR
STARTCHAR uni04AE
ENCODING 1198
SWIDTH 624 0
DWIDTH 17 0
BBX 17 20 0 0
BITMAP
F80F80
780F80
7C1F00
3C1E00
3E3E00
1E3C00
1F7C00
0F7800
0FF800
07F000
07F000
03E000
03E000
03E000
03E000
03E000
03E000
03E000
03E000
03E000
ENDCHAR
STARTCHAR uni04AF
ENCODING 1199
SWIDTH 574 0
DWIDTH 16 0
BBX 16 22 0 -7
BITMAP
F81F
781E
781E
7C3E
3C3C
3E7C
1E78
1E78
1EF8
0FF0
0FF0
07E0
07E0
07E0
03C0
03C0
03C0
03C0
03C0
03C0
03C0
03C0
ENDCHAR
STARTCHAR uni04B0
ENCODING 1200
SWIDTH 624 0
DWIDTH 17 0
BBX 17 20 0 0
BITMAP
F80F80
780F00
7C1F00
3C1E00
3E3E00
1E3C00
1F7C00
0F7800
0FF800
07F000
07F000
03E000
03E000
3FFE00
3FFE00
3FFE00
03E000
03E000
03E000
03E000
ENDCHAR
STARTCHAR uni04B1
ENCODING 1201
SWIDTH 574 0
DWIDTH 16 0
BBX 16 22 0 -7
BITMAP
F81F
781E
781E
7C3E
3C3C
3E7C
1E78
1E78
1EF8
0FF0
0FF0
07E0
07E0
07E0
03C0
3FFC
3FFC
3FFC
03C0
03C0
03C0
03C0
ENDCHAR
STARTCHAR uni04B2
ENCODING 1202
SWIDTH 743 0
DWIDTH 21 0
BBX 21 26 0 -6
BITMAP
7803C0
7C07C0
3E0F80
1E0F00
1F1F00
0F9E00
07BC00
07FC00
03F800
01F000
03F000
03F800
07FC00
0FBC00
0F1E00
1E1F00
3E0F00
3C07F8
7C07F8
F803F8
0000F8
0000F8
0000F8
0000F8
0000F8
0000F8
ENDCHAR
STARTCHAR uni04B3
ENCODING 1203
SWIDTH 640 0
DWIDTH 18 0
BBX 17 20 0 -5
BITMAP
781E00
7C3E00
3E7C00
1E7800
1FF800
0FF000
07E000
07E000
0FE000
0FF000
1FF800
3E7C00
3C3F80
7C3F80
F81F80
000380
000380
000380
000380
000380
ENDCHAR
STARTCHAR uni04B4
ENCODING 1204
SWIDTH 930 0
DWIDTH 26 0
BBX 24 26 1 -6
BITMAP
FFFCF0
FFFCF0
FFFCF0
0780F0
0780F0
0780F0
0780F0
0780F0
0780F0
0780F0
0780F0
0780F0
0780F0
0780F0
0780F0
0780F0
0780FF
07FFFF
07FFFF
07FFFF
00000F
00000F
00000F
00000F
00000F
00000F
ENDCHAR
STARTCHAR uni04B5
ENCODING 1205
SWIDTH 791 0
DWIDTH 22 0
BBX 21 20 1 -5
BITMAP
FFE780
FFE780
FFE780
1E0780
1E0780
1E0780
1E0780
1E0780
1E0780
1E0780
1E0780
1E0780
1FFFF8
1FFFF8
1FFFF8
000078
000078
000078
000078
000078
ENDCHAR
STARTCHAR uni04B6
ENCODING 1206
SWIDTH 804 0
DWIDTH 23 0
BBX 21 26 1 -6
BITMAP
F80F00
F80F00
F80F00
F80F00
F80F00
F80F00
F80F00
F80F00
F80F00
7C1F00
7FFF00
3FFF00
1FCF00
000F00
000F00
000F00
000F00
000FF8
000FF8
000FF8
0000F8
0000F8
0000F8
0000F8
0000F8
0000F8
ENDCHAR
STARTCHAR uni04B7
ENCODING 1207
SWIDTH 726 0
DWIDTH 20 0
BBX 18 20 2 -5
BITMAP
F03C00
F03C00
F03C00
F03C00
F03C00
F03C00
F07C00
FFFC00
7FFC00
3F3C00
003C00
003C00
003FC0
003FC0
003FC0
0003C0
0003C0
0003C0
0003C0
0003C0
ENDCHAR
STARTCHAR uni04B8
ENCODING 1208
SWIDTH 728 0
DWIDTH 20 0
BBX 16 20 1 0
BITMAP
F80F
F80F
F80F
F80F
F80F
F98F
F98F
F98F
F98F
7D9F
7FFF
3FFF
1FCF
018F
018F
018F
018F
000F
000F
000F
ENDCHAR
STARTCHAR uni04B9
ENCODING 1209
SWIDTH 655 0
DWIDTH 18 0
BBX 14 15 2 0
BITMAP
F03C
F03C
F03C
F03C
F33C
F33C
F37C
FFFC
7FFC
3F3C
033C
033C
033C
003C
003C
ENDCHAR
STARTCHAR uni04BA
ENCODING 1210
SWIDTH 728 0
DWIDTH 20 0
BBX 16 20 3 0
BITMAP
F000
F000
F000
F000
F000
F000
F3F0
FFFC
FFFE
FC3E
F01E
F01F
F01F
F01F
F01F
F01F
F01F
F01F
F01F
F01F
ENDCHAR
STARTCHAR uni04BB
ENCODING 1211
SWIDTH 666 0
DWIDTH 19 0
BBX 15 15 2 0
BITMAP
F000
F000
F000
F000
F000
F3F0
FFFC
FFFE
FC3E
F01E
F01E
F01E
F01E
F01E
F01E
ENDCHAR
STARTCHAR uni04BC
ENCODING 1212
SWIDTH 948 0
DWIDTH 27 0
BBX 25 20 0 0
BITMAP
001FE000
007FF800
00FFFC00
01F83E00
01E01F00
73E00F00
F3C00F00
F3C00F80
FFFFFF80
7FFFFF80
3FFFFF80
07C00000
03C00000
03C00000
03E00000
01E00300
01F81F00
00FFFF00
007FFE00
000FF000
ENDCHAR
STARTCHAR uni04BD
ENCODING 1213
SWIDTH 714 0
DWIDTH 20 0
BBX 19 15 0 0
BITMAP
007E00
01FF80
03FFC0
67C3C0
E781C0
E781E0
FFFFE0
FFFFE0
3FFFE0
078000
078000
07C0C0
03FFC0
01FFC0
007F80
ENDCHAR
STARTCHAR uni04BE
ENCODING 1214
SWIDTH 948 0
DWIDTH 27 0
BBX 25 26 0 -6
BITMAP
001FE000
007FF800
00FFFC00
01F83E00
01E01F00
73E00F00
F3C00F00
F3C00F80
FFFFFF80
7FFFFF80
3FFFFF80
07C00000
03C00000
03C00000
03E00000
01E00300
01F81F00
00FFFF00
007FFE00
001FF800
00078000
00078000
00078000
00078000
00078000
00078000
ENDCHAR
STARTCHAR uni04BF
ENCODING 1215
SWIDTH 714 0
DWIDTH 20 0
BBX 19 20 0 -5
BITMAP
007E00
01FF80
03FFC0
67C3C0
E781C0
E781E0
FFFFE0
FFFFE0
3FFFE0
078000
078000
07C0C0
03FFC0
01FFC0
007F80
003C00
003C00
003C00
003C00
003C00
ENDCHAR
STARTCHAR uni04C0
ENCODING 1216
SWIDTH 331 0
DWIDTH 9 0
BBX 5 20 2 0
BITMAP
F8
F8
F8
F8
F8
F8
F8
F8
F8
F8
F8
F8
F8
F8
F8
F8
F8
F8
F8
F8
ENDCHAR
STARTCHAR uni04C1
ENCODING 1217
SWIDTH 942 0
DWIDTH 26 0
BBX 26 27 0 0
BITMAP
01C0F000
01E0E000
01F3E000
00FFC000
007F8000
00000000
00000000
781E0780
7C1E0F80
3C1E0F00
1E1E1E00
1F1E3E00
0F1E3C00
079E7800
07DEF800
03DEF000
01FFE000
03FFF000
03DEF000
079E7800
0F9E7C00
0F1E3C00
1E1E1E00
3E1E1F00
3C1E0F00
7C1E0F80
F81E07C0
ENDCHAR
STARTCHAR uni04C2
ENCODING 1218
SWIDTH 873 0
DWIDTH 24 0
BBX 24 22 0 0
BITMAP
0381E0
03C1C0
03E7C0
01FF80
007E00
000000
000000
783C1E
3C3C3C
3E3C7C
1E3C78
0F3CF0
07BDE0
07FDE0
03FFC0
07BDE0
0FBCF0
1F3CF8
1E3C78
3C3C3C
7C3C3E
F83C1F
ENDCHAR
STARTCHAR uni04C3
ENCODING 1219
SWIDTH 759 0
DWIDTH 21 0
BBX 17 27 3 -7
BITMAP
F03E00
F03C00
F07800
F0F800
F1F000
F3E000
F3C000
F78000
FF0000
FFE000
FFF800
FFFC00
F07E00
F01F00
F00F00
F00F00
F00F80
F00F80
F00F80
F00F00
000F00
000F00
001F00
043E00
07FE00
07FC00
07F000
ENDCHAR
STARTCHAR uni04C4
ENCODING 1220
SWIDTH 661 0
DWIDTH 19 0
BBX 16 22 2 -7
BITMAP
F03E
F07C
F0F8
F0F0
F1E0
F3C0
F780
FFF0
FFF8
FFFC
F03E
F01E
F00F
F00F
F00F
000F
001F
043E
07FE
07FC
07F8
03F0
ENDCHAR
STARTCHAR uni04C5
ENCODING 1221
SWIDTH 837 0
DWIDTH 23 0
BBX 23 26 0 -6
BITMAP
03FFC0
03FFC0
07FFC0
0783C0
0783C0
0783C0
0783C0
0783C0
0783C0
0F03C0
0F03C0
0F03C0
0F03C0
0F03C0
0F03C0
1E03C0
1E03C0
FE03FE
FC03FE
F803FC
00003C
00003C
00007C
000078
000078
0000F8
ENDCHAR
STARTCHAR uni04C6
ENCODING 1222
SWIDTH 727 0
DWIDTH 20 0
BBX 20 20 0 -5
BITMAP
0FFF00
0FFF00
0FFF00
0F0F00
0F0F00
0F0F00
0E0F00
1E0F00
1E0F00
1E0F00
3E0F00
FC0F00
FC0FF0
F80FF0
F00FE0
0000E0
0001E0
0001E0
0003C0
0003C0
ENDCHAR
STARTCHAR uni04C7
ENCODING 1223
SWIDTH 765 0
DWIDTH 21 0
BBX 15 27 3 -7
BITMAP
F01E
F01E
F01E
F01E
F01E
F01E
F01E
F01E
FFFE
FFFE
FFFE
F01E
F01E
F01E
F01E
F01E
F01E
F01E
F01E
F01E
001E
001E
003E
007C
0FFC
0FF8
0FE0
ENDCHAR
STARTCHAR uni04C8
ENCODING 1224
SWIDTH 662 0
DWIDTH 19 0
BBX 15 22 2 -7
BITMAP
F01E
F01E
F01E
F01E
F01E
F01E
FFFE
FFFE
FFFE
F01E
F01E
F01E
F01E
F01E
F01E
003E
003E
087C
0FFC
0FFC
0FF8
07E0
ENDCHAR
STARTCHAR uni04C9
ENCODING 1225
SWIDTH 857 0
DWIDTH 24 0
BBX 20 26 3 -6
BITMAP
F01E00
F01E00
F01E00
F01E00
F01E00
F01E00
F01E00
F01E00
FFFE00
FFFE00
FFFE00
F01E00
F01E00
F01E00
F01E00
F01E00
F01E00
F01FF0
F01FF0
F01FE0
0001E0
0001E0
0003E0
0003C0
0003C0
0007C0
ENDCHAR
STARTCHAR uni04CA
ENCODING 1226
SWIDTH 744 0
DWIDTH 21 0
BBX 19 20 2 -5
BITMAP
F01E00
F01E00
F01E00
F01E00
F01E00
F01E00
FFFE00
FFFE00
FFFE00
F01E00
F01E00
F01E00
F01FE0
F01FE0
F01FC0
0001C0
0003C0
0003C0
000780
000780
ENDCHAR
STARTCHAR uni04CB
ENCODING 1227
SWIDTH 728 0
DWIDTH 20 0
BBX 16 26 1 -6
BITMAP
F80F
F80F
F80F
F80F
F80F
F80F
F80F
F80F
F80F
7C1F
7FFF
3FFF
1FCF
000F
000F
000F
000F
007F
007F
007F
0078
0078
0078
0078
0078
0078
ENDCHAR
STARTCHAR uni04CC
ENCODING 1228
SWIDTH 655 0
DWIDTH 18 0
BBX 14 20 2 -5
BITMAP
F03C
F03C
F03C
F03C
F03C
F03C
F07C
FFFC
7FFC
3F3C
003C
003C
01FC
01FC
01FC
01C0
01C0
01C0
01C0
01C0
ENDCHAR
STARTCHAR uni04CD
ENCODING 1229
SWIDTH 1036 0
DWIDTH 29 0
BBX 25 26 3 -6
BITMAP
F801F000
FC03F000
FC03F000
FC03F000
FE07F000
EE077000
EE077000
EE0F7000
EF0E7000
E70E7000
E71E7000
E79C7000
E39C7000
E3BC7000
E3F87000
E3F87000
E1F87000
E1F07F80
E1F07F80
E0F07F00
00000F00
00000F00
00001F00
00001E00
00001E00
00003E00
ENDCHAR
STARTCHAR uni04CE
ENCODING 1230
SWIDTH 925 0
DWIDTH 26 0
BBX 24 20 2 -5
BITMAP
FC03F0
FE07F0
FE07F0
FE07F0
FF0FF0
F70EF0
F79EF0
F79EF0
F39CF0
F3FCF0
F1F8F0
F1F8F0
F1F8FF
F0F0FF
F0F0FE
00000E
00001E
00001E
00003C
00003C
ENDCHAR
STARTCHAR uni04CF
ENCODING 1231
SWIDTH 331 0
DWIDTH 9 0
BBX 5 20 2 0
BITMAP
F8
F8
F8
F8
F8
F8
F8
F8
F8
F8
F8
F8
F8
F8
F8
F8
F8
F8
F8
F8
ENDCHAR
STARTCHAR uni04D0
ENCODING 1232
SWIDTH 689 0
DWIDTH 19 0
BBX 19 27 0 0
BITMAP
1E0F00
1E0F00
0F1E00
0FFE00
03F800
000000
000000
01F000
03F800
03F800
03B800
07BC00
07BC00
07BC00
0F1E00
0F1E00
0F1E00
1E0F00
1E0F00
1FFF00
3FFF80
3FFF80
3C0780
7C07C0
7803C0
7803C0
F803E0
ENDCHAR
STARTCHAR uni04D1
ENCODING 1233
SWIDTH 604 0
DWIDTH 17 0
BBX 14 22 1 0
BITMAP
783C
783C
3C78
3FF8
0FE0
0000
0000
0FE0
3FF0
3FF8
187C
003C
003C
0FFC
3FFC
7C3C
F83C
F07C
F8FC
7FFC
7FBC
3F1C
ENDCHAR
STARTCHAR uni04D2
ENCODING 1234
SWIDTH 689 0
DWIDTH 19 0
BBX 19 26 0 0
BITMAP
030C00
079E00
079E00
071C00
000000
000000
01F000
03F800
03F800
03B800
07BC00
07BC00
07BC00
0F1E00
0F1E00
0F1E00
1E0F00
1E0F00
1FFF00
3FFF80
3FFF80
3C0780
7C07C0
7803C0
7803C0
F803E0
ENDCHAR
STARTCHAR uni04D3
ENCODING 1235
SWIDTH 604 0
DWIDTH 17 0
BBX 14 21 1 0
BITMAP
0C30
1C70
1E78
1C70
0000
0000
0FE0
3FF0
3FF8
187C
003C
003C
0FFC
3FFC
7C3C
F83C
F07C
F8FC
7FFC
7FBC
3F1C
ENDCHAR
STARTCHAR uni04D4
ENCODING 1236
SWIDTH 952 0
DWIDTH 27 0
BBX 25 20 0 0
BITMAP
007FFF80
00FFFF80
00FFFF80
00E78000
01E78000
01E78000
03C78000
03C78000
0787FF80
0787FF80
0F87FF80
0F078000
1FFF8000
1FFF8000
3FFF8000
3C078000
3C078000
7807FF80
7807FF80
F807FF80
ENDCHAR
STARTCHAR uni04D5
ENCODING 1237
SWIDTH 916 0
DWIDTH 26 0
BBX 24 15 1 0
BITMAP
0FC3F0
3FFFFC
3FFFFE
107E1E
003C0E
003C0F
0FFFFF
7FFFFF
7C3FFF
F83C00
F07C00
F8FE06
7FEFFE
7FCFFE
1F03FC
ENDCHAR
STARTCHAR uni04D6
ENCODING 1238
SWIDTH 560 0
DWIDTH 16 0
BBX 13 27 2 0
BITMAP
E078
F078
F9F0
7FE0
3F80
0000
0000
7FF0
7FF0
7FF0
7800
7800
7800
7800
7800
7FF0
7FF0
7FF0
7800
7800
7800
7800
7800
7800
7FF0
7FF0
7FF0
ENDCHAR
STARTCHAR uni04D7
ENCODING 1239
SWIDTH 590 0
DWIDTH 17 0
BBX 15 22 1 0
BITMAP
783C
783C
7C78
3FF8
0FE0
0000
0000
07E0
1FF8
3FF8
7C3C
781C
F81E
FFFE
FFFE
FFFE
F800
7800
7C0C
3FFC
1FFC
07F8
ENDCHAR
STARTCHAR uni04D8
ENCODING 1240
SWIDTH 816 0
DWIDTH 23 0
BBX 19 20 2 0
BITMAP
07F800
3FFE00
7FFF80
7C0F80
6007C0
0003E0
0003E0
0001E0
0001E0
FFFFE0
FFFFE0
FFFFE0
F801E0
7801E0
7803E0
7C03C0
3E0FC0
1FFF80
0FFF00
03F800
ENDCHAR
STARTCHAR uni04D9
ENCODING 1241
SWIDTH 601 0
DWIDTH 17 0
BBX 15 15 1 0
BITMAP
1FC0
7FF0
7FF8
607C
003C
003E
001E
FFFE
FFFE
FFFE
F03C
783C
7FF8
3FF0
0FC0
ENDCHAR
STARTCHAR uni04DA
ENCODING 1242
SWIDTH 816 0
DWIDTH 23 0
BBX 19 26 2 0
BITMAP
030C00
079E00
079E00
030C00
000000
000000
07F800
3FFE00
7FFF80
7C0F80
6007C0
0003E0
0003E0
0001E0
0001E0
FFFFE0
FFFFE0
FFFFE0
F801E0
7801E0
7803E0
7C03C0
3E0FC0
1FFF80
0FFF00
03F800
ENDCHAR
STARTCHAR uni04DB
ENCODING 1243
SWIDTH 601 0
DWIDTH 17 0
BBX 15 21 1 0
BITMAP
0C30
1E78
1E78
1C70
0000
0000
1FC0
7FF0
7FF8
607C
003C
003E
001E
FFFE
FFFE
FFFE
F03C
783C
7FF8
3FF0
0FC0
ENDCHAR
STARTCHAR uni04DC
ENCODING 1244
SWIDTH 942 0
DWIDTH 26 0
BBX 26 26 0 0
BITMAP
00208000
0071C000
0071C000
0071C000
00000000
00000000
781E0780
7C1E0F80
3C1E0F00
1E1E1E00
1F1E3E00
0F1E3C00
079E7800
07DEF800
03DEF000
01FFE000
03FFF000
03DEF000
079E7800
0F9E7C00
0F1E3C00
1E1E1E00
3E1E1F00
3C1E0F00
7C1E0F80
F81E07C0
ENDCHAR
STARTCHAR uni04DD
ENCODING 1245
SWIDTH 873 0
DWIDTH 24 0
BBX 24 21 0 0
BITMAP
004100
00E380
00E380
00E380
000000
000000
783C1E
3C3C3C
3E3C7C
1E3C78
0F3CF0
07BDE0
07FDE0
03FFC0
07BDE0
0FBCF0
1F3CF8
1E3C78
3C3C3C
7C3C3E
F83C1F
ENDCHAR
STARTCHAR uni04DE
ENCODING 1246
SWIDTH 647 0
DWIDTH 18 0
BBX 16 26 1 0
BITMAP
0430
0E78
1E78
0E38
0000
0000
0FF0
7FFC
7FFC
783E
001E
001E
001E
007C
1FF8
1FE0
1FFC
007E
001E
000F
000F
001F
E03E
FFFE
FFF8
3FE0
ENDCHAR
STARTCHAR uni04DF
ENCODING 1247
SWIDTH 555 0
DWIDTH 16 0
BBX 14 21 1 0
BITMAP
0820
3CF0
3CF0
1860
0000
0000
3FC0
FFF0
7FF8
6078
0038
0078
0FF0
0FE0
0FF8
007C
003C
C07C
FFF8
FFF0
7FC0
ENDCHAR
STARTCHAR uni04E0
ENCODING 1248
SWIDTH 590 0
DWIDTH 17 0
BBX 15 20 1 0
BITMAP
FFFC
FFFC
FFFC
00F8
01F0
03E0
07C0
0F00
1FE0
1FF8
1FFC
007C
003E
001E
001E
003E
C07C
FFFC
FFF0
7FC0
ENDCHAR
STARTCHAR uni04E1
ENCODING 1249
SWIDTH 581 0
DWIDTH 16 0
BBX 14 22 1 -7
BITMAP
FFF8
FFF8
FFF8
00F0
01E0
07C0
0F80
1F00
1FC0
1FF0
1FF8
01F8
007C
007C
003C
003C
007C
007C
C0F8
FFF0
FFE0
7F80
ENDCHAR
STARTCHAR uni04E2
ENCODING 1250
SWIDTH 823 0
DWIDTH 23 0
BBX 17 25 3 0
BITMAP
0FF800
0FF800
0FF800
000000
000000
E00F80
E01F80
E01F80
E03F80
E03F80
E07B80
E0FB80
E0F380
E1F380
E1E380
E3C380
E7C380
E78380
EF8380
EF0380
FE0380
FE0380
FC0380
FC0380
F80380
ENDCHAR
STARTCHAR uni04E3
ENCODING 1251
SWIDTH 720 0
DWIDTH 20 0
BBX 16 20 2 0
BITMAP
1FF8
1FF8
1FF8
0000
0000
F03F
F03F
F07F
F07F
F0FF
F1EF
F1EF
F3CF
F78F
F78F
FF0F
FE0F
FE0F
FC0F
FC0F
ENDCHAR
STARTCHAR uni04E4
ENCODING 1252
SWIDTH 823 0
DWIDTH 23 0
BBX 17 26 3 0
BITMAP
061800
0F3C00
0F3C00
0E3800
000000
000000
E00F80
E01F80
E01F80
E03F80
E03F80
E07B80
E0FB80
E0F380
E1F380
E1E380
E3C380
E7C380
E78380
EF8380
EF0380
FE0380
FE0380
FC0380
FC0380
F80380
ENDCHAR
STARTCHAR uni04E5
ENCODING 1253
SWIDTH 720 0
DWIDTH 20 0
BBX 16 21 2 0
BITMAP
0430
1E78
1E78
0E38
0000
0000
F03F
F03F
F07F
F07F
F0FF
F1EF
F1EF
F3CF
F78F
F78F
FF0F
FE0F
FE0F
FC0F
FC0F
ENDCHAR
STARTCHAR uni04E6
ENCODING 1254
SWIDTH 795 0
DWIDTH 22 0
BBX 18 26 2 0
BITMAP
060800
071C00
071C00
071C00
000000
000000
03F000
1FFE00
3FFF00
7E1F80
7C0780
F807C0
F807C0
F003C0
F003C0
F003C0
F003C0
F003C0
F003C0
F007C0
F807C0
7C0F80
7E1F80
3FFF00
1FFE00
03F000
ENDCHAR
STARTCHAR uni04E7
ENCODING 1255
SWIDTH 619 0
DWIDTH 17 0
BBX 15 21 1 0
BITMAP
0C30
1E78
1E78
1C70
0000
0000
0FC0
1FF0
3FF8
7C7C
783C
F83E
F83E
F83E
F83E
F83E
783C
7C7C
3FF8
1FF0
0FE0
ENDCHAR
STARTCHAR uni04E8
ENCODING 1256
SWIDTH 795 0
DWIDTH 22 0
BBX 18 20 2 0
BITMAP
03F000
1FFE00
3FFF00
7E1F80
780780
F807C0
F003C0
F003C0
FFFFC0
FFFFC0
FFFFC0
F003C0
F003C0
F807C0
F807C0
7C0F80
7E1F80
3FFF00
1FFE00
03F000
ENDCHAR
STARTCHAR uni04E9
ENCODING 1257
SWIDTH 619 0
DWIDTH 17 0
BBX 15 15 1 0
BITMAP
0FC0
1FF0
3FF8
7C7C
783C
F83E
FFFE
FFFE
FFFE
F83E
783C
7C7C
3FF8
1FF0
0FE0
ENDCHAR
STARTCHAR uni04EA
ENCODING 1258
SWIDTH 795 0
DWIDTH 22 0
BBX 18 26 2 0
BITMAP
020800
071C00
071C00
071C00
000000
000000
03F000
1FFE00
3FFF00
7E1F80
780780
F807C0
F003C0
F003C0
FFFFC0
FFFFC0
FFFFC0
F003C0
F003C0
F807C0
F807C0
7C0F80
7E1F80
3FFF00
1FFE00
03F000
ENDCHAR
STARTCHAR uni04EB
ENCODING 1259
SWIDTH 619 0
DWIDTH 17 0
BBX 15 21 1 0
BITMAP
0C30
1E78
1E78
1C70
0000
0000
0FC0
1FF0
3FF8
7C7C
783C
F83E
FFFE
FFFE
FFFE
F83E
783C
7C7C
3FF8
1FF0
0FE0
ENDCHAR
STARTCHAR uni04EC
ENCODING 1260
SWIDTH 663 0
DWIDTH 19 0
BBX 16 26 1 0
BITMAP
0410
1E78
1E78
0E38
0000
0000
3FC0
FFF8
7FFC
707E
001E
001F
000F
000F
1FFF
1FFF
1FFF
000F
000F
001F
001F
003E
C07E
FFFC
FFF0
3FC0
ENDCHAR
STARTCHAR uni04ED
ENCODING 1261
SWIDTH 512 0
DWIDTH 14 0
BBX 12 21 1 0
BITMAP
1040
79E0
79E0
38E0
0000
0000
3F00
FFC0
7FE0
43E0
01E0
01F0
3FF0
3FF0
3FF0
01F0
01E0
C3E0
FFC0
FFC0
7F00
ENDCHAR
STARTCHAR uni04EE
ENCODING 1262
SWIDTH 652 0
DWIDTH 18 0
BBX 18 25 0 0
BITMAP
07FC00
07FC00
07FC00
000000
000000
F807C0
780780
7C0780
3C0F00
3C0F00
1E0F00
1E1E00
0F1E00
0F3C00
07BC00
07B800
07F800
03F800
03F000
01F000
03E000
07E000
7FC000
7F8000
7E0000
ENDCHAR
STARTCHAR uni04EF
ENCODING 1263
SWIDTH 568 0
DWIDTH 16 0
BBX 16 27 0 -7
BITMAP
1FF8
1FF8
1FF8
0000
0000
F81F
781E
781E
7C3E
3C3C
3C3C
1E7C
1E78
1E78
0FF0
0FF0
07F0
07E0
07E0
03E0
03C0
03C0
0780
0F80
7F00
7E00
7C00
ENDCHAR
STARTCHAR uni04F0
ENCODING 1264
SWIDTH 652 0
DWIDTH 18 0
BBX 18 26 0 0
BITMAP
060800
071C00
071C00
071C00
000000
000000
F807C0
780780
7C0780
3C0F00
3C0F00
1E0F00
1E1E00
0F1E00
0F3C00
07BC00
07B800
07F800
03F800
03F000
01F000
03E000
07E000
7FC000
7F8000
7E0000
ENDCHAR
STARTCHAR uni04F1
ENCODING 1265
SWIDTH 568 0
DWIDTH 16 0
BBX 16 28 0 -7
BITMAP
0410
1E78
1E78
0E38
0000
0000
F81F
781E
781E
7C3E
3C3C
3C3C
1E7C
1E78
1E78
0FF0
0FF0
07F0
07E0
07E0
03E0
03C0
03C0
0780
0F80
7F00
7E00
7C00
ENDCHAR
STARTCHAR uni04F2
ENCODING 1266
SWIDTH 652 0
DWIDTH 18 0
BBX 18 26 0 0
BITMAP
01EF00
03DE00
079C00
073800
000000
000000
F807C0
780780
7C0780
3C0F00
3C0F00
1E0F00
1E1E00
0F1E00
0F3C00
07BC00
07B800
07F800
03F800
03F000
01F000
03E000
07E000
7FC000
7F8000
7E0000
ENDCHAR
STARTCHAR uni04F3
ENCODING 1267
SWIDTH 568 0
DWIDTH 16 0
BBX 16 28 0 -7
BITMAP
03DE
07BC
0F70
1CE0
0000
0000
F81F
781E
781E
7C3E
3C3C
3C3C
1E7C
1E78
1E78
0FF0
0FF0
07F0
07E0
07E0
03E0
03C0
03C0
0780
0F80
7F00
7E00
7C00
ENDCHAR
STARTCHAR uni04F4
ENCODING 1268
SWIDTH 728 0
DWIDTH 20 0
BBX 16 26 1 0
BITMAP
0618
0F3C
0F3C
0E38
0000
0000
F80F
F80F
F80F
F80F
F80F
F80F
F80F
F80F
F80F
7C1F
7FFF
3FFF
1FCF
000F
000F
000F
000F
000F
000F
000F
ENDCHAR
STARTCHAR uni04F5
ENCODING 1269
SWIDTH 655 0
DWIDTH 18 0
BBX 14 21 2 0
BITMAP
0820
3CF0
3CF0
1C70
0000
0000
F03C
F03C
F03C
F03C
F03C
F03C
F07C
FFFC
7FFC
3F3C
003C
003C
003C
003C
003C
ENDCHAR
STARTCHAR uni04F6
ENCODING 1270
SWIDTH 561 0
DWIDTH 16 0
BBX 12 26 3 -6
BITMAP
FFF0
FFF0
FFF0
F000
F000
F000
F000
F000
F000
F000
F000
F000
F000
F000
F000
F000
F000
FF00
FF00
FF00
0F00
0F00
0F00
0F00
0F00
0F00
ENDCHAR
STARTCHAR uni04F7
ENCODING 1271
SWIDTH 478 0
DWIDTH 13 0
BBX 10 20 2 -5
BITMAP
FFC0
FFC0
FFC0
F000
F000
F000
F000
F000
F000
F000
F000
F000
FF00
FF00
FF00
0F00
0F00
0F00
0F00
0F00
ENDCHAR
STARTCHAR uni04F8
ENCODING 1272
SWIDTH 905 0
DWIDTH 25 0
BBX 19 26 3 0
BITMAP
030C00
079E00
079E00
030C00
000000
000000
F001E0
F001E0
F001E0
F001E0
F001E0
F001E0
F001E0
F001E0
FF81E0
FFE1E0
FFF1E0
F1F1E0
F0F9E0
F079E0
F079E0
F0F9E0
F1F1E0
FFF1E0
FFE1E0
FF81E0
ENDCHAR
STARTCHAR uni04F9
ENCODING 1273
SWIDTH 850 0
DWIDTH 24 0
BBX 20 21 2 0
BITMAP
010400
079E00
079E00
038E00
000000
000000
F000F0
F000F0
F000F0
F000F0
F000F0
F000F0
FFC0F0
FFF0F0
FFF8F0
F078F0
F078F0
F078F0
FFF8F0
FFF0F0
FFC0F0
ENDCHAR
STARTCHAR uni04FA
ENCODING 1274
SWIDTH 559 0
DWIDTH 16 0
BBX 14 27 1 -7
BITMAP
3FFC
3FFC
3FFC
3C00
3C00
3C00
3C00
3C00
FFE0
FFE0
FFE0
3C00
3C00
3C00
3C00
3C00
3FC0
3FC0
3FC0
3FC0
03C0
03C0
03C0
27C0
3F80
3F80
3E00
ENDCHAR
STARTCHAR uni04FB
ENCODING 1275
SWIDTH 491 0
DWIDTH 14 0
BBX 13 22 0 -7
BITMAP
3FF8
3FF8
3FF8
3C00
3C00
3C00
FFE0
FFE0
FFE0
3C00
3C00
3FC0
3FC0
3FC0
3FC0
03C0
03C0
03C0
07C0
1FC0
1F80
1F00
ENDCHAR
STARTCHAR uni04FC
ENCODING 1276
SWIDTH 731 0
DWIDTH 21 0
BBX 20 27 0 -7
BITMAP
7803C0
7C07C0
3E0F80
1E0F00
1F1F00
0F9E00
07BC00
07FC00
03F800
01F000
03F000
03F800
07FC00
0FBE00
0F1E00
1E1F00
3E0FF0
3C07F0
7C07F0
F803F0
0000F0
0000F0
0000F0
0001F0
0007E0
0007E0
0007C0
ENDCHAR
STARTCHAR uni04FD
ENCODING 1277
SWIDTH 645 0
DWIDTH 18 0
BBX 18 22 0 -7
BITMAP
781E00
7C3E00
3E7C00
1E7800
1FF800
0FF000
07E000
07E000
0FF000
0FF000
1FF800
3E7FC0
3C3FC0
7C3FC0
F81FC0
0003C0
0003C0
0007C0
002780
003F80
003F00
003E00
ENDCHAR
STARTCHAR uni04FE
ENCODING 1278
SWIDTH 666 0
DWIDTH 19 0
BBX 19 20 0 0
BITMAP
7803C0
7C07C0
3E0F80
1E0F00
1F1F00
0F9E00
07BC00
07FC00
3FFF80
3FFF80
3FFF80
07FC00
07FC00
0FBE00
1F1E00
1E1F00
3E0F80
3C0780
7C07C0
F803E0
ENDCHAR
STARTCHAR uni04FF
ENCODING 1279
SWIDTH 578 0
DWIDTH 16 0
BBX 16 15 0 0
BITMAP
781E
7C3E
3E7C
1E78
1FF8
0FF0
7FFE
7FFE
7FFE
0FF0
1FF8
3E78
3C3C
7C3E
F81F
ENDCHAR
STARTCHAR uni0500
ENCODING 1280
SWIDTH 638 0
DWIDTH 18 0
BBX 14 20 1 0
BITMAP
003C
003C
003C
003C
003C
003C
003C
003C
07FC
3FFC
7FFC
7C3C
F83C
F83C
F83C
F83C
7C3C
7FFC
3FFC
07FC
ENDCHAR
STARTCHAR uni0501
ENCODING 1281
SWIDTH 632 0
DWIDTH 18 0
BBX 15 21 1 0
BITMAP
001E
001E
001E
001E
001E
001E
0F9E
3FDE
7FFE
7C7E
783E
F81E
F81E
F01E
F81E
F81E
783E
7C3E
7FFE
3FDE
0F9E
ENDCHAR
STARTCHAR uni0502
ENCODING 1282
SWIDTH 925 0
DWIDTH 26 0
BBX 23 20 1 0
BITMAP
003C00
003C00
003C00
003C00
003C00
003C00
003C00
003C00
0FFC00
3FFC3E
7FFC3E
7C3C3E
F83C3E
F83C3E
F83C3E
F83C3E
787C3C
7FFFFC
3FEFF8
0FC7E0
ENDCHAR
STARTCHAR uni0503
ENCODING 1283
SWIDTH 922 0
DWIDTH 26 0
BBX 23 21 1 0
BITMAP
003C00
003C00
003C00
003C00
003C00
003C00
0F3C00
3FFC00
7FFC00
7C7C00
783C00
F83C00
F83C1E
F03C1E
F83C1E
F83C1E
783E3E
7C7FFE
3FFFFC
1FFFFC
0FC7F0
ENDCHAR
STARTCHAR uni0504
ENCODING 1284
SWIDTH 913 0
DWIDTH 26 0
BBX 23 20 1 0
BITMAP
3FC000
FFF000
FFF800
60F800
007800
007800
007800
01F000
3FE03E
3FC03E
3FF03E
01F83E
00783E
007C3E
007C3E
003C3E
003C3C
003FFC
001FF8
0007E0
ENDCHAR
STARTCHAR uni0505
ENCODING 1285
SWIDTH 870 0
DWIDTH 24 0
BBX 21 15 1 0
BITMAP
3F8000
FFE000
FFF000
40F000
00F000
00F000
3FE078
3F8078
3FF078
01F078
00F8F8
00FFF8
00FFF0
007FF0
001FC0
ENDCHAR
STARTCHAR uni0506
ENCODING 1286
SWIDTH 701 0
DWIDTH 20 0
BBX 18 26 1 -6
BITMAP
3FC000
FFF000
FFF800
607C00
007C00
003C00
007800
00F800
3FE000
3FE000
3FF800
00FC00
003C00
003C00
003C00
003C00
003C00
003FC0
003FC0
003FC0
0003C0
0003C0
0003C0
0003C0
0003C0
0003C0
ENDCHAR
STARTCHAR uni0507
ENCODING 1287
SWIDTH 661 0
DWIDTH 19 0
BBX 18 20 1 -5
BITMAP
3FC000
FFF000
7FF800
607800
003800
007800
1FF000
1FE000
1FF800
007C00
003C00
003C00
003FC0
003FC0
003FC0
0003C0
0003C0
0003C0
0003C0
0003C0
ENDCHAR
STARTCHAR uni0508
ENCODING 1288
SWIDTH 1033 0
DWIDTH 29 0
BBX 27 20 0 0
BITMAP
03FFC000
03FFC000
07FFC000
0783C000
0783C000
0783C000
0783C000
0783C000
0783C3E0
0F03C3E0
0F03C3E0
0F03C3E0
0F03C3E0
0F03C3E0
1F03C3E0
1E03C3E0
1E03C3C0
FE03FFC0
FC01FF80
F8007E00
ENDCHAR
STARTCHAR uni0509
ENCODING 1289
SWIDTH 935 0
DWIDTH 26 0
BBX 24 15 0 0
BITMAP
0FFE00
0FFE00
0FFE00
0F1E00
0F1E00
0F1E00
0E1E0F
1E1E0F
1E1E0F
1E1E0F
3E1F1F
FC1FFF
FC0FFE
F807FE
F003F8
ENDCHAR
STARTCHAR uni050A
ENCODING 1290
SWIDTH 1042 0
DWIDTH 29 0
BBX 24 20 3 0
BITMAP
F01E00
F01E00
F01E00
F01E00
F01E00
F01E00
F01E00
F01E00
FFFE1F
FFFE1F
FFFE1F
F01E1F
F01E1F
F01E1F
F01E1F
F01E1F
F01F1E
F00FFE
F00FFC
F003F8
ENDCHAR
STARTCHAR uni050B
ENCODING 1291
SWIDTH 952 0
DWIDTH 27 0
BBX 23 15 2 0
BITMAP
F03C00
F03C00
F03C00
F03C00
F03C00
F03C00
FFFC1E
FFFC1E
FFFC1E
F03C1E
F03E3E
F03FFE
F01FFC
F00FF8
F007F0
ENDCHAR
STARTCHAR uni050C
ENCODING 1292
SWIDTH 799 0
DWIDTH 22 0
BBX 18 20 2 0
BITMAP
03FC00
0FFF00
3FFF00
3E0600
7C0000
F80000
F80000
F00000
F00000
F07FC0
F07FC0
F07FC0
F003C0
F003C0
F803C0
7C07C0
7E0F80
3FFF00
0FFE00
03F800
ENDCHAR
STARTCHAR uni050D
ENCODING 1293
SWIDTH 663 0
DWIDTH 19 0
BBX 17 15 1 0
BITMAP
07F800
1FFE00
3FFC00
7E0C00
780000
F80000
F8FF80
F0FF80
F8FF80
F80F80
780F00
7C1F00
3FFE00
1FFC00
07F000
ENDCHAR
STARTCHAR uni050E
ENCODING 1294
SWIDTH 757 0
DWIDTH 21 0
BBX 18 20 1 0
BITMAP
FFFE00
FFFE00
FFFE00
078000
078000
078000
078000
078000
0787C0
0787C0
0787C0
0787C0
0787C0
0787C0
0787C0
0787C0
07C780
03FF80
03FF00
00FC00
ENDCHAR
STARTCHAR uni050F
ENCODING 1295
SWIDTH 733 0
DWIDTH 21 0
BBX 18 15 1 0
BITMAP
FFFC00
FFFC00
FFFC00
078000
078000
078000
0783C0
0783C0
0783C0
0783C0
0787C0
07FFC0
07FF80
03FF80
00FE00
ENDCHAR
STARTCHAR uni0510
ENCODING 1296
SWIDTH 647 0
DWIDTH 18 0
BBX 16 20 1 0
BITMAP
07F8
1FFE
3FFE
7C1E
7800
7800
7800
3E00
1FF8
07F8
3FF8
7E00
F800
F000
F000
F800
7C07
7FFF
1FFF
07FC
ENDCHAR
STARTCHAR uni0511
ENCODING 1297
SWIDTH 556 0
DWIDTH 16 0
BBX 14 15 1 0
BITMAP
0FF0
3FFC
7FF8
7818
7800
7800
3FE0
0FE0
7FE0
F800
F000
F80C
FFFC
7FFC
1FF0
ENDCHAR
STARTCHAR uni0512
ENCODING 1298
SWIDTH 817 0
DWIDTH 23 0
BBX 22 27 0 -7
BITMAP
03FFC0
03FFC0
07FFC0
0783C0
0783C0
0783C0
0783C0
0783C0
0783C0
0F03C0
0F03C0
0F03C0
0F03C0
0F03C0
0F03C0
1E03C0
1E03FC
FE03FC
FC03FC
F803FC
00003C
00003C
00003C
00017C
0001FC
0001F8
0001F0
ENDCHAR
STARTCHAR uni0513
ENCODING 1299
SWIDTH 724 0
DWIDTH 20 0
BBX 20 22 0 -7
BITMAP
0FFF00
0FFF00
0FFF00
0F0F00
0F0F00
0F0F00
0E0F00
1E0F00
1E0F00
1E0F00
3E0F00
FC0FF0
FC0FF0
F80FF0
F00FF0
0000F0
0000F0
0000F0
0009F0
000FE0
000FE0
000F80
ENDCHAR
STARTCHAR uni1E00
ENCODING 7680
SWIDTH 689 0
DWIDTH 19 0
BBX 19 28 0 -8
BITMAP
01F000
03F800
03F800
03B800
07BC00
07BC00
07BC00
0F1E00
0F1E00
0F1E00
1E0F00
1E0F00
1FFF00
3FFF80
3FFF80
3C0780
7C07C0
7803C0
7803C0
F803E0
000000
000000
00F000
01F800
039800
031800
01F800
00F000
ENDCHAR
STARTCHAR uni1E01
ENCODING 7681
SWIDTH 604 0
DWIDTH 17 0
BBX 14 23 1 -8
BITMAP
0FE0
3FF0
3FF8
187C
003C
003C
0FFC
3FFC
7C3C
F83C
F07C
F8FC
7FFC
7FBC
3F1C
0000
0000
0780
0FC0
0CE0
0CE0
0FC0
0780
ENDCHAR
STARTCHAR uni1E3E
ENCODING 7742
SWIDTH 942 0
DWIDTH 26 0
BBX 20 26 3 0
BITMAP
001E00
003C00
007800
00E000
000000
000000
F801F0
FC03F0
FC03F0
FC03F0
FE07F0
EE0770
EE0770
EE0F70
EF0E70
E70E70
E71E70
E79C70
E39C70
E3BC70
E3F870
E3F870
E1F870
E1F070
E1F070
E0F070
ENDCHAR
STARTCHAR uni1E3F
ENCODING 7743
SWIDTH 981 0
DWIDTH 28 0
BBX 24 21 2 0
BITMAP
000F80
001F00
003C00
007800
000000
000000
F3F0F8
F7FBFE
FFFFFE
FC7F1F
F83E1F
F83C0F
F03C0F
F03C0F
F03C0F
F03C0F
F03C0F
F03C0F
F03C0F
F03C0F
F03C0F
ENDCHAR
STARTCHAR Wgrave
ENCODING 7808
SWIDTH 966 0
DWIDTH 27 0
BBX 27 26 0 0
BITMAP
00F80000
003C0000
001E0000
000F0000
00000000
00000000
F01F01E0
F81F03E0
781F03C0
781F03C0
783F83C0
783B83C0
3C3B8780
3C3B8780
3C7BC780
3C7BC780
1E71CF00
1E71CF00
1EF1EF00
1EF1EF00
0EE0EE00
0FE0FE00
0FE0FE00
0FE0FE00
07C07C00
07C07C00
ENDCHAR
STARTCHAR wgrave
ENCODING 7809
SWIDTH 855 0
DWIDTH 24 0
BBX 24 21 0 0
BITMAP
01E000
00F000
007800
001C00
000000
000000
F83C1F
787E1E
787E1E
787E1E
3C7E3C
3CE73C
3CE73C
3CE73C
1EE778
1FC3F8
1FC3F8
0FC3F0
0FC3F0
0F83F0
0F81E0
ENDCHAR
STARTCHAR Wacute
ENCODING 7810
SWIDTH 966 0
DWIDTH 27 0
BBX 27 26 0 0
BITMAP
0007C000
00078000
000F0000
001C0000
00000000
00000000
F01F01E0
F81F03E0
781F03C0
781F03C0
783F83C0
783B83C0
3C3B8780
3C3B8780
3C7BC780
3C7BC780
1E71CF00
1E71CF00
1EF1EF00
1EF1EF00
0EE0EE00
0FE0FE00
0FE0FE00
0FE0FE00
07C07C00
07C07C00
ENDCHAR
STARTCHAR wacute
ENCODING 7811
SWIDTH 855 0
DWIDTH 24 0
BBX 24 21 0 0
BITMAP
000F80
001F00
001C00
003800
000000
000000
F83C1F
787E1E
787E1E
787E1E
3C7E3C
3CE73C
3CE73C
3CE73C
1EE778
1FC3F8
1FC3F8
0FC3F0
0FC3F0
0F83F0
0F81E0
ENDCHAR
STARTCHAR Wdieresis
ENCODING 7812
SWIDTH 966 0
DWIDTH 27 0
BBX 27 26 0 0
BITMAP
0030C000
0079E000
0079E000
0071C000
00000000
00000000
F01F01E0
F81F03E0
781F03C0
781F03C0
783F83C0
783B83C0
3C3B8780
3C3B8780
3C7BC780
3C7BC780
1E71CF00
1E71CF00
1EF1EF00
1EF1EF00
0EE0EE00
0FE0FE00
0FE0FE00
0FE0FE00
07C07C00
07C07C00
ENDCHAR
STARTCHAR wdieresis
ENCODING 7813
SWIDTH 855 0
DWIDTH 24 0
BBX 24 21 0 0
BITMAP
004100
01E780
01E780
00E380
000000
000000
F83C1F
787E1E
787E1E
787E1E
3C7E3C
3CE73C
3CE73C
3CE73C
1EE778
1FC3F8
1FC3F8
0FC3F0
0FC3F0
0F83F0
0F81E0
ENDCHAR
STARTCHAR uni1EA0
ENCODING 7840
SWIDTH 689 0
DWIDTH 19 0
BBX 19 26 0 -6
BITMAP
01F000
03F800
03F800
03B800
07BC00
07BC00
07BC00
0F1E00
0F1E00
0F1E00
1E0F00
1E0F00
1FFF00
3FFF80
3FFF80
3C0780
7C07C0
7803C0
7803C0
F803E0
000000
000000
00E000
01F000
01F000
00E000
ENDCHAR
STARTCHAR uni1EA1
ENCODING 7841
SWIDTH 604 0
DWIDTH 17 0
BBX 14 21 1 -6
BITMAP
0FE0
3FF0
3FF8
187C
003C
003C
0FFC
3FFC
7C3C
F83C
F07C
F8FC
7FFC
7FBC
3F1C
0000
0000
0780
0780
0780
0780
ENDCHAR
STARTCHAR uni1EA2
ENCODING 7842
SWIDTH 689 0
DWIDTH 19 0
BBX 19 29 0 0
BITMAP
01F000
01F800
017800
003800
007800
00F000
00E000
000000
000000
01F000
03F800
03F800
03B800
07BC00
07BC00
07BC00
0F1E00
0F1E00
0F1E00
1E0F00
1E0F00
1FFF00
3FFF80
3FFF80
3C0780
7C07C0
7803C0
7803C0
F803E0
ENDCHAR
STARTCHAR uni1EA3
ENCODING 7843
SWIDTH 604 0
DWIDTH 17 0
BBX 14 24 1 0
BITMAP
07C0
07E0
01E0
00E0
01E0
03C0
0380
0000
0000
0FE0
3FF0
3FF8
187C
003C
003C
0FFC
3FFC
7C3C
F83C
F07C
F8FC
7FFC
7FBC
3F1C
ENDCHAR
STARTCHAR uni1EA4
ENCODING 7844
SWIDTH 689 0
DWIDTH 19 0
BBX 19 28 0 0
BITMAP
0001E0
0003C0
01F300
03F800
03BC00
070E00
000000
000000
01F000
03F800
03F800
03B800
07BC00
07BC00
07BC00
0F1E00
0F1E00
0F1E00
1E0F00
1E0F00
1FFF00
3FFF80
3FFF80
3C0780
7C07C0
7803C0
7803C0
F803E0
ENDCHAR
STARTCHAR uni1EA5
ENCODING 7845
SWIDTH 604 0
DWIDTH 17 0
BBX 16 23 1 0
BITMAP
0007
000E
07DC
0FE0
1EE0
3870
0000
0000
0FE0
3FF0
3FF8
187C
003C
003C
0FFC
3FFC
7C3C
F83C
F07C
F8FC
7FFC
7FBC
3F1C
ENDCHAR
STARTCHAR uni1EA6
ENCODING 7846
SWIDTH 689 0
DWIDTH 19 0
BBX 19 28 0 0
BITMAP
700000
380000
1DF000
03F800
03BC00
070E00
000000
000000
01F000
03F800
03F800
03B800
07BC00
07BC00
07BC00
0F1E00
0F1E00
0F1E00
1E0F00
1E0F00
1FFF00
3FFF80
3FFF80
3C0780
7C07C0
7803C0
7803C0
F803E0
ENDCHAR
STARTCHAR uni1EA7
ENCODING 7847
SWIDTH 604 0
DWIDTH 17 0
BBX 15 23 0 0
BITMAP
E000
7000
33E0
07F0
0F78
1C18
0000
0000
07F0
1FF8
1FFC
0C3E
001E
001E
07FE
1FFE
3E1E
7C1E
783E
7C7E
3FFE
3FDE
1F8E
ENDCHAR
STARTCHAR uni1EA8
ENCODING 7848
SWIDTH 689 0
DWIDTH 19 0
BBX 19 29 0 0
BITMAP
000780
000780
000180
01F380
03FB00
03BC00
070E00
000000
000000
01F000
03F800
03F800
03B800
07BC00
07BC00
07BC00
0F1E00
0F1E00
0F1E00
1E0F00
1E0F00
1FFF00
3FFF80
3FFF80
3C0780
7C07C0
7803C0
7803C0
F803E0
ENDCHAR
STARTCHAR uni1EA9
ENCODING 7849
SWIDTH 604 0
DWIDTH 17 0
BBX 15 24 1 0
BITMAP
001E
001E
0006
07CE
0FEC
1EF0
3830
0000
0000
0FE0
3FF0
3FF8
187C
003C
003C
0FFC
3FFC
7C3C
F83C
F07C
F8FC
7FFC
7FBC
3F1C
ENDCHAR
STARTCHAR uni1EAA
ENCODING 7850
SWIDTH 689 0
DWIDTH 19 0
BBX 19 30 0 0
BITMAP
03C400
07FC00
067800
000000
01F000
01F800
03BC00
060E00
000000
000000
01F000
03F800
03F800
03B800
07BC00
07BC00
07BC00
0F1E00
0F1E00
0F1E00
1E0F00
1E0F00
1FFF00
3FFF80
3FFF80
3C0780
7C07C0
7803C0
7803C0
F803E0
ENDCHAR
STARTCHAR uni1EAB
ENCODING 7851
SWIDTH 604 0
DWIDTH 17 0
BBX 14 25 1 0
BITMAP
0F30
1FF0
19E0
0000
07C0
0FC0
1EE0
3830
0000
0000
0FE0
3FF0
3FF8
187C
003C
003C
0FFC
3FFC
7C3C
F83C
F07C
F8FC
7FFC
7FBC
3F1C
ENDCHAR
STARTCHAR uni1EAC
ENCODING 7852
SWIDTH 689 0
DWIDTH 19 0
BBX 19 32 0 -6
BITMAP
01F000
03F800
07BC00
0F0E00
000000
000000
01F000
03F800
03F800
03B800
07BC00
07BC00
07BC00
0F1E00
0F1E00
0F1E00
1E0F00
1E0F00
1FFF00
3FFF80
3FFF80
3C0780
7C07C0
7803C0
7803C0
F803E0
000000
000000
00E000
01F000
01F000
00E000
ENDCHAR
STARTCHAR uni1EAD
ENCODING 7853
SWIDTH 604 0
DWIDTH 17 0
BBX 14 27 1 -6
BITMAP
07C0
0FE0
1EF0
3838
0000
0000
0FE0
3FF0
3FF8
187C
003C
003C
0FFC
3FFC
7C3C
F83C
F07C
F8FC
7FFC
7FBC
3F1C
0000
0000
0780
0780
0780
0780
ENDCHAR
STARTCHAR uni1EAE
ENCODING 7854
SWIDTH 689 0
DWIDTH 19 0
BBX 19 29 0 0
BITMAP
003800
007000
066E00
060C00
079C00
03F800
01F000
000000
000000
01F000
03F800
03F800
03B800
07BC00
07BC00
07BC00
0F1E00
0F1E00
0F1E00
1E0F00
1E0F00
1FFF00
3FFF80
3FFF80
3C0780
7C07C0
7803C0
7803C0
F803E0
ENDCHAR
STARTCHAR uni1EAF
ENCODING 7855
SWIDTH 604 0
DWIDTH 17 0
BBX 14 24 1 0
BITMAP
01E0
01C0
3BB0
1830
1C70
0FE0
07C0
0000
0000
0FE0
3FF0
3FF8
187C
003C
003C
0FFC
3FFC
7C3C
F83C
F07C
F8FC
7FFC
7FBC
3F1C
ENDCHAR
STARTCHAR uni1EB0
ENCODING 7856
SWIDTH 689 0
DWIDTH 19 0
BBX 19 29 0 0
BITMAP
01C000
01C000
06EE00
060C00
079C00
03F800
01F000
000000
000000
01F000
03F800
03F800
03B800
07BC00
07BC00
07BC00
0F1E00
0F1E00
0F1E00
1E0F00
1E0F00
1FFF00
3FFF80
3FFF80
3C0780
7C07C0
7803C0
7803C0
F803E0
ENDCHAR
STARTCHAR uni1EB1
ENCODING 7857
SWIDTH 604 0
DWIDTH 17 0
BBX 14 24 1 0
BITMAP
0E00
0700
3BB0
1830
1C70
0FE0
07C0
0000
0000
0FE0
3FF0
3FF8
187C
003C
003C
0FFC
3FFC
7C3C
F83C
F07C
F8FC
7FFC
7FBC
3F1C
ENDCHAR
STARTCHAR uni1EB2
ENCODING 7858
SWIDTH 689 0
DWIDTH 19 0
BBX 19 29 0 0
BITMAP
00E000
007000
067E00
064C00
079C00
03F800
01F000
000000
000000
01F000
03F800
03F800
03B800
07BC00
07BC00
07BC00
0F1E00
0F1E00
0F1E00
1E0F00
1E0F00
1FFF00
3FFF80
3FFF80
3C0780
7C07C0
7803C0
7803C0
F803E0
ENDCHAR
STARTCHAR uni1EB3
ENCODING 7859
SWIDTH 604 0
DWIDTH 17 0
BBX 14 24 1 0
BITMAP
0380
0180
19B0
1B30
1C70
0FE0
07C0
0000
0000
0FE0
3FF0
3FF8
187C
003C
003C
0FFC
3FFC
7C3C
F83C
F07C
F8FC
7FFC
7FBC
3F1C
ENDCHAR
STARTCHAR uni1EB4
ENCODING 7860
SWIDTH 689 0
DWIDTH 19 0
BBX 19 30 0 0
BITMAP
03C400
07FC00
063800
000000
060E00
079C00
03FC00
01F000
000000
000000
01F000
03F800
03F800
03B800
07BC00
07BC00
07BC00
0F1E00
0F1E00
0F1E00
1E0F00
1E0F00
1FFF00
3FFF80
3FFF80
3C0780
7C07C0
7803C0
7803C0
F803E0
ENDCHAR
STARTCHAR uni1EB5
ENCODING 7861
SWIDTH 604 0
DWIDTH 17 0
BBX 14 25 1 0
BITMAP
0F10
1FF0
18E0
0000
1830
1EF0
1FE0
07C0
0000
0000
0FE0
3FF0
3FF8
187C
003C
003C
0FFC
3FFC
7C3C
F83C
F07C
F8FC
7FFC
7FBC
3F1C
ENDCHAR
STARTCHAR uni1EB6
ENCODING 7862
SWIDTH 689 0
DWIDTH 19 0
BBX 19 32 0 -6
BITMAP
0E0E00
07FE00
07FC00
03F800
000000
000000
01F000
03F800
03F800
03FC00
07BC00
07BC00
079E00
0F1E00
0F1E00
0F0F00
1E0F00
1E0F00
1FFF80
3FFF80
3FFF80
3C07C0
7C03C0
7803C0
7803E0
F801E0
000000
000000
00F000
01F000
01F000
00E000
ENDCHAR
STARTCHAR uni1EB7
ENCODING 7863
SWIDTH 604 0
DWIDTH 17 0
BBX 14 28 1 -6
BITMAP
3038
3838
1FF0
1FE0
07C0
0000
0000
0FE0
3FF0
3FF8
187C
003C
003C
0FFC
3FFC
7C3C
F83C
F07C
F8FC
7FFC
7FBC
3F1C
0000
0000
0780
0780
0780
0780
ENDCHAR
STARTCHAR uni1EB8
ENCODING 7864
SWIDTH 560 0
DWIDTH 16 0
BBX 11 26 3 -6
BITMAP
FFE0
FFE0
FFE0
F000
F000
F000
F000
F000
FFE0
FFE0
FFE0
F000
F000
F000
F000
F000
F000
FFE0
FFE0
FFE0
0000
0000
0E00
1E00
1E00
1E00
ENDCHAR
STARTCHAR uni1EB9
ENCODING 7865
SWIDTH 590 0
DWIDTH 17 0
BBX 15 21 1 -6
BITMAP
07E0
1FF8
3FF8
7C3C
781C
F81E
FFFE
FFFE
FFFE
F800
7800
7C0C
3FFC
1FFC
07F8
0000
0000
0380
0780
0780
0780
ENDCHAR
STARTCHAR uni1EBA
ENCODING 7866
SWIDTH 560 0
DWIDTH 16 0
BBX 11 29 3 0
BITMAP
1E00
1F00
0780
0380
0780
0F00
0E00
0000
0000
FFE0
FFE0
FFE0
F000
F000
F000
F000
F000
FFE0
FFE0
FFE0
F000
F000
F000
F000
F000
F000
FFE0
FFE0
FFE0
ENDCHAR
STARTCHAR uni1EBB
ENCODING 7867
SWIDTH 590 0
DWIDTH 17 0
BBX 15 24 1 0
BITMAP
07C0
07E0
05E0
00E0
01E0
03C0
0380
0000
0000
07E0
1FF8
3FF8
7C3C
781C
F81E
FFFE
FFFE
FFFE
F800
7800
7C0C
3FFC
1FFC
07F8
ENDCHAR
STARTCHAR uni1EBC
ENCODING 7868
SWIDTH 560 0
DWIDTH 16 0
BBX 11 26 3 0
BITMAP
7860
FFE0
FFC0
C780
0000
0000
FFE0
FFE0
FFE0
F000
F000
F000
F000
F000
FFE0
FFE0
FFE0
F000
F000
F000
F000
F000
F000
FFE0
FFE0
FFE0
ENDCHAR
STARTCHAR uni1EBD
ENCODING 7869
SWIDTH 590 0
DWIDTH 17 0
BBX 15 21 1 0
BITMAP
0E18
1FF8
3FF0
31E0
0000
0000
07E0
1FF8
3FF8
7C3C
781C
F81E
FFFE
FFFE
FFFE
F800
7800
7C0C
3FFC
1FFC
07F8
ENDCHAR
STARTCHAR uni1EBE
ENCODING 7870
SWIDTH 560 0
DWIDTH 16 0
BBX 14 28 3 0
BITMAP
001C
0038
1F70
3F80
7B80
E1C0
0000
0000
FFE0
FFE0
FFE0
F000
F000
F000
F000
F000
FFE0
FFE0
FFE0
F000
F000
F000
F000
F000
F000
FFE0
FFE0
FFE0
ENDCHAR
STARTCHAR uni1EBF
ENCODING 7871
SWIDTH 590 0
DWIDTH 17 0
BBX 16 23 1 0
BITMAP
0007
000E
07DC
0FE0
1EF0
1830
0000
0000
07E0
1FF8
3FF8
7C3C
781C
F81E
FFFE
FFFE
FFFE
F800
7800
7C0C
3FFC
1FFC
07F8
ENDCHAR
STARTCHAR uni1EC0
ENCODING 7872
SWIDTH 560 0
DWIDTH 16 0
BBX 15 28 -1 0
BITMAP
F000
7800
19F0
03F8
07B8
0E1C
0000
0000
0FFE
0FFE
0FFE
0F00
0F00
0F00
0F00
0F00
0FFE
0FFE
0FFE
0F00
0F00
0F00
0F00
0F00
0F00
0FFE
0FFE
0FFE
ENDCHAR
STARTCHAR uni1EC1
ENCODING 7873
SWIDTH 590 0
DWIDTH 17 0
BBX 16 23 0 0
BITMAP
E000
7000
3BE0
07F0
0778
0E1C
0000
0000
03F0
0FFC
1FFC
3E1E
3C0E
7C0F
7FFF
7FFF
7FFF
7C00
3C00
3E06
1FFE
0FFE
03FC
ENDCHAR
STARTCHAR uni1EC2
ENCODING 7874
SWIDTH 560 0
DWIDTH 16 0
BBX 13 29 3 0
BITMAP
0070
0078
0018
1F78
3FA0
7B80
E1C0
0000
0000
FFE0
FFE0
FFE0
F000
F000
F000
F000
F000
FFE0
FFE0
FFE0
F000
F000
F000
F000
F000
F000
FFE0
FFE0
FFE0
ENDCHAR
STARTCHAR uni1EC3
ENCODING 7875
SWIDTH 590 0
DWIDTH 17 0
BBX 15 24 1 0
BITMAP
001E
001E
0006
07CE
0FEC
1EF0
1830
0000
0000
07E0
1FF8
3FF8
7C3C
781C
F81E
FFFE
FFFE
FFFE
F800
7800
7C0C
3FFC
1FFC
07F8
ENDCHAR
STARTCHAR uni1EC4
ENCODING 7876
SWIDTH 560 0
DWIDTH 16 0
BBX 11 30 3 0
BITMAP
3CC0
7FC0
6780
0000
1F00
3F00
7B80
E0C0
0000
0000
FFE0
FFE0
FFE0
F000
F000
F000
F000
F000
FFE0
FFE0
FFE0
F000
F000
F000
F000
F000
F000
FFE0
FFE0
FFE0
ENDCHAR
STARTCHAR uni1EC5
ENCODING 7877
SWIDTH 590 0
DWIDTH 17 0
BBX 15 25 1 0
BITMAP
0F30
1FF0
19E0
0000
07C0
0FE0
0EF0
1838
0000
0000
07E0
1FF8
3FF8
7C3C
781C
F81E
FFFE
FFFE
FFFE
F800
7800
7C0C
3FFC
1FFC
07F8
ENDCHAR
STARTCHAR uni1EC6
ENCODING 7878
SWIDTH 560 0
DWIDTH 16 0
BBX 11 32 3 -6
BITMAP
3F00
3F80
7BC0
E1E0
0000
0000
FFE0
FFE0
FFE0
F000
F000
F000
F000
F000
FFE0
FFE0
FFE0
F000
F000
F000
F000
F000
F000
FFE0
FFE0
FFE0
0000
0000
0E00
1E00
1E00
1E00
ENDCHAR
STARTCHAR uni1EC7
ENCODING 7879
SWIDTH 590 0
DWIDTH 17 0
BBX 15 27 1 -6
BITMAP
0FC0
0FE0
1EF0
3878
0000
0000
07E0
1FF8
3FF8
7C3C
781C
F81E
FFFE
FFFE
FFFE
F800
7800
7C0C
3FFC
1FFC
07F8
0000
0000
0380
0780
0780
0780
ENDCHAR
STARTCHAR uni1EC8
ENCODING 7880
SWIDTH 331 0
DWIDTH 9 0
BBX 6 29 2 0
BITMAP
F8
FC
BC
1C
3C
78
70
00
00
F8
F8
F8
F8
F8
F8
F8
F8
F8
F8
F8
F8
F8
F8
F8
F8
F8
F8
F8
F8
ENDCHAR
STARTCHAR uni1EC9
ENCODING 7881
SWIDTH 305 0
DWIDTH 9 0
BBX 6 24 2 0
BITMAP
F0
F8
3C
1C
3C
78
70
00
00
F0
F0
F0
F0
F0
F0
F0
F0
F0
F0
F0
F0
F0
F0
F0
ENDCHAR
STARTCHAR uni1ECA
ENCODING 7882
SWIDTH 331 0
DWIDTH 9 0
BBX 5 26 2 -6
BITMAP
F8
F8
F8
F8
F8
F8
F8
F8
F8
F8
F8
F8
F8
F8
F8
F8
F8
F8
F8
F8
00
00
70
F8
F8
70
ENDCHAR
STARTCHAR uni1ECB
ENCODING 7883
SWIDTH 305 0
DWIDTH 9 0
BBX 4 27 2 -6
BITMAP
70
F0
F0
70
00
00
F0
F0
F0
F0
F0
F0
F0
F0
F0
F0
F0
F0
F0
F0
F0
00
00
70
F0
F0
F0
ENDCHAR
STARTCHAR uni1ECC
ENCODING 7884
SWIDTH 795 0
DWIDTH 22 0
BBX 18 26 2 -6
BITMAP
03F000
1FFE00
3FFF00
7E1F80
7C0780
F807C0
F807C0
F003C0
F003C0
F003C0
F003C0
F003C0
F003C0
F007C0
F807C0
7C0F80
7E1F80
3FFF00
1FFE00
03F000
000000
000000
01E000
01E000
01E000
01E000
ENDCHAR
STARTCHAR uni1ECD
ENCODING 7885
SWIDTH 619 0
DWIDTH 17 0
BBX 15 21 1 -6
BITMAP
0FC0
1FF0
3FF8
7C7C
783C
F83E
F83E
F83E
F83E
F83E
783C
7C7C
3FF8
1FF0
0FE0
0000
0000
0380
07C0
07C0
0380
ENDCHAR
STARTCHAR uni1ECE
ENCODING 7886
SWIDTH 795 0
DWIDTH 22 0
BBX 18 29 2 0
BITMAP
03E000
03F000
027800
007800
007000
00F000
00C000
000000
000000
03F000
1FFE00
3FFF00
7E1F80
7C0780
F807C0
F807C0
F003C0
F003C0
F003C0
F003C0
F003C0
F003C0
F007C0
F807C0
7C0F80
7E1F80
3FFF00
1FFE00
03F000
ENDCHAR
STARTCHAR uni1ECF
ENCODING 7887
SWIDTH 619 0
DWIDTH 17 0
BBX 15 24 1 0
BITMAP
07C0
07E0
05E0
00E0
01E0
03C0
0380
0000
0000
0FC0
1FF0
3FF8
7C7C
783C
F83E
F83E
F83E
F83E
F83E
783C
7C7C
3FF8
1FF0
0FE0
ENDCHAR
STARTCHAR uni1ED0
ENCODING 7888
SWIDTH 795 0
DWIDTH 22 0
BBX 18 28 2 0
BITMAP
0001C0
000380
03F700
03F000
073800
0E1C00
000000
000000
03F000
1FFE00
3FFF00
7E1F80
7C0780
F807C0
F807C0
F003C0
F003C0
F003C0
F003C0
F003C0
F003C0
F007C0
F807C0
7C0F80
7E1F80
3FFF00
1FFE00
03F000
ENDCHAR
STARTCHAR uni1ED1
ENCODING 7889
SWIDTH 619 0
DWIDTH 17 0
BBX 16 23 1 0
BITMAP
0007
000E
07CC
0FE0
1EF0
1838
0000
0000
0FC0
1FF0
3FF8
7C7C
783C
F83E
F83E
F83E
F83E
F83E
783C
7C7C
3FF8
1FF0
0FE0
ENDCHAR
STARTCHAR uni1ED2
ENCODING 7890
SWIDTH 795 0
DWIDTH 22 0
BBX 18 28 2 0
BITMAP
F00000
700000
39F000
03F000
073800
0E1C00
000000
000000
03F000
1FFE00
3FFF00
7E1F80
7C0780
F807C0
F807C0
F003C0
F003C0
F003C0
F003C0
F003C0
F003C0
F007C0
F807C0
7C0F80
7E1F80
3FFF00
1FFE00
03F000
ENDCHAR
STARTCHAR uni1ED3
ENCODING 7891
SWIDTH 619 0
DWIDTH 17 0
BBX 16 23 0 0
BITMAP
E000
7000
3BE0
07F0
0778
0E1C
0000
0000
07E0
0FF8
1FFC
3E3E
3C1E
7C1F
7C1F
7C1F
7C1F
7C1F
3C1E
3E3E
1FFC
0FF8
07F0
ENDCHAR
STARTCHAR uni1ED4
ENCODING 7892
SWIDTH 795 0
DWIDTH 22 0
BBX 18 29 2 0
BITMAP
000700
000780
000180
03F700
03F600
073800
0E1C00
000000
000000
03F000
1FFE00
3FFF00
7E1F80
7C0780
F807C0
F807C0
F003C0
F003C0
F003C0
F003C0
F003C0
F003C0
F007C0
F807C0
7C0F80
7E1F80
3FFF00
1FFE00
03F000
ENDCHAR
STARTCHAR uni1ED5
ENCODING 7893
SWIDTH 619 0
DWIDTH 17 0
BBX 15 24 1 0
BITMAP
001E
001E
0006
07CE
0FEC
1EF0
1838
0000
0000
0FC0
1FF0
3FF8
7C7C
783C
F83E
F83E
F83E
F83E
F83E
783C
7C7C
3FF8
1FF0
0FE0
ENDCHAR
STARTCHAR uni1ED6
ENCODING 7894
SWIDTH 795 0
DWIDTH 22 0
BBX 18 30 2 0
BITMAP
038C00
07F800
0C7800
000000
01E000
03F000
073800
0E1C00
000000
000000
03F000
1FFE00
3FFF00
7E1F80
7C0780
F807C0
F807C0
F003C0
F003C0
F003C0
F003C0
F003C0
F003C0
F007C0
F807C0
7C0F80
7E1F80
3FFF00
1FFE00
03F000
ENDCHAR
STARTCHAR uni1ED7
ENCODING 7895
SWIDTH 619 0
DWIDTH 17 0
BBX 15 25 1 0
BITMAP
0F10
1FF0
19E0
0000
07C0
07E0
0EF0
1838
0000
0000
0FC0
1FF0
3FF8
7C7C
783C
F83E
F83E
F83E
F83E
F83E
783C
7C7C
3FF8
1FF0
0FE0
ENDCHAR
STARTCHAR uni1ED8
ENCODING 7896
SWIDTH 795 0
DWIDTH 22 0
BBX 18 32 2 -6
BITMAP
03F000
07F800
0FBC00
1E1E00
000000
000000
03F000
1FFE00
3FFF00
7E1F80
7C0780
F807C0
F807C0
F003C0
F003C0
F003C0
F003C0
F003C0
F003C0
F007C0
F807C0
7C0F80
7E1F80
3FFF00
1FFE00
03F000
000000
000000
01E000
01E000
01E000
01E000
ENDCHAR
STARTCHAR uni1ED9
ENCODING 7897
SWIDTH 619 0
DWIDTH 17 0
BBX 15 27 1 -6
BITMAP
07C0
0FE0
1EF0
3838
0000
0000
0FC0
1FF0
3FF8
7C7C
783C
F83E
F83E
F83E
F83E
F83E
783C
7C7C
3FF8
1FF0
0FE0
0000
0000
0380
07C0
07C0
0380
ENDCHAR
STARTCHAR uni1EDA
ENCODING 7898
SWIDTH 825 0
DWIDTH 23 0
BBX 22 26 2 0
BITMAP
007C00
00F800
01E000
01C000
000000
00007C
03F878
1FFE78
3FFFF8
7E1FF0
7C07E0
F807C0
F807C0
F003C0
F003C0
F003C0
F003C0
F003C0
F003C0
F007C0
F807C0
7C0F80
7E1F80
3FFF00
1FFE00
03F000
ENDCHAR
STARTCHAR uni1EDB
ENCODING 7899
SWIDTH 679 0
DWIDTH 19 0
BBX 19 21 1 0
BITMAP
00F800
01F000
03C000
078000
0001E0
0003E0
0FE3C0
1FF7C0
3FFF80
7C7E00
783C00
F83E00
F83E00
F83E00
F83E00
F83E00
783C00
7C7C00
3FF800
1FF000
0FE000
ENDCHAR
STARTCHAR uni1EDC
ENCODING 7900
SWIDTH 825 0
DWIDTH 23 0
BBX 22 26 2 0
BITMAP
0F8000
07C000
01E000
00F000
000000
00007C
03F878
1FFE78
3FFFF8
7E1FF0
7C07E0
F807C0
F807C0
F003C0
F003C0
F003C0
F003C0
F003C0
F003C0
F007C0
F807C0
7C0F80
7E1F80
3FFF00
1FFE00
03F000
ENDCHAR
STARTCHAR uni1EDD
ENCODING 7901
SWIDTH 679 0
DWIDTH 19 0
BBX 19 21 1 0
BITMAP
1E0000
0F0000
078000
01C000
0001E0
0003E0
0FE3C0
1FF7C0
3FFF80
7C7E00
783C00
F83E00
F83E00
F83E00
F83E00
F83E00
783C00
7C7C00
3FF800
1FF000
0FE000
ENDCHAR
STARTCHAR uni1EDE
ENCODING 7902
SWIDTH 825 0
DWIDTH 23 0
BBX 22 29 2 0
BITMAP
01F000
01F800
007800
003800
007800
00F000
00E000
000000
00007C
03F878
1FFE78
3FFFF8
7E1FF0
7C07E0
F807C0
F807C0
F003C0
F003C0
F003C0
F003C0
F003C0
F003C0
F007C0
F807C0
7C0F80
7E1F80
3FFF00
1FFE00
03F000
ENDCHAR
STARTCHAR uni1EDF
ENCODING 7903
SWIDTH 679 0
DWIDTH 19 0
BBX 19 24 1 0
BITMAP
07C000
07E000
04E000
00E000
01E000
03C000
018000
0001E0
0003E0
0FE3C0
1FF7C0
3FFF80
7C7E00
783C00
F83E00
F83E00
F83E00
F83E00
F83E00
783C00
7C7C00
3FF800
1FF000
0FE000
ENDCHAR
STARTCHAR uni1EE0
ENCODING 7904
SWIDTH 825 0
DWIDTH 23 0
BBX 22 26 2 0
BITMAP
078600
0FFE00
0FFC00
0C7800
000000
00007C
03F878
1FFE78
3FFFF8
7E1FF0
7C07E0
F807C0
F807C0
F003C0
F003C0
F003C0
F003C0
F003C0
F003C0
F007C0
F807C0
7C0F80
7E1F80
3FFF00
1FFE00
03F000
ENDCHAR
STARTCHAR uni1EE1
ENCODING 7905
SWIDTH 679 0
DWIDTH 19 0
BBX 19 21 1 0
BITMAP
0F1800
1FF800
3FF800
30F000
0001E0
0003E0
0FE3C0
1FF7C0
3FFF80
7C7E00
783C00
F83E00
F83E00
F83E00
F83E00
F83E00
783C00
7C7C00
3FF800
1FF000
0FE000
ENDCHAR
STARTCHAR uni1EE2
ENCODING 7906
SWIDTH 825 0
DWIDTH 23 0
BBX 22 27 2 -6
BITMAP
00007C
03F878
1FFE78
3FFFF8
7E1FF0
7C07E0
F807C0
F807C0
F003C0
F003C0
F003C0
F003C0
F003C0
F003C0
F007C0
F807C0
7C0F80
7E1F80
3FFF00
1FFE00
03F000
000000
000000
01E000
01E000
01E000
01E000
ENDCHAR
STARTCHAR uni1EE3
ENCODING 7907
SWIDTH 679 0
DWIDTH 19 0
BBX 19 23 1 -6
BITMAP
0001E0
0003E0
0FE3C0
1FF7C0
3FFF80
7C7E00
783C00
F83E00
F83E00
F83E00
F83E00
F83E00
783C00
7C7C00
3FF800
1FF000
0FE000
000000
000000
038000
07C000
07C000
038000
ENDCHAR
STARTCHAR uni1EE4
ENCODING 7908
SWIDTH 755 0
DWIDTH 21 0
BBX 17 26 2 -6
BITMAP
F80F80
F80F80
F80F80
F80F80
F80F80
F80F80
F80F80
F80F80
F80F80
F80F80
F80F80
F80F80
F80F80
F80F80
780F00
780F00
7C1F00
3FFE00
1FFC00
07F000
000000
000000
01C000
03E000
03E000
01C000
ENDCHAR
STARTCHAR uni1EE5
ENCODING 7909
SWIDTH 657 0
DWIDTH 18 0
BBX 14 21 2 -6
BITMAP
F03C
F03C
F03C
F03C
F03C
F03C
F03C
F03C
F03C
F07C
F07C
F8FC
7FFC
7FBC
1F3C
0000
0000
0780
0780
0780
0780
ENDCHAR
STARTCHAR uni1EE6
ENCODING 7910
SWIDTH 755 0
DWIDTH 21 0
BBX 17 29 2 0
BITMAP
03E000
03F000
00F000
007000
00F000
01E000
01C000
000000
000000
F80F80
F80F80
F80F80
F80F80
F80F80
F80F80
F80F80
F80F80
F80F80
F80F80
F80F80
F80F80
F80F80
F80F80
780F00
780F00
7C1F00
3FFE00
1FFC00
07F000
ENDCHAR
STARTCHAR uni1EE7
ENCODING 7911
SWIDTH 657 0
DWIDTH 18 0
BBX 14 24 2 0
BITMAP
0F80
0FC0
09E0
01E0
03C0
0380
0300
0000
0000
F03C
F03C
F03C
F03C
F03C
F03C
F03C
F03C
F03C
F07C
F07C
F8FC
7FFC
7FBC
1F3C
ENDCHAR
STARTCHAR uni1EE8
ENCODING 7912
SWIDTH 884 0
DWIDTH 25 0
BBX 23 26 2 0
BITMAP
007C00
00F800
01E000
01C000
000000
00001E
F80FBE
F80FBC
F80FFC
F80FF8
F80FF0
F80F80
F80F80
F80F80
F80F80
F80F80
F80F80
F80F80
F80F80
F80F80
780F00
780F00
7C1F00
3FFE00
1FFC00
07F000
ENDCHAR
STARTCHAR uni1EE9
ENCODING 7913
SWIDTH 759 0
DWIDTH 21 0
BBX 20 21 2 0
BITMAP
00F000
01E000
03C000
070000
0000F0
0000F0
F03DE0
F03DE0
F03FC0
F03F00
F03C00
F03C00
F03C00
F03C00
F03C00
F07C00
F07C00
F8FC00
7FFC00
7FBC00
1F3C00
ENDCHAR
STARTCHAR uni1EEA
ENCODING 7914
SWIDTH 884 0
DWIDTH 25 0
BBX 23 26 2 0
BITMAP
1F0000
0F8000
03C000
01E000
000000
00001E
F80FBE
F80FBC
F80FFC
F80FF8
F80FF0
F80F80
F80F80
F80F80
F80F80
F80F80
F80F80
F80F80
F80F80
F80F80
780F00
780F00
7C1F00
3FFE00
1FFC00
07F000
ENDCHAR
STARTCHAR uni1EEB
ENCODING 7915
SWIDTH 759 0
DWIDTH 21 0
BBX 20 21 2 0
BITMAP
3C0000
1E0000
0F0000
038000
0000F0
0000F0
F03DE0
F03DE0
F03FC0
F03F00
F03C00
F03C00
F03C00
F03C00
F03C00
F07C00
F07C00
F8FC00
7FFC00
7FBC00
1F3C00
ENDCHAR
STARTCHAR uni1EEC
ENCODING 7916
SWIDTH 884 0
DWIDTH 25 0
BBX 23 29 2 0
BITMAP
03E000
03F000
02F000
007000
00F000
01E000
01C000
000000
00001E
F80FBE
F80FBC
F80FFC
F80FF8
F80FF0
F80F80
F80F80
F80F80
F80F80
F80F80
F80F80
F80F80
F80F80
F80F80
780F00
780F00
7C1F00
3FFE00
1FFC00
07F000
ENDCHAR
STARTCHAR uni1EED
ENCODING 7917
SWIDTH 759 0
DWIDTH 21 0
BBX 20 24 2 0
BITMAP
0F8000
0FC000
09E000
01E000
01C000
03C000
030000
0000F0
0000F0
F03DE0
F03DE0
F03FC0
F03F00
F03C00
F03C00
F03C00
F03C00
F03C00
F07C00
F07C00
F8FC00
7FFC00
7FBC00
1F3C00
ENDCHAR
STARTCHAR uni1EEE
ENCODING 7918
SWIDTH 884 0
DWIDTH 25 0
BBX 23 26 2 0
BITMAP
078C00
0FFC00
1FF800
187000
000000
00001E
F80FBE
F80FBC
F80FFC
F80FF8
F80FF0
F80F80
F80F80
F80F80
F80F80
F80F80
F80F80
F80F80
F80F80
F80F80
780F00
780F00
7C1F00
3FFE00
1FFC00
07F000
ENDCHAR
STARTCHAR uni1EEF
ENCODING 7919
SWIDTH 759 0
DWIDTH 21 0
BBX 20 21 2 0
BITMAP
1E1800
3FF800
3FF000
31E000
0000F0
0000F0
F03DE0
F03DE0
F03FC0
F03F00
F03C00
F03C00
F03C00
F03C00
F03C00
F07C00
F07C00
F8FC00
7FFC00
7FBC00
1F3C00
ENDCHAR
STARTCHAR uni1EF0
ENCODING 7920
SWIDTH 884 0
DWIDTH 25 0
BBX 23 27 2 -6
BITMAP
00001E
F80FBE
F80FBC
F80FFC
F80FF8
F80FF0
F80F80
F80F80
F80F80
F80F80
F80F80
F80F80
F80F80
F80F80
F80F80
780F00
780F00
7C1F00
3FFE00
1FFC00
07F000
000000
000000
01C000
03E000
03E000
01C000
ENDCHAR
STARTCHAR uni1EF1
ENCODING 7921
SWIDTH 759 0
DWIDTH 21 0
BBX 20 23 2 -6
BITMAP
0000F0
0000F0
F03DE0
F03DE0
F03FC0
F03F00
F03C00
F03C00
F03C00
F03C00
F03C00
F07C00
F07C00
F8FC00
7FFC00
7FBC00
1F3C00
000000
000000
078000
078000
078000
078000
ENDCHAR
STARTCHAR Ygrave
ENCODING 7922
SWIDTH 624 0
DWIDTH 17 0
BBX 17 26 0 0
BITMAP
1F0000
0F8000
03C000
01C000
000000
000000
F80F80
780F80
7C1F00
3C1E00
3E3E00
1E3C00
1F7C00
0F7800
0FF800
07F000
07F000
03E000
03E000
03E000
03E000
03E000
03E000
03E000
03E000
03E000
ENDCHAR
STARTCHAR ygrave
ENCODING 7923
SWIDTH 568 0
DWIDTH 16 0
BBX 16 28 0 -7
BITMAP
1E00
0F00
0780
01C0
0000
0000
F81F
781E
781E
7C3E
3C3C
3C3C
1E7C
1E78
1E78
0FF0
0FF0
07F0
07E0
07E0
03E0
03C0
03C0
0780
0F80
7F00
7E00
7C00
ENDCHAR
STARTCHAR uni1EF4
ENCODING 7924
SWIDTH 624 0
DWIDTH 17 0
BBX 17 26 0 -6
BITMAP
F80F80
780F80
7C1F00
3C1E00
3E3E00
1E3C00
1F7C00
0F7800
0FF800
07F000
07F000
03E000
03E000
03E000
03E000
03E000
03E000
03E000
03E000
03E000
000000
000000
01C000
03E000
03E000
01C000
ENDCHAR
STARTCHAR uni1EF5
ENCODING 7925
SWIDTH 568 0
DWIDTH 16 0
BBX 16 22 0 -7
BITMAP
F81F
781E
781E
7C3E
3C3C
3C3C
1E7C
1E78
1E78
0FF0
0FF0
07F0
07E0
07E0
03E0
03C0
03C0
078E
0F9F
7F1F
7E0E
7C00
ENDCHAR
STARTCHAR uni1EF6
ENCODING 7926
SWIDTH 624 0
DWIDTH 17 0
BBX 17 29 0 0
BITMAP
03E000
03F000
02F000
007000
00F000
01E000
01C000
000000
000000
F80F80
780F80
7C1F00
3C1E00
3E3E00
1E3C00
1F7C00
0F7800
0FF800
07F000
07F000
03E000
03E000
03E000
03E000
03E000
03E000
03E000
03E000
03E000
ENDCHAR
STARTCHAR uni1EF7
ENCODING 7927
SWIDTH 568 0
DWIDTH 16 0
BBX 16 31 0 -7
BITMAP
07C0
07E0
04E0
00E0
01E0
03C0
0180
0000
0000
F81F
781E
781E
7C3E
3C3C
3C3C
1E7C
1E78
1E78
0FF0
0FF0
07F0
07E0
07E0
03E0
03C0
03C0
0780
0F80
7F00
7E00
7C00
ENDCHAR
STARTCHAR uni1EF8
ENCODING 7928
SWIDTH 624 0
DWIDTH 17 0
BBX 17 26 0 0
BITMAP
078C00
0FFC00
1FFC00
187800
000000
000000
F80F80
780F80
7C1F00
3C1E00
3E3E00
1E3C00
1F7C00
0F7800
0FF800
07F000
07F000
03E000
03E000
03E000
03E000
03E000
03E000
03E000
03E000
03E000
ENDCHAR
STARTCHAR uni1EF9
ENCODING 7929
SWIDTH 568 0
DWIDTH 16 0
BBX 16 28 0 -7
BITMAP
0F1C
1FF8
1FF8
38F0
0000
0000
F81F
781E
781E
7C3E
3C3C
3C3C
1E7C
1E78
1E78
0FF0
0FF0
07F0
07E0
07E0
03E0
03C0
03C0
0780
0F80
7F00
7E00
7C00
ENDCHAR
STARTCHAR uni1F4D
ENCODING 8013
SWIDTH 835 0
DWIDTH 23 0
BBX 26 20 -5 0
BITMAP
7783F800
C71FFE00
E63FFF00
EE7E1F80
007C0780
00F807C0
00F803C0
00F003C0
00F003C0
00F003C0
00F003C0
00F003C0
00F003C0
00F803C0
00F807C0
007C0780
007E1F80
003FFF00
001FFE00
0003F800
ENDCHAR
STARTCHAR uni2000
ENCODING 8192
SWIDTH 500 0
DWIDTH 14 0
BBX 1 1 0 0
BITMAP
00
ENDCHAR
STARTCHAR uni2001
ENCODING 8193
SWIDTH 1000 0
DWIDTH 28 0
BBX 1 1 0 0
BITMAP
00
ENDCHAR
STARTCHAR uni2002
ENCODING 8194
SWIDTH 500 0
DWIDTH 14 0
BBX 1 1 0 0
BITMAP
00
ENDCHAR
STARTCHAR uni2003
ENCODING 8195
SWIDTH 1000 0
DWIDTH 28 0
BBX 1 1 0 0
BITMAP
00
ENDCHAR
STARTCHAR uni2004
ENCODING 8196
SWIDTH 333 0
DWIDTH 9 0
BBX 1 1 0 0
BITMAP
00
ENDCHAR
STARTCHAR uni2005
ENCODING 8197
SWIDTH 250 0
DWIDTH 7 0
BBX 1 1 0 0
BITMAP
00
ENDCHAR
STARTCHAR uni2006
ENCODING 8198
SWIDTH 166 0
DWIDTH 5 0
BBX 1 1 0 0
BITMAP
00
ENDCHAR
STARTCHAR uni2007
ENCODING 8199
SWIDTH 559 0
DWIDTH 16 0
BBX 1 1 0 0
BITMAP
00
ENDCHAR
STARTCHAR uni2008
ENCODING 8200
SWIDTH 285 0
DWIDTH 8 0
BBX 1 1 0 0
BITMAP
00
ENDCHAR
STARTCHAR uni2009
ENCODING 8201
SWIDTH 200 0
DWIDTH 6 0
BBX 1 1 0 0
BITMAP
00
ENDCHAR
STARTCHAR uni200A
ENCODING 8202
SWIDTH 100 0
DWIDTH 3 0
BBX 1 1 0 0
BITMAP
00
ENDCHAR
STARTCHAR uni200B
ENCODING 8203
SWIDTH 0 0
DWIDTH 0 0
BBX 1 1 0 0
BITMAP
00
ENDCHAR
STARTCHAR endash
ENCODING 8211
SWIDTH 500 0
DWIDTH 14 0
BBX 12 3 1 6
BITMAP
FFF0
FFF0
FFF0
ENDCHAR
STARTCHAR emdash
ENCODING 8212
SWIDTH 1000 0
DWIDTH 28 0
BBX 26 3 1 6
BITMAP
FFFFFFC0
FFFFFFC0
FFFFFFC0
ENDCHAR
STARTCHAR afii00208
ENCODING 8213
SWIDTH 1000 0
DWIDTH 28 0
BBX 26 3 1 6
BITMAP
FFFFFFC0
FFFFFFC0
FFFFFFC0
ENDCHAR
STARTCHAR underscoredbl
ENCODING 8215
SWIDTH 411 0
DWIDTH 12 0
BBX 12 6 0 -6
BITMAP
FFF0
FFF0
0000
0000
FFF0
FFF0
ENDCHAR
STARTCHAR quoteleft
ENCODING 8216
SWIDTH 216 0
DWIDTH 6 0
BBX 6 7 0 13
BITMAP
3C
38
38
78
78
78
F0
ENDCHAR
STARTCHAR quoteright
ENCODING 8217
SWIDTH 216 0
DWIDTH 6 0
BBX 6 7 0 13
BITMAP
3C
78
78
78
70
70
F0
ENDCHAR
STARTCHAR quotesinglbase
ENCODING 8218
SWIDTH 291 0
DWIDTH 8 0
BBX 5 7 1 -4
BITMAP
78
78
78
70
F0
F0
E0
ENDCHAR
STARTCHAR quotereversed
ENCODING 8219
SWIDTH 215 0
DWIDTH 6 0
BBX 6 7 0 13
BITMAP
F0
78
78
78
38
38
3C
ENDCHAR
STARTCHAR quotedblleft
ENCODING 8220
SWIDTH 444 0
DWIDTH 12 0
BBX 12 7 0 13
BITMAP
3CF0
38E0
38E0
79E0
79E0
79E0
F3C0
ENDCHAR
STARTCHAR quotedblright
ENCODING 8221
SWIDTH 444 0
DWIDTH 12 0
BBX 12 7 0 13
BITMAP
3CF0
79E0
79E0
79E0
71C0
71C0
F3C0
ENDCHAR
STARTCHAR quotedblbase
ENCODING 8222
SWIDTH 518 0
DWIDTH 15 0
BBX 11 7 1 -4
BITMAP
79E0
79E0
79E0
71C0
F3C0
F3C0
E380
ENDCHAR
STARTCHAR dagger
ENCODING 8224
SWIDTH 516 0
DWIDTH 14 0
BBX 10 21 2 0
BITMAP
1E00
1E00
1E00
0C00
0C00
FFC0
FFC0
FFC0
0C00
0C00
0C00
0C00
0C00
1C00
1C00
1E00
1E00
1E00
1E00
1E00
1E00
ENDCHAR
STARTCHAR daggerdbl
ENCODING 8225
SWIDTH 525 0
DWIDTH 15 0
BBX 11 21 2 0
BITMAP
0E00
0E00
0E00
0E00
0E00
FFE0
FFE0
FFE0
0E00
0E00
0E00
0E00
0E00
FFE0
FFE0
FFE0
0E00
0E00
0E00
0E00
0E00
ENDCHAR
STARTCHAR bullet
ENCODING 8226
SWIDTH 375 0
DWIDTH 11 0
BBX 8 9 1 6
BITMAP
3C
7E
7F
FF
FF
FF
7F
7E
3C
ENDCHAR
STARTCHAR ellipsis
ENCODING 8230
SWIDTH 854 0
DWIDTH 24 0
BBX 20 5 2 0
BITMAP
F0F0F0
F0F0F0
F0F0F0
F0F0F0
F0F0F0
ENDCHAR
STARTCHAR perthousand
ENCODING 8240
SWIDTH 1280 0
DWIDTH 36 0
BBX 34 20 1 0
BITMAP
3E01C00000
7F03C00000
7F83800000
F787800000
E387000000
E38F000000
E38E000000
E39CF81F00
E39DFC3F80
F7BBFC7F80
7FBBDE7BC0
7F738E71C0
3EF38E71C0
00E38E71C0
01E38E71C0
01C38E71C0
03C39E73C0
0383FC7F80
0781FC3F80
0700F81F00
ENDCHAR
STARTCHAR minute
ENCODING 8242
SWIDTH 266 0
DWIDTH 7 0
BBX 4 7 2 13
BITMAP
F0
F0
E0
E0
E0
E0
E0
ENDCHAR
STARTCHAR second
ENCODING 8243
SWIDTH 472 0
DWIDTH 13 0
BBX 10 7 2 13
BITMAP
F3C0
F3C0
E380
E380
E380
E380
E380
ENDCHAR
STARTCHAR guilsinglleft
ENCODING 8249
SWIDTH 368 0
DWIDTH 10 0
BBX 8 13 1 1
BITMAP
0C
0F
1E
3C
7C
F8
F0
F8
7C
3C
1E
0F
0C
ENDCHAR
STARTCHAR guilsinglright
ENCODING 8250
SWIDTH 368 0
DWIDTH 10 0
BBX 8 13 1 1
BITMAP
30
F0
78
3C
3E
1F
0F
1F
3E
3C
78
F0
30
ENDCHAR
STARTCHAR exclamdbl
ENCODING 8252
SWIDTH 569 0
DWIDTH 16 0
BBX 12 20 2 0
BITMAP
F0F0
F0F0
F0F0
F0F0
F0F0
F0F0
F0F0
F0F0
F0F0
F0F0
F0F0
F0F0
F0F0
0000
0000
F0F0
F0F0
F0F0
F0F0
F0F0
ENDCHAR
STARTCHAR fraction
ENCODING 8260
SWIDTH 129 0
DWIDTH 4 0
BBX 14 20 -5 0
BITMAP
003C
0038
0078
0070
00E0
00E0
01C0
01C0
0380
0780
0700
0F00
0E00
1E00
1C00
3800
3800
7000
F000
E000
ENDCHAR
STARTCHAR zerosuperior
ENCODING 8304
SWIDTH 378 0
DWIDTH 11 0
BBX 9 12 1 8
BITMAP
3E00
7F00
FF80
E380
E380
E380
E380
E380
E380
FF80
7F00
3E00
ENDCHAR
STARTCHAR foursuperior
ENCODING 8308
SWIDTH 378 0
DWIDTH 11 0
BBX 11 12 0 8
BITMAP
0780
0780
0F80
1F80
1B80
3380
7380
6380
FFE0
FFE0
0380
0380
ENDCHAR
STARTCHAR fivesuperior
ENCODING 8309
SWIDTH 378 0
DWIDTH 11 0
BBX 9 12 1 8
BITMAP
7F00
7F00
7F00
6000
FE00
FF00
0780
0380
0380
EF80
FF00
7E00
ENDCHAR
STARTCHAR sixsuperior
ENCODING 8310
SWIDTH 378 0
DWIDTH 11 0
BBX 9 12 1 8
BITMAP
0300
0F00
3E00
7800
EF00
FF80
E380
E380
E380
F780
7F00
3E00
ENDCHAR
STARTCHAR sevensuperior
ENCODING 8311
SWIDTH 378 0
DWIDTH 11 0
BBX 9 12 1 8
BITMAP
FF80
FF80
FF80
0380
0700
0700
0E00
0E00
1C00
1C00
3800
7800
ENDCHAR
STARTCHAR eightsuperior
ENCODING 8312
SWIDTH 378 0
DWIDTH 11 0
BBX 9 12 1 8
BITMAP
3E00
7F00
E380
E380
7F00
7E00
7F00
E780
E380
E380
FF80
3E00
ENDCHAR
STARTCHAR ninesuperior
ENCODING 8313
SWIDTH 378 0
DWIDTH 11 0
BBX 9 12 1 8
BITMAP
3E00
7F00
F780
E380
E380
E380
FF80
7B80
0380
5F00
7E00
7C00
ENDCHAR
STARTCHAR nsuperior
ENCODING 8319
SWIDTH 422 0
DWIDTH 12 0
BBX 10 10 1 10
BITMAP
EF00
FF80
FBC0
E1C0
E1C0
E1C0
E1C0
E1C0
E1C0
E1C0
ENDCHAR
STARTCHAR franc
ENCODING 8355
SWIDTH 570 0
DWIDTH 16 0
BBX 15 20 0 0
BITMAP
1FFE
1FFE
1FFE
1E00
1E00
1E00
1E00
1E00
1FFC
1FFC
1FFC
1E00
1E00
1E00
FFE0
FFE0
1E00
1E00
1E00
1E00
ENDCHAR
STARTCHAR afii08941
ENCODING 8356
SWIDTH 570 0
DWIDTH 16 0
BBX 14 20 1 0
BITMAP
03F0
0FFC
1FF8
1E18
1E00
1E00
1E00
FFF0
FFF0
1E00
1E00
FFF0
FFF0
1E00
3C00
3C00
7800
FFFC
FFFC
FFFC
ENDCHAR
STARTCHAR peseta
ENCODING 8359
SWIDTH 892 0
DWIDTH 25 0
BBX 21 20 3 0
BITMAP
FF0000
FFC000
FFE000
E1F000
E0F000
E0F180
E0F180
E0F380
E0F7F8
E1FFF8
FFEFF8
FFC380
FF0380
E00380
E00380
E00380
E003C0
E003F8
E003F8
E000F8
ENDCHAR
STARTCHAR uni20AB
ENCODING 8363
SWIDTH 648 0
DWIDTH 18 0
BBX 17 25 1 -4
BITMAP
003C00
003C00
03FF80
03FF80
03FF80
003C00
1F3C00
3FFC00
7FFC00
7C7C00
783C00
F83C00
F83C00
F83C00
F83C00
F83C00
783C00
7C7C00
7FFC00
3FBC00
1F1C00
000000
000000
3FFC00
3FFC00
ENDCHAR
STARTCHAR Euro
ENCODING 8364
SWIDTH 570 0
DWIDTH 16 0
BBX 15 20 1 0
BITMAP
01F8
07FE
0FFC
1F0C
3E00
3C00
3C00
FFE0
FFE0
7C00
7C00
FFE0
FFE0
3C00
3C00
3E00
1F04
0FFC
07FC
01FC
ENDCHAR
STARTCHAR afii61248
ENCODING 8453
SWIDTH 794 0
DWIDTH 22 0
BBX 20 20 1 0
BITMAP
3E0700
7E0700
F20E00
E01E00
E01C00
E03C00
E03800
F27800
7E7000
3EF000
00E7C0
01CFE0
01CEF0
039C70
079C70
071C70
0F1C70
0E0E70
1E0FE0
1C07C0
ENDCHAR
STARTCHAR afii61289
ENCODING 8467
SWIDTH 520 0
DWIDTH 15 0
BBX 13 20 1 0
BITMAP
07C0
1FE0
1FF0
3C70
3C78
3C70
3C70
3CF0
3DE0
3FC0
3F80
FE00
FC00
FC00
3C00
3C38
3E38
1FF0
1FF0
07C0
ENDCHAR
STARTCHAR afii61352
ENCODING 8470
SWIDTH 1027 0
DWIDTH 29 0
BBX 26 20 2 0
BITMAP
F81E0000
F81E0000
FC1E0000
FC1E0000
FE1E0000
FE1E0000
EF1E1F00
EF1E3F80
E79E7380
E79E71C0
E3DE61C0
F3DE61C0
F1EE71C0
F1EE7380
F0FE3F80
F0FE1F00
F07E0000
F07E7FC0
F03E7FC0
F03E7FC0
ENDCHAR
STARTCHAR uni2120
ENCODING 8480
SWIDTH 734 0
DWIDTH 21 0
BBX 19 10 1 10
BITMAP
7DE1E0
FDE1E0
C1F1E0
E1F3E0
79F3E0
3DDAE0
0DDEE0
0DDEE0
FDDCE0
F9CCE0
ENDCHAR
STARTCHAR trademark
ENCODING 8482
SWIDTH 749 0
DWIDTH 21 0
BBX 20 10 0 10
BITMAP
FF70F0
FF70F0
1878F0
1879F0
1879F0
186DF0
186F70
186F70
186770
186670
ENDCHAR
STARTCHAR Omega
ENCODING 8486
SWIDTH 786 0
DWIDTH 22 0
BBX 20 20 1 0
BITMAP
03FC00
0FFF00
1FFF80
3F0FC0
7C03E0
7C03E0
7801E0
F801E0
F801F0
7801E0
7801E0
7801E0
7801E0
3C03C0
3C03C0
1E0780
0F0F00
FF1FF0
FF1FF0
FF1FF0
ENDCHAR
STARTCHAR estimated
ENCODING 8494
SWIDTH 619 0
DWIDTH 17 0
BBX 15 15 1 0
BITMAP
07C0
1870
3018
701C
701C
701C
FFFE
F000
F000
7000
7000
7008
3018
1C70
07C0
ENDCHAR
STARTCHAR oneeighth
ENCODING 8539
SWIDTH 880 0
DWIDTH 25 0
BBX 23 20 1 0
BITMAP
1E0380
3E0780
7E0700
EE0E00
5E0E00
1E1C00
1E1C00
1E3800
1E79F8
1E73FC
1EF39C
1EE39C
01C3FC
01C1F8
0383FC
03879E
07070E
0F079E
0E03FC
1E01F8
ENDCHAR
STARTCHAR threeeighths
ENCODING 8540
SWIDTH 880 0
DWIDTH 25 0
BBX 23 20 1 0
BITMAP
3E01C0
FF03C0
670380
070700
070700
3E0E00
3E1E00
079C00
03BCF8
E7BBFC
FF7B9E
7E738E
00E3FC
00E1F8
01C1FC
01C39E
03878E
07838E
0703FC
0F01F8
ENDCHAR
STARTCHAR fiveeighths
ENCODING 8541
SWIDTH 880 0
DWIDTH 25 0
BBX 23 20 1 0
BITMAP
7F01C0
7F03C0
7F0380
600700
7E0700
FF0E00
079E00
039C00
03BCF8
EFBBFC
FF7B9E
7E738E
00E3FC
00E1F8
01C1FC
01C39E
03878E
07838E
0703FC
0F01F8
ENDCHAR
STARTCHAR seveneighths
ENCODING 8542
SWIDTH 880 0
DWIDTH 25 0
BBX 22 20 1 0
BITMAP
FF8380
FF8700
FF8F00
038E00
071E00
071C00
0E3C00
0E3800
1C71F0
1C73FC
38E79C
39E71C
01C3F8
03C1F0
0383F8
0787BC
07071C
0E071C
0E07FC
1C01F0
ENDCHAR
STARTCHAR partialdiff
ENCODING 8706
SWIDTH 581 0
DWIDTH 16 0
BBX 14 20 1 0
BITMAP
07C0
1FF0
1FF8
1878
007C
003C
07FC
1FFC
3FFC
7C7C
787C
F87C
F078
F078
F0F8
F0F0
F9F0
FFE0
7FC0
1F00
ENDCHAR
STARTCHAR Delta
ENCODING 8710
SWIDTH 658 0
DWIDTH 18 0
BBX 16 20 1 0
BITMAP
07E0
07E0
07E0
0FF0
0FF0
0FF0
1E78
1E78
1E78
3C3C
3C3C
3C3C
781E
781E
781E
F81F
F00F
FFFF
FFFF
FFFF
ENDCHAR
STARTCHAR product
ENCODING 8719
SWIDTH 741 0
DWIDTH 21 0
BBX 17 26 2 -6
BITMAP
FFFF80
FFFF80
FFFF80
F80F80
F80F80
F80F80
F80F80
F80F80
F80F80
F80F80
F80F80
F80F80
F80F80
F80F80
F80F80
F80F80
F80F80
F80F80
F80F80
F80F80
F80F80
F80F80
F80F80
F80F80
F80F80
F80F80
ENDCHAR
STARTCHAR summation
ENCODING 8721
SWIDTH 630 0
DWIDTH 18 0
BBX 17 26 1 -6
BITMAP
FFFF00
FFFF00
FFFF00
7C0000
3E0000
3E0000
1F0000
0F8000
07C000
07C000
03E000
01F000
00F000
01F000
03E000
07C000
07C000
0F8000
1F0000
1E0000
3E0000
7C0000
780000
FFFF80
FFFF80
FFFF80
ENDCHAR
STARTCHAR minus
ENCODING 8722
SWIDTH 570 0
DWIDTH 16 0
BBX 14 3 1 8
BITMAP
FFFC
FFFC
FFFC
ENDCHAR
STARTCHAR radical
ENCODING 8730
SWIDTH 548 0
DWIDTH 15 0
BBX 17 24 0 0
BITMAP
000380
000380
000700
000700
000700
000E00
000E00
001E00
001C00
001C00
003C00
F83800
F83800
FC7800
1C7000
1C7000
0EE000
0EE000
0EE000
07C000
07C000
03C000
038000
038000
ENDCHAR
STARTCHAR infinity
ENCODING 8734
SWIDTH 707 0
DWIDTH 20 0
BBX 16 9 2 5
BITMAP
3C3C
7E7E
FFFF
E3C7
C3C3
E3C7
FFFF
7E7E
3C3C
ENDCHAR
STARTCHAR integral
ENCODING 8747
SWIDTH 412 0
DWIDTH 12 0
BBX 12 28 0 -7
BITMAP
01F0
07F0
0FF0
0FF0
0F00
0F00
0F00
0F00
0F00
0F00
0F00
0F00
0F00
0F00
0F00
0F00
0F00
0F00
0F00
0F00
0F00
0F00
0F00
0F00
FF00
FE00
FE00
F800
ENDCHAR
STARTCHAR approxequal
ENCODING 8776
SWIDTH 570 0
DWIDTH 16 0
BBX 14 10 1 5
BITMAP
3C04
FF0C
FFFC
C3FC
80F0
3C04
FF0C
FFFC
C3FC
80F0
ENDCHAR
STARTCHAR notequal
ENCODING 8800
SWIDTH 570 0
DWIDTH 16 0
BBX 14 16 1 2
BITMAP
0040
00F0
00E0
01E0
FFFC
FFFC
FFFC
0380
0700
FFFC
FFFC
FFFC
1C00
1C00
3C00
0800
ENDCHAR
STARTCHAR lessequal
ENCODING 8804
SWIDTH 570 0
DWIDTH 16 0
BBX 14 18 1 0
BITMAP
0004
001C
00FC
03F8
0FE0
3F80
FC00
F800
7F00
1FE0
07F8
00FC
003C
0004
0000
FFFC
FFFC
FFFC
ENDCHAR
STARTCHAR greaterequal
ENCODING 8805
SWIDTH 570 0
DWIDTH 16 0
BBX 14 18 1 0
BITMAP
8000
E000
FC00
7F00
1FC0
07F0
00FC
007C
03F8
1FE0
7F80
FC00
F000
8000
0000
FFFC
FFFC
FFFC
ENDCHAR
STARTCHAR lozenge
ENCODING 9674
SWIDTH 583 0
DWIDTH 16 0
BBX 14 20 1 0
BITMAP
0300
0780
0780
0FC0
1FC0
1CE0
3CF0
3870
7878
F038
F03C
7878
3870
3CF0
1CE0
1FC0
0FC0
0780
0780
0300
ENDCHAR
STARTCHAR ff
ENCODING 64256
SWIDTH 773 0
DWIDTH 22 0
BBX 22 21 1 0
BITMAP
0FE1FC
1FE3FC
3FE7F8
3E0780
3C0780
3C0780
7FCFF8
FFFFF8
FFFFF8
3C0780
3C0780
3C0780
3C0780
3C0780
3C0780
3C0780
3C0780
3C0780
3C0780
3C0780
3C0780
ENDCHAR
STARTCHAR uniFB01
ENCODING 64257
SWIDTH 691 0
DWIDTH 19 0
BBX 16 21 1 0
BITMAP
0FEF
1FEF
3FEF
3E0F
3C00
3C00
7FCF
FFCF
FFCF
3C0F
3C0F
3C0F
3C0F
3C0F
3C0F
3C0F
3C0F
3C0F
3C0F
3C0F
3C0F
ENDCHAR
STARTCHAR uniFB02
ENCODING 64258
SWIDTH 691 0
DWIDTH 19 0
BBX 16 21 1 0
BITMAP
0FEF
1FEF
3FEF
3E0F
3C0F
3C0F
7FCF
FFCF
FFCF
3C0F
3C0F
3C0F
3C0F
3C0F
3C0F
3C0F
3C0F
3C0F
3C0F
3C0F
3C0F
ENDCHAR
STARTCHAR uniFB03
ENCODING 64259
SWIDTH 1078 0
DWIDTH 30 0
BBX 27 21 1 0
BITMAP
0FE1FDE0
1FE3FDE0
3FE7F9E0
3E0781E0
3C078000
3C078000
7FCFF9E0
FFFFF9E0
FFFFF9E0
3C0781E0
3C0781E0
3C0781E0
3C0781E0
3C0781E0
3C0781E0
3C0781E0
3C0781E0
3C0781E0
3C0781E0
3C0781E0
3C0781E0
ENDCHAR
STARTCHAR uniFB04
ENCODING 64260
SWIDTH 1078 0
DWIDTH 30 0
BBX 27 21 1 0
BITMAP
0FE1FDE0
1FE3FDE0
3FE7F9E0
3E0781E0
3C0781E0
3C0781E0
7FCFF9E0
FFFFF9E0
FFFFF9E0
3C0781E0
3C0781E0
3C0781E0
3C0781E0
3C0781E0
3C0781E0
3C0781E0
3C0781E0
3C0781E0
3C0781E0
3C0781E0
3C0781E0
ENDCHAR
STARTCHAR uniFEFF
ENCODING 65279
SWIDTH 0 0
DWIDTH 0 0
BBX 1 1 0 0
BITMAP
00
ENDCHAR
STARTCHAR uniFFFC
ENCODING 65532
SWIDTH 1000 0
DWIDTH 28 0
BBX 26 26 1 -5
BITMAP
F3DE73C0
F3DE73C0
C0000040
C0000040
00000000
00000000
C0000040
C0000040
C78F8C40
CECD8C40
0C6C8C00
C86F0C40
C86D8C40
CC6CCC40
CECDBC40
078FB800
00000000
C0000040
C0000040
C0000040
00000000
00000000
C0000040
C0000040
C0000040
F3DE73C0
ENDCHAR
STARTCHAR uniFFFD
ENCODING 65533
SWIDTH 1000 0
DWIDTH 28 0
BBX 26 25 1 -4
BITMAP
00080000
001E0000
003F0000
007F8000
00FFC000
01C0E000
03007000
07803800
0FBE3C00
1FFE3E00
3FFC7F00
7FF0FF80
FFE1FFC0
7FE3FF80
3FE3FF00
1FFFFE00
0FFFFC00
07F3F800
03E3F000
01E3E000
00E3C000
007F8000
003F0000
001E0000
00080000
ENDCHAR
STARTCHAR .notdef
ENCODING -1
SWIDTH 600 0
DWIDTH 17 0
BBX 11 20 3 0
BITMAP
FFE0
8020
8020
8020
8020
8020
8020
8020
8020
8020
8020
8020
8020
8020
8020
8020
8020
8020
8020
FFE0
ENDCHAR
STARTCHAR null
ENCODING -1
SWIDTH 0 0
DWIDTH 0 0
BBX 1 1 0 0
BITMAP
00
ENDCHAR
STARTCHAR nonmarkingreturn
ENCODING -1
SWIDTH 509 0
DWIDTH 14 0
BBX 1 1 0 0
BITMAP
00
ENDCHAR
STARTCHAR I.alt
ENCODING -1
SWIDTH 389 0
DWIDTH 11 0
BBX 9 20 1 0
BITMAP
FF80
FF80
FF80
3E00
3E00
3E00
3E00
3E00
3E00
3E00
3E00
3E00
3E00
3E00
3E00
3E00
3E00
FF80
FF80
FF80
ENDCHAR
STARTCHAR Igrave.alt
ENCODING -1
SWIDTH 389 0
DWIDTH 11 0
BBX 9 26 1 0
BITMAP
F800
7800
3C00
0E00
0000
0000
FF80
FF80
FF80
3E00
3E00
3E00
3E00
3E00
3E00
3E00
3E00
3E00
3E00
3E00
3E00
3E00
3E00
FF80
FF80
FF80
ENDCHAR
STARTCHAR Iacute.alt
ENCODING -1
SWIDTH 389 0
DWIDTH 11 0
BBX 10 26 1 0
BITMAP
07C0
0F80
1E00
3C00
0000
0000
FF80
FF80
FF80
3E00
3E00
3E00
3E00
3E00
3E00
3E00
3E00
3E00
3E00
3E00
3E00
3E00
3E00
FF80
FF80
FF80
ENDCHAR
STARTCHAR Icircumflex.alt
ENCODING -1
SWIDTH 389 0
DWIDTH 11 0
BBX 11 26 0 0
BITMAP
1F00
3F80
7BC0
E0E0
0000
0000
7FC0
7FC0
7FC0
1F00
1F00
1F00
1F00
1F00
1F00
1F00
1F00
1F00
1F00
1F00
1F00
1F00
1F00
7FC0
7FC0
7FC0
ENDCHAR
STARTCHAR Idieresis.alt
ENCODING -1
SWIDTH 389 0
DWIDTH 11 0
BBX 10 26 1 0
BITMAP
6180
E3C0
F3C0
E380
0000
0000
FF80
FF80
FF80
3E00
3E00
3E00
3E00
3E00
3E00
3E00
3E00
3E00
3E00
3E00
3E00
3E00
3E00
FF80
FF80
FF80
ENDCHAR
STARTCHAR Itilde.alt
ENCODING -1
SWIDTH 389 0
DWIDTH 11 0
BBX 11 26 0 0
BITMAP
3860
7FE0
FFC0
C780
0000
0000
7FC0
7FC0
7FC0
1F00
1F00
1F00
1F00
1F00
1F00
1F00
1F00
1F00
1F00
1F00
1F00
1F00
1F00
7FC0
7FC0
7FC0
ENDCHAR
STARTCHAR Imacron.alt
ENCODING -1
SWIDTH 389 0
DWIDTH 11 0
BBX 9 25 1 0
BITMAP
FF80
FF80
FF80
0000
0000
FF80
FF80
FF80
3E00
3E00
3E00
3E00
3E00
3E00
3E00
3E00
3E00
3E00
3E00
3E00
3E00
3E00
FF80
FF80
FF80
ENDCHAR
STARTCHAR Ibreve.alt
ENCODING -1
SWIDTH 389 0
DWIDTH 11 0
BBX 11 27 0 0
BITMAP
C0E0
E0E0
7FC0
7F80
1F00
0000
0000
7FC0
7FC0
7FC0
1F00
1F00
1F00
1F00
1F00
1F00
1F00
1F00
1F00
1F00
1F00
1F00
1F00
1F00
7FC0
7FC0
7FC0
ENDCHAR
STARTCHAR Iogonek.alt
ENCODING -1
SWIDTH 389 0
DWIDTH 11 0
BBX 9 27 1 -7
BITMAP
FF80
FF80
FF80
3E00
3E00
3E00
3E00
3E00
3E00
3E00
3E00
3E00
3E00
3E00
3E00
3E00
3E00
FF80
FF80
FF80
1800
3800
7000
7000
7E00
7E00
3E00
ENDCHAR
STARTCHAR Idotaccent.alt
ENCODING -1
SWIDTH 389 0
DWIDTH 11 0
BBX 9 26 1 0
BITMAP
1C00
3E00
3E00
1C00
0000
0000
FF80
FF80
FF80
3E00
3E00
3E00
3E00
3E00
3E00
3E00
3E00
3E00
3E00
3E00
3E00
3E00
3E00
FF80
FF80
FF80
ENDCHAR
STARTCHAR IJ.alt
ENCODING -1
SWIDTH 720 0
DWIDTH 20 0
BBX 17 26 1 -6
BITMAP
FF8F80
FF8F80
FF8F80
3E0F80
3E0F80
3E0F80
3E0F80
3E0F80
3E0F80
3E0F80
3E0F80
3E0F80
3E0F80
3E0F80
3E0F80
3E0F80
3E0F80
FF8F80
FF8F80
FF8F80
000F80
000F00
001F00
00FE00
00FE00
00F800
ENDCHAR
STARTCHAR Iotatonos.alt
ENCODING -1
SWIDTH 512 0
DWIDTH 14 0
BBX 14 21 -1 0
BITMAP
7000
F7FC
F7FC
E3FC
C0F0
00F0
00F0
00F0
00F0
00F0
00F0
00F0
00F0
00F0
00F0
00F0
00F0
00F0
03FC
07FC
07FC
ENDCHAR
STARTCHAR Iota.alt
ENCODING -1
SWIDTH 389 0
DWIDTH 11 0
BBX 9 20 1 0
BITMAP
FF80
FF80
FF80
3E00
3E00
3E00
3E00
3E00
3E00
3E00
3E00
3E00
3E00
3E00
3E00
3E00
3E00
FF80
FF80
FF80
ENDCHAR
STARTCHAR Iotadieresis.alt
ENCODING -1
SWIDTH 389 0
DWIDTH 11 0
BBX 10 26 1 0
BITMAP
6180
E3C0
F3C0
E380
0000
0000
FF80
FF80
FF80
3E00
3E00
3E00
3E00
3E00
3E00
3E00
3E00
3E00
3E00
3E00
3E00
3E00
3E00
FF80
FF80
FF80
ENDCHAR
STARTCHAR afii10055.alt
ENCODING -1
SWIDTH 389 0
DWIDTH 11 0
BBX 9 20 1 0
BITMAP
FF80
FF80
FF80
3E00
3E00
3E00
3E00
3E00
3E00
3E00
3E00
3E00
3E00
3E00
3E00
3E00
3E00
FF80
FF80
FF80
ENDCHAR
STARTCHAR afii10056.alt
ENCODING -1
SWIDTH 389 0
DWIDTH 11 0
BBX 10 26 1 0
BITMAP
6180
E3C0
F3C0
E380
0000
0000
FF80
FF80
FF80
3E00
3E00
3E00
3E00
3E00
3E00
3E00
3E00
3E00
3E00
3E00
3E00
3E00
3E00
FF80
FF80
FF80
ENDCHAR
STARTCHAR cyrillicbreve
ENCODING -1
SWIDTH 577 0
DWIDTH 16 0
BBX 14 5 1 17
BITMAP
F03C
7078
7CF8
3FF0
1FC0
ENDCHAR
STARTCHAR caroncommaaccent
ENCODING -1
SWIDTH 500 0
DWIDTH 14 0
BBX 4 4 5 17
BITMAP
70
F0
E0
E0
ENDCHAR
STARTCHAR commaaccent
ENCODING -1
SWIDTH 500 0
DWIDTH 14 0
BBX 4 4 5 -6
BITMAP
70
F0
E0
E0
ENDCHAR
STARTCHAR commaaccentrotate
ENCODING -1
SWIDTH 500 0
DWIDTH 14 0
BBX 4 4 5 17
BITMAP
70
70
F0
F0
ENDCHAR
STARTCHAR dasiaoxia
ENCODING -1
SWIDTH 250 0
DWIDTH 7 0
BBX 9 4 2 16
BITMAP
7780
C700
E600
EE00
ENDCHAR
STARTCHAR uni04C0.alt
ENCODING -1
SWIDTH 389 0
DWIDTH 11 0
BBX 9 20 1 0
BITMAP
FF80
FF80
FF80
3E00
3E00
3E00
3E00
3E00
3E00
3E00
3E00
3E00
3E00
3E00
3E00
3E00
3E00
FF80
FF80
FF80
ENDCHAR
STARTCHAR uni04CF.alt
ENCODING -1
SWIDTH 389 0
DWIDTH 11 0
BBX 9 20 1 0
BITMAP
FF80
FF80
FF80
3E00
3E00
3E00
3E00
3E00
3E00
3E00
3E00
3E00
3E00
3E00
3E00
3E00
3E00
FF80
FF80
FF80
ENDCHAR
STARTCHAR uni1EC8.alt
ENCODING -1
SWIDTH 389 0
DWIDTH 11 0
BBX 9 29 1 0
BITMAP
3E00
3F00
0F00
0700
0F00
1E00
1C00
0000
0000
FF80
FF80
FF80
3E00
3E00
3E00
3E00
3E00
3E00
3E00
3E00
3E00
3E00
3E00
3E00
3E00
3E00
FF80
FF80
FF80
ENDCHAR
STARTCHAR uni1ECA.alt
ENCODING -1
SWIDTH 389 0
DWIDTH 11 0
BBX 9 26 1 -6
BITMAP
FF80
FF80
FF80
3E00
3E00
3E00
3E00
3E00
3E00
3E00
3E00
3E00
3E00
3E00
3E00
3E00
3E00
FF80
FF80
FF80
0000
0000
1C00
3E00
3E00
1C00
ENDCHAR
STARTCHAR circumflexacutecomb
ENCODING -1
SWIDTH 0 0
DWIDTH 0 0
BBX 14 6 -13 17
BITMAP
003C
0038
3E60
7F00
7780
E1C0
ENDCHAR
STARTCHAR circumflexgravecomb
ENCODING -1
SWIDTH 0 0
DWIDTH 0 0
BBX 14 6 -17 17
BITMAP
E000
7000
3BE0
07F0
0778
0E1C
ENDCHAR
STARTCHAR circumflexhookcomb
ENCODING -1
SWIDTH 0 0
DWIDTH 0 0
BBX 13 7 -13 17
BITMAP
00F0
00F0
0038
3E70
7F60
7780
E1C0
ENDCHAR
STARTCHAR circumflextildecomb
ENCODING -1
SWIDTH 0 0
DWIDTH 0 0
BBX 10 8 -13 17
BITMAP
7880
FF80
CF00
0000
1E00
3F00
7380
E1C0
ENDCHAR
STARTCHAR breveacutecomb
ENCODING -1
SWIDTH 0 0
DWIDTH 0 0
BBX 10 7 -13 17
BITMAP
0700
0E00
CDC0
C180
E380
7F00
3E00
ENDCHAR
STARTCHAR brevegravecomb
ENCODING -1
SWIDTH 0 0
DWIDTH 0 0
BBX 10 7 -13 17
BITMAP
3800
3800
DDC0
C180
F380
7F00
3E00
ENDCHAR
STARTCHAR brevehookcomb
ENCODING -1
SWIDTH 0 0
DWIDTH 0 0
BBX 10 7 -13 17
BITMAP
1C00
0E00
CFC0
C980
F380
7F00
3E00
ENDCHAR
STARTCHAR brevetildecomb
ENCODING -1
SWIDTH 0 0
DWIDTH 0 0
BBX 10 8 -13 17
BITMAP
7880
FF80
C700
0000
C1C0
F380
7F80
3E00
ENDCHAR
STARTCHAR cyrillichookleft
ENCODING -1
SWIDTH 206 0
DWIDTH 6 0
BBX 6 7 0 -7
BITMAP
70
38
1C
1C
FC
F8
F0
ENDCHAR
STARTCHAR cyrillicbighookUC
ENCODING -1
SWIDTH 291 0
DWIDTH 8 0
BBX 7 11 0 -7
BITMAP
1E
1E
1E
1E
1E
1E
1E
BE
FE
FC
F8
ENDCHAR
STARTCHAR cyrillicbighookLC
ENCODING -1
SWIDTH 291 0
DWIDTH 8 0
BBX 7 11 0 -7
BITMAP
1E
1E
1E
1E
1E
1E
1E
BE
FE
FC
F8
ENDCHAR
STARTCHAR one.pnum
ENCODING -1
SWIDTH 480 0
DWIDTH 13 0
BBX 9 20 1 0
BITMAP
0780
0F80
1F80
7F80
FF80
F780
E780
4780
0780
0780
0780
0780
0780
0780
0780
0780
0780
0780
0780
0780
ENDCHAR
STARTCHAR zero.os
ENCODING -1
SWIDTH 608 0
DWIDTH 17 0
BBX 15 15 1 0
BITMAP
07E0
1FF0
3FF8
7C7C
783C
783C
F83E
F83E
F83E
783C
783C
7C7C
3FF8
1FF0
0FE0
ENDCHAR
STARTCHAR one.os
ENCODING -1
SWIDTH 492 0
DWIDTH 14 0
BBX 10 15 1 0
BITMAP
03C0
07C0
1FC0
3FC0
7FC0
FBC0
73C0
03C0
03C0
03C0
03C0
03C0
03C0
03C0
03C0
ENDCHAR
STARTCHAR two.os
ENCODING -1
SWIDTH 570 0
DWIDTH 16 0
BBX 14 15 1 0
BITMAP
0FC0
7FF0
FFF8
78F8
2078
0078
00F8
01F0
03E0
0FC0
1F00
7E00
FFFC
FFFC
FFFC
ENDCHAR
STARTCHAR three.os
ENCODING -1
SWIDTH 570 0
DWIDTH 16 0
BBX 14 19 1 -4
BITMAP
1FC0
FFF0
7FF8
70F8
0078
0078
0078
00F0
1FE0
1FC0
1FF0
00F8
007C
007C
007C
C0FC
FFF8
FFF0
3FC0
ENDCHAR
STARTCHAR four.os
ENCODING -1
SWIDTH 570 0
DWIDTH 16 0
BBX 16 19 0 -4
BITMAP
0078
00F8
01F8
01F8
03F8
07F8
0F78
1E78
1C78
3878
7878
FFFF
FFFF
FFFF
0078
0078
0078
0078
0078
ENDCHAR
STARTCHAR five.os
ENCODING -1
SWIDTH 570 0
DWIDTH 16 0
BBX 14 19 1 -4
BITMAP
7FF0
7FF0
7FF0
7800
7800
7800
7800
7FC0
7FF0
7FF8
00F8
007C
007C
007C
0078
C0F8
FFF0
FFE0
7FC0
ENDCHAR
STARTCHAR six.os
ENCODING -1
SWIDTH 570 0
DWIDTH 16 0
BBX 14 20 1 0
BITMAP
03F8
0FF8
1FF8
3E00
7C00
7800
7000
F3E0
F7F0
FFF8
FC7C
F83C
F03C
F03C
F03C
783C
7C78
3FF8
1FF0
0FC0
ENDCHAR
STARTCHAR seven.os
ENCODING -1
SWIDTH 570 0
DWIDTH 16 0
BBX 14 19 1 -4
BITMAP
FFFC
FFFC
FFFC
007C
0078
00F8
00F0
01F0
01E0
01E0
03C0
03C0
0780
0780
0F80
0F00
1F00
1E00
3E00
ENDCHAR
STARTCHAR eight.os
ENCODING -1
SWIDTH 570 0
DWIDTH 16 0
BBX 14 20 1 0
BITMAP
0FC0
3FF0
7FF8
7878
7878
7878
7878
7FF0
3FE0
0FC0
3FE0
7FF8
F878
F03C
F03C
F03C
F87C
7FF8
3FF0
1FC0
ENDCHAR
STARTCHAR nine.os
ENCODING -1
SWIDTH 570 0
DWIDTH 16 0
BBX 14 19 1 -4
BITMAP
0FC0
3FE0
7FF0
F8F8
F078
F03C
F03C
F03C
F87C
7FFC
7FBC
1F3C
003C
0078
00F8
01F0
7FE0
7FC0
7F00
ENDCHAR
STARTCHAR g.alt
ENCODING -1
SWIDTH 632 0
DWIDTH 18 0
BBX 15 22 1 -7
BITMAP
0F9E
3FDE
7FFE
7C7E
783E
F81E
F81E
F81E
F81E
F81E
783E
7C3E
7FFE
3FDE
0F9E
001E
003E
003E
607C
7FFC
7FF8
3FE0
ENDCHAR
STARTCHAR gcircumflex.alt
ENCODING -1
SWIDTH 632 0
DWIDTH 18 0
BBX 15 28 1 -7
BITMAP
07C0
0FE0
1EF0
3838
0000
0000
0F9E
3FDE
7FFE
7C7E
783E
F81E
F81E
F81E
F81E
F81E
783E
7C3E
7FFE
3FDE
0F9E
001E
003E
003E
607C
7FFC
7FF8
3FE0
ENDCHAR
STARTCHAR gbreve.alt
ENCODING -1
SWIDTH 632 0
DWIDTH 18 0
BBX 15 29 1 -7
BITMAP
3818
3838
1FF0
0FE0
07C0
0000
0000
0F9E
3FDE
7FFE
7C7E
783E
F81E
F81E
F81E
F81E
F81E
783E
7C3E
7FFE
3FDE
0F9E
001E
003E
003E
607C
7FFC
7FF8
3FE0
ENDCHAR
STARTCHAR gdot.alt
ENCODING -1
SWIDTH 632 0
DWIDTH 18 0
BBX 15 28 1 -7
BITMAP
03C0
03C0
03C0
03C0
0000
0000
0F9E
3FDE
7FFE
7C7E
783E
F81E
F81E
F81E
F81E
F81E
783E
7C3E
7FFE
3FDE
0F9E
001E
003E
003E
607C
7FFC
7FF8
3FE0
ENDCHAR
STARTCHAR gcommaaccent.alt
ENCODING -1
SWIDTH 632 0
DWIDTH 18 0
BBX 15 28 1 -7
BITMAP
00C0
01C0
03C0
03C0
0000
0000
0F9E
3FDE
7FFE
7C7E
783E
F81E
F81E
F81E
F81E
F81E
783E
7C3E
7FFE
3FDE
0F9E
001E
003E
003E
607C
7FFC
7FF8
3FE0
ENDCHAR
ENDFONT
